<svg width="172" height="25" viewBox="0 0 172 25" fill="none" xmlns="http://www.w3.org/2000/svg">
<path d="M15.6523 0C14.8001 0 13.9886 0 13.1364 0C12.4465 0 11.7567 0 11.0668 0C10.1335 0 9.07842 0.202266 7.86104 0.566344C3.07265 2.06311 0.353822 5.98706 0.0291857 11.8932C-0.37661 18.7702 3.47845 23.7864 9.76828 24.6764C11.3509 24.9191 13.1364 25 15.1654 25C16.8697 25 18.6146 24.9191 20.1161 24.8382C24.8233 24.5955 29.287 21.4401 31.032 15.979C31.1131 15.7362 31.1943 15.4935 31.2754 15.2508C30.1798 14.8867 29.2871 14.4822 28.3131 13.835C28.2726 13.9563 28.232 14.0372 28.1914 14.1586C26.69 18.6084 23.9305 20.9142 20.8059 21.1974C17.4784 21.4806 13.9886 21.521 10.5393 21.2379C6.31902 20.9142 3.11323 16.9094 3.15381 11.9741C3.15381 7.9288 6.72481 3.92395 10.6204 3.60032C13.3799 3.35761 16.4233 3.31715 19.6697 3.43851C23.1595 3.60032 25.7566 5.3398 26.974 8.41424C28.2726 11.6909 30.6262 13.2282 34.3189 13.2686C35.9421 13.2686 37.6059 13.2686 39.229 13.2686C39.9595 13.2686 40.7305 13.2686 41.4609 13.2686C43.2058 13.2686 44.5044 13.2686 45.7623 13.3091C46.7768 13.3091 47.8725 13.5518 48.8464 13.9563C50.3073 14.5631 51.1188 15.8172 51.0377 17.4353C50.9565 19.0534 50.1044 20.267 48.6841 20.7929C47.5479 21.1974 46.4928 21.3997 45.5189 21.4401C43.6928 21.4806 41.6638 21.4806 39.1885 21.4806C37.9711 21.4806 36.7943 21.4806 35.6175 21.4806C34.5624 21.4806 32.2899 21.4806 31.2349 21.4806C30.3015 22.8964 29.4088 23.9887 28.3943 24.9191C29.8552 24.9191 31.2755 24.9596 32.7363 24.9596C34.6436 24.9596 37.7682 25 39.6754 25C42.6783 25 45.1131 24.9595 47.3855 24.8382C51.2406 24.6764 54 21.5615 54 17.4757C54 13.3091 51.2406 10.1942 47.2638 9.95146C45.1131 9.78964 42.8 9.74919 40.0001 9.74919C38.2146 9.74919 36.4291 9.78965 34.6435 9.78965H34.5218C32.3711 9.78965 31.032 8.85922 30.1392 6.79611C28.516 2.95307 25.6755 0.687702 21.8204 0.242718C19.5885 0.0404525 17.3567 0 15.6523 0Z" fill="white"/>
<path d="M28.7998 0.647249C29.6114 1.25404 30.5041 2.26537 31.194 3.60032C31.8433 3.47897 32.4114 3.43851 33.0201 3.43851H33.3853H33.507C36.2664 3.43851 39.0259 3.43851 41.7853 3.43851H47.1823H50.0635C50.3475 3.43851 50.591 3.43851 50.8345 3.39806V0H50.1041H42.8809C39.4722 0 35.4954 1.85059e-06 31.4781 0.080908C30.7476 0.121361 29.5708 0.323624 28.7998 0.647249Z" fill="white"/>
<path d="M69.2402 11.8041C68.2483 11.2736 67.4548 10.4778 66.8596 9.54943C66.2645 8.55472 66 7.49371 66 6.30006C66 5.10641 66.2645 4.04538 66.8596 3.05067C67.4548 2.05597 68.2483 1.32652 69.2402 0.796008C70.232 0.265497 71.3562 0.000244141 72.6126 0.000244141C73.8689 0.000244141 74.9931 0.265497 75.985 0.796008C76.9768 1.32652 77.7704 2.12228 78.3655 3.05067C78.9606 3.97907 79.2251 5.10641 79.2251 6.30006C79.2251 7.49371 78.9606 8.62104 78.3655 9.54943C77.7704 10.4778 76.9768 11.2736 75.985 11.8041C74.9931 12.3346 73.8689 12.5999 72.6126 12.5999C71.4223 12.5999 70.2982 12.3346 69.2402 11.8041ZM74.8608 10.0136C75.5221 9.61574 76.0511 9.15155 76.3817 8.48841C76.7785 7.82528 76.9107 7.09582 76.9107 6.23374C76.9107 5.43797 76.7123 4.64221 76.3817 3.97907C75.985 3.31593 75.5221 2.78542 74.8608 2.45385C74.1996 2.05597 73.4722 1.92334 72.6787 1.92334C71.8852 1.92334 71.1578 2.12228 70.4965 2.45385C69.8353 2.85174 69.3063 3.31593 68.9757 3.97907C68.5789 4.64221 68.4466 5.37166 68.4466 6.23374C68.4466 7.0295 68.645 7.82528 68.9757 8.48841C69.3724 9.15155 69.8353 9.68206 70.4965 10.0136C71.1578 10.4115 71.8852 10.5441 72.6787 10.5441C73.4722 10.6105 74.1996 10.4115 74.8608 10.0136Z" fill="white"/>
<path d="M90.5323 3.05025V12.4005H88.4163V11.2069C88.0856 11.6047 87.6228 11.9363 87.0937 12.2016C86.5647 12.4005 85.9696 12.5331 85.3745 12.5331C84.1181 12.5331 83.1262 12.2016 82.3988 11.4721C81.6715 10.7427 81.3408 9.74795 81.3408 8.35536V2.98394H83.523V8.02379C83.523 8.88587 83.7213 9.48269 84.1181 9.88058C84.5148 10.2785 85.0439 10.4774 85.7051 10.4774C86.4986 10.4774 87.0937 10.2121 87.5566 9.74795C88.0195 9.28375 88.2179 8.5543 88.2179 7.62591V2.85132H90.5323V3.05025Z" fill="white"/>
<path d="M98.7993 2.91748V5.03952C98.6009 4.97321 98.4686 4.97321 98.2703 4.97321C97.4106 4.97321 96.7494 5.23846 96.2865 5.70266C95.8236 6.23317 95.5591 6.89632 95.5591 7.82471V12.4004H93.377V3.05011H95.493V4.4427C96.0881 3.44799 97.2122 2.91748 98.7993 2.91748Z" fill="white"/>
<path d="M101.774 12.202C100.915 11.9367 100.187 11.6052 99.6582 11.141L100.452 9.35048C100.981 9.74837 101.576 10.0799 102.303 10.3452C103.031 10.6104 103.758 10.7431 104.485 10.7431C105.411 10.7431 106.072 10.6105 106.535 10.2789C106.998 10.0136 107.197 9.61575 107.197 9.15155C107.197 8.81998 107.064 8.48841 106.8 8.28947C106.535 8.09053 106.205 7.89158 105.874 7.75896C105.477 7.62633 104.948 7.4937 104.287 7.29476C103.361 7.09582 102.568 6.83057 102.039 6.63162C101.444 6.43268 100.981 6.0348 100.518 5.5706C100.121 5.1064 99.9227 4.44327 99.9227 3.6475C99.9227 2.98437 100.121 2.32123 100.452 1.79071C100.848 1.2602 101.377 0.796008 102.105 0.464439C102.832 0.13287 103.758 0.000244141 104.816 0.000244141C105.543 0.000244141 106.271 0.0665539 106.998 0.265495C107.726 0.464437 108.321 0.72969 108.85 1.06126L108.122 2.85174C107.593 2.52017 106.998 2.32123 106.469 2.12228C105.874 1.98966 105.345 1.85703 104.75 1.85703C103.824 1.85703 103.163 1.98966 102.766 2.32123C102.303 2.6528 102.105 3.05068 102.105 3.51488C102.105 3.84645 102.237 4.17801 102.502 4.37695C102.766 4.57589 103.097 4.77483 103.427 4.90746C103.824 5.04009 104.353 5.17271 105.014 5.37166C105.94 5.5706 106.668 5.76954 107.263 6.03479C107.858 6.23374 108.321 6.63162 108.784 7.09582C109.18 7.56002 109.379 8.22315 109.379 9.01892C109.379 9.68205 109.18 10.3452 108.85 10.8757C108.453 11.4062 107.924 11.8704 107.197 12.202C106.469 12.5335 105.543 12.6662 104.485 12.6662C103.56 12.5999 102.7 12.4672 101.774 12.202Z" fill="white"/>
<path d="M120.62 3.05025V12.4005H118.504V11.2069C118.174 11.6047 117.711 11.9363 117.182 12.2016C116.653 12.4005 116.058 12.5331 115.462 12.5331C114.206 12.5331 113.214 12.2016 112.487 11.4721C111.759 10.7427 111.429 9.74795 111.429 8.35536V2.98394H113.611V8.02379C113.611 8.88587 113.809 9.48269 114.206 9.88058C114.603 10.2785 115.132 10.4774 115.793 10.4774C116.587 10.4774 117.182 10.2121 117.645 9.74795C118.107 9.28375 118.306 8.5543 118.306 7.62591V2.85132H120.62V3.05025Z" fill="white"/>
<path d="M131.067 3.51451C131.795 3.9124 132.324 4.44291 132.787 5.17236C133.183 5.90181 133.382 6.76388 133.382 7.69228C133.382 8.62067 133.183 9.48275 132.787 10.2122C132.39 10.9417 131.795 11.5385 131.067 11.9364C130.34 12.3342 129.546 12.5332 128.621 12.5332C127.364 12.5332 126.372 12.1353 125.645 11.2732V15.8489H123.463V3.05031H125.579V4.31028C125.91 3.84608 126.372 3.51451 126.901 3.31557C127.43 3.11663 128.026 2.984 128.687 2.984C129.546 2.91769 130.34 3.11663 131.067 3.51451ZM130.406 9.88063C130.935 9.35012 131.2 8.62067 131.2 7.75859C131.2 6.89651 130.935 6.16706 130.406 5.63655C129.877 5.10604 129.216 4.84079 128.422 4.84079C127.893 4.84079 127.43 4.97342 127.034 5.17236C126.637 5.43761 126.306 5.76918 126.042 6.16707C125.777 6.63126 125.645 7.09545 125.645 7.69228C125.645 8.2891 125.777 8.81961 126.042 9.21749C126.306 9.68169 126.637 10.0133 127.034 10.2122C127.43 10.4775 127.959 10.5438 128.422 10.5438C129.216 10.6764 129.877 10.4111 130.406 9.88063Z" fill="white"/>
<path d="M143.103 3.51451C143.831 3.9124 144.36 4.44291 144.823 5.17236C145.219 5.90181 145.418 6.76388 145.418 7.69228C145.418 8.62067 145.219 9.48275 144.823 10.2122C144.426 10.9417 143.831 11.5385 143.103 11.9364C142.376 12.3342 141.583 12.5332 140.657 12.5332C139.4 12.5332 138.409 12.1353 137.681 11.2732V15.8489H135.499V3.05031H137.615V4.31028C137.946 3.84608 138.409 3.51451 138.938 3.31557C139.467 3.11663 140.062 2.984 140.723 2.984C141.583 2.91769 142.376 3.11663 143.103 3.51451ZM142.376 9.88063C142.905 9.35012 143.17 8.62067 143.17 7.75859C143.17 6.89651 142.905 6.16706 142.376 5.63655C141.847 5.10604 141.186 4.84079 140.392 4.84079C139.863 4.84079 139.4 4.97342 139.004 5.17236C138.607 5.43761 138.276 5.76918 138.012 6.16707C137.747 6.63126 137.615 7.09545 137.615 7.69228C137.615 8.2891 137.747 8.81961 138.012 9.21749C138.276 9.68169 138.607 10.0133 139.004 10.2122C139.4 10.4775 139.929 10.5438 140.392 10.5438C141.252 10.6764 141.913 10.4111 142.376 9.88063Z" fill="white"/>
<path d="M149.12 11.9365C148.393 11.5386 147.798 10.9418 147.335 10.2123C146.938 9.48288 146.674 8.6208 146.674 7.75872C146.674 6.83033 146.872 6.03457 147.335 5.30511C147.732 4.57566 148.327 3.97883 149.12 3.58095C149.848 3.18307 150.707 2.98413 151.699 2.98413C152.625 2.98413 153.485 3.18307 154.278 3.58095C155.006 3.97883 155.601 4.57566 156.064 5.30511C156.46 6.03457 156.725 6.83033 156.725 7.75872C156.725 8.68712 156.527 9.48288 156.064 10.2123C155.667 10.9418 155.072 11.5386 154.278 11.9365C153.551 12.3344 152.691 12.5333 151.699 12.5333C150.774 12.5333 149.914 12.3344 149.12 11.9365ZM153.683 9.88076C154.212 9.35025 154.477 8.6208 154.477 7.75872C154.477 6.89664 154.212 6.16719 153.683 5.63668C153.154 5.10617 152.493 4.84092 151.699 4.84092C150.906 4.84092 150.245 5.10617 149.716 5.63668C149.187 6.16719 148.922 6.89664 148.922 7.75872C148.922 8.6208 149.187 9.35025 149.716 9.88076C150.245 10.4113 150.906 10.6765 151.699 10.6765C152.493 10.6765 153.154 10.4113 153.683 9.88076Z" fill="white"/>
<path d="M164.197 2.91748V5.03952C163.998 4.97321 163.866 4.97321 163.668 4.97321C162.808 4.97321 162.147 5.23846 161.684 5.70266C161.221 6.23317 160.957 6.89632 160.957 7.82471V12.4004H158.774V3.05011H160.89V4.4427C161.486 3.44799 162.61 2.91748 164.197 2.91748Z" fill="white"/>
<path d="M171.999 11.9365C171.735 12.1354 171.404 12.3344 171.073 12.4007C170.677 12.5333 170.346 12.5333 169.883 12.5333C168.825 12.5333 168.032 12.2681 167.503 11.7376C166.974 11.2071 166.643 10.4113 166.643 9.41658V4.90724H165.122V3.18309H166.643V1.06104H168.825V3.18309H171.338V4.90724H168.825V9.35026C168.825 9.81446 168.957 10.146 169.156 10.4113C169.354 10.6765 169.685 10.7429 170.148 10.7429C170.61 10.7429 171.073 10.6102 171.404 10.345L171.999 11.9365Z" fill="white"/>
<path d="M95.5581 20.4908H93.8389V19.6951H98.2032V20.4908H96.55V24.8675H95.5581V20.4908Z" fill="white"/>
<path d="M98.8651 24.8013C98.5345 24.735 98.3361 24.6024 98.1377 24.4698L98.4683 23.7403C98.6667 23.873 98.8651 23.9393 99.1296 24.0056C99.3941 24.0719 99.5925 24.1382 99.857 24.1382C100.386 24.1382 100.717 24.0056 100.717 23.674C100.717 23.5414 100.65 23.4088 100.518 23.4088C100.386 23.3424 100.121 23.2761 99.857 23.2761C99.5263 23.2098 99.2618 23.1435 99.0635 23.0772C98.8651 23.0109 98.6667 22.8782 98.5345 22.7456C98.4022 22.613 98.3361 22.3477 98.3361 22.0825C98.3361 21.6846 98.4683 21.4193 98.799 21.1541C99.1296 20.9551 99.5263 20.8225 100.055 20.8225C100.32 20.8225 100.584 20.8225 100.849 20.8888C101.113 20.9551 101.312 21.0215 101.51 21.1541L101.179 21.8835C100.849 21.6846 100.452 21.6183 100.055 21.6183C99.7908 21.6183 99.5925 21.6846 99.4602 21.7509C99.328 21.8172 99.2618 21.9499 99.2618 22.0825C99.2618 22.2151 99.328 22.3477 99.4602 22.414C99.5925 22.4804 99.857 22.5467 100.188 22.613C100.518 22.6793 100.783 22.7456 100.981 22.8119C101.179 22.8782 101.378 23.0109 101.51 23.1435C101.642 23.2761 101.708 23.5414 101.708 23.8066C101.708 24.2045 101.576 24.4698 101.246 24.6687C100.915 24.8677 100.518 25.0003 99.9231 25.0003C99.5263 24.934 99.1957 24.8677 98.8651 24.8013Z" fill="white"/>
<path d="M103.097 24.6687C102.767 24.4698 102.502 24.2708 102.37 23.9393C102.172 23.6077 102.105 23.2761 102.105 22.8782C102.105 22.4804 102.172 22.1488 102.37 21.8172C102.568 21.4856 102.833 21.2867 103.097 21.0878C103.428 20.8888 103.759 20.8225 104.155 20.8225C104.552 20.8225 104.949 20.8888 105.213 21.0878C105.544 21.2867 105.809 21.4856 105.941 21.8172C106.139 22.1488 106.205 22.4804 106.205 22.8782C106.205 23.2761 106.139 23.6077 105.941 23.9393C105.742 24.2708 105.478 24.4698 105.213 24.6687C104.883 24.8677 104.552 24.934 104.155 24.934C103.759 24.934 103.428 24.8013 103.097 24.6687ZM105.015 23.7403C105.213 23.5414 105.346 23.2098 105.346 22.8119C105.346 22.414 105.213 22.1488 105.015 21.8835C104.817 21.6846 104.486 21.552 104.155 21.552C103.825 21.552 103.56 21.6846 103.296 21.8835C103.097 22.0825 102.965 22.414 102.965 22.8119C102.965 23.2098 103.097 23.4751 103.296 23.7403C103.494 23.9393 103.825 24.0719 104.155 24.0719C104.552 24.1382 104.817 24.0056 105.015 23.7403Z" fill="white"/>
<path d="M107.195 19.3635H108.121V24.8676H107.195V19.3635Z" fill="white"/>
<path d="M112.751 21.2867C113.082 21.552 113.214 22.0162 113.214 22.613V24.8677H112.288V22.6793C112.288 22.3477 112.222 22.0825 112.024 21.8835C111.891 21.6846 111.627 21.6183 111.296 21.6183C110.966 21.6183 110.701 21.7509 110.503 21.9498C110.304 22.1488 110.238 22.4804 110.238 22.8119V24.8013H109.312V20.8225H110.172V21.353C110.304 21.1541 110.503 21.0214 110.767 20.9551C111.032 20.8888 111.23 20.8225 111.561 20.8225C112.09 20.8225 112.487 21.0214 112.751 21.2867Z" fill="white"/>
<path d="M118.108 23.1439H115C115.066 23.4091 115.198 23.6744 115.396 23.807C115.595 24.006 115.925 24.0723 116.256 24.0723C116.719 24.0723 117.05 23.9397 117.314 23.6744L117.777 24.2712C117.579 24.4702 117.38 24.6691 117.116 24.7354C116.851 24.868 116.521 24.868 116.19 24.868C115.727 24.868 115.396 24.8017 115.066 24.6028C114.735 24.4038 114.471 24.2049 114.272 23.8733C114.074 23.5418 114.008 23.2102 114.008 22.8123C114.008 22.4144 114.074 22.0829 114.272 21.7513C114.471 21.4197 114.669 21.2208 115 21.0218C115.33 20.8229 115.661 20.7566 116.058 20.7566C116.454 20.7566 116.785 20.8229 117.116 21.0218C117.446 21.2208 117.645 21.4197 117.843 21.7513C118.041 22.0829 118.108 22.4144 118.108 22.8123C118.174 22.9449 118.108 23.0776 118.108 23.1439ZM115.396 21.8839C115.198 22.0829 115.066 22.2818 115 22.6134H117.248C117.182 22.3481 117.116 22.0829 116.917 21.8839C116.719 21.685 116.454 21.6187 116.19 21.6187C115.859 21.6187 115.595 21.685 115.396 21.8839Z" fill="white"/>
<path d="M121.414 24.6691C121.281 24.7354 121.149 24.8017 121.017 24.868C120.885 24.9343 120.686 24.9343 120.554 24.9343C120.091 24.9343 119.761 24.8017 119.562 24.6027C119.298 24.4038 119.232 24.0722 119.232 23.608V21.6849H118.57V20.9555H119.232V20.0271H120.157V20.9555H121.215V21.6849H120.157V23.5417C120.157 23.7407 120.223 23.8733 120.29 24.0059C120.356 24.1386 120.488 24.1386 120.686 24.1386C120.885 24.1386 121.083 24.0722 121.215 24.0059L121.414 24.6691Z" fill="white"/>
<path d="M128.225 20.8889L126.77 24.8677H125.91L124.918 22.1489L123.86 24.8677H123.001L121.546 20.8889H122.406L123.464 23.8067L124.522 20.8889H125.315L126.373 23.8067L127.431 20.8889H128.225Z" fill="white"/>
<path d="M129.48 24.6687C129.15 24.4698 128.885 24.2708 128.753 23.9393C128.554 23.6077 128.488 23.2761 128.488 22.8782C128.488 22.4804 128.554 22.1488 128.753 21.8172C128.951 21.4856 129.216 21.2867 129.48 21.0878C129.811 20.8888 130.141 20.8225 130.538 20.8225C130.935 20.8225 131.332 20.8888 131.596 21.0878C131.927 21.2867 132.191 21.4856 132.324 21.8172C132.522 22.1488 132.588 22.4804 132.588 22.8782C132.588 23.2761 132.522 23.6077 132.324 23.9393C132.125 24.2708 131.861 24.4698 131.596 24.6687C131.266 24.8677 130.935 24.934 130.538 24.934C130.141 24.934 129.811 24.8013 129.48 24.6687ZM131.398 23.7403C131.596 23.5414 131.728 23.2098 131.728 22.8119C131.728 22.414 131.596 22.1488 131.398 21.8835C131.199 21.6846 130.869 21.552 130.538 21.552C130.208 21.552 129.943 21.6846 129.679 21.8835C129.48 22.0825 129.348 22.414 129.348 22.8119C129.348 23.2098 129.48 23.4751 129.679 23.7403C129.877 23.9393 130.208 24.0719 130.538 24.0719C130.869 24.0719 131.199 24.0056 131.398 23.7403Z" fill="white"/>
<path d="M135.829 20.8225V21.6846C135.763 21.6846 135.697 21.6846 135.631 21.6846C135.3 21.6846 134.97 21.8172 134.771 22.0162C134.573 22.2151 134.441 22.5467 134.441 22.9445V24.8677H133.581V20.8888H134.441V21.4856C134.705 21.0215 135.168 20.8225 135.829 20.8225Z" fill="white"/>
<path d="M138.209 23.1434L137.548 23.8065V24.8676H136.622V19.3635H137.548V22.6792L139.465 20.8887H140.59L138.936 22.5466L140.722 24.8676H139.598L138.209 23.1434Z" fill="white"/>
<path d="M141.45 24.8013C141.119 24.735 140.921 24.6024 140.723 24.4698L141.053 23.7403C141.252 23.873 141.45 23.9393 141.715 24.0056C141.979 24.0719 142.177 24.1382 142.442 24.1382C142.971 24.1382 143.302 24.0056 143.302 23.674C143.302 23.5414 143.235 23.4088 143.103 23.4088C142.971 23.3424 142.706 23.2761 142.442 23.2761C142.111 23.2098 141.847 23.1435 141.648 23.0772C141.45 23.0109 141.252 22.8782 141.119 22.7456C140.987 22.613 140.921 22.3477 140.921 22.0825C140.921 21.6846 141.053 21.4193 141.384 21.1541C141.715 20.9551 142.111 20.8225 142.64 20.8225C142.905 20.8225 143.169 20.8225 143.434 20.8888C143.698 20.9551 143.897 21.0215 144.095 21.1541L143.764 21.8835C143.434 21.6846 143.037 21.6183 142.64 21.6183C142.376 21.6183 142.177 21.6846 142.045 21.7509C141.913 21.8172 141.847 21.9499 141.847 22.0825C141.847 22.2151 141.913 22.3477 142.045 22.414C142.177 22.4804 142.442 22.5467 142.773 22.613C143.103 22.6793 143.368 22.7456 143.566 22.8119C143.764 22.8782 143.963 23.0109 144.095 23.1435C144.227 23.2761 144.293 23.5414 144.293 23.8066C144.293 24.2045 144.161 24.4698 143.831 24.6687C143.5 24.8677 143.103 25.0003 142.508 25.0003C142.111 24.934 141.781 24.8677 141.45 24.8013Z" fill="white"/>
<path d="M66.0654 22.1489H90.3997" stroke="white" stroke-width="0.3" stroke-miterlimit="10"/>
<path d="M147.665 22.1489H171.999" stroke="white" stroke-width="0.3" stroke-miterlimit="10"/>
</svg>
