<svg width="72" height="170" viewBox="0 0 72 170" fill="none" xmlns="http://www.w3.org/2000/svg">
<path d="M65.2917 24.2287C65.2866 24.9335 65.1401 25.6301 64.861 26.2773C64.3892 27.3017 62.5842 30.2415 62.5842 30.2415L60.7382 33.4681C60.6963 33.5427 60.6353 33.6048 60.5614 33.6481C60.4875 33.6913 60.4034 33.7141 60.3177 33.7141C60.2321 33.7141 60.148 33.6913 60.0741 33.6481C60.0002 33.6048 59.9391 33.5427 59.8972 33.4681L58.041 30.2415C58.041 30.2415 56.2462 27.3221 55.7745 26.2773C55.4964 25.6297 55.35 24.9333 55.3438 24.2287C55.3438 22.9111 55.8678 21.6475 56.8006 20.7158C57.7334 19.7842 58.9985 19.2607 60.3177 19.2607C61.6369 19.2607 62.9021 19.7842 63.8349 20.7158C64.7677 21.6475 65.2917 22.9111 65.2917 24.2287ZM62.215 23.7882C62.2169 23.4173 62.1091 23.054 61.9052 22.7439C61.7012 22.4338 61.4102 22.1908 61.0686 22.0452C60.7269 21.8996 60.3499 21.8579 59.9846 21.9254C59.6194 21.9929 59.2822 22.1666 59.0154 22.4247C58.7485 22.6827 58.5638 23.0137 58.4845 23.3761C58.4052 23.7386 58.4347 24.1163 58.5694 24.4621C58.7041 24.8078 58.9379 25.1062 59.2416 25.3198C59.5453 25.5334 59.9054 25.6527 60.2767 25.6627C60.5266 25.6682 60.7751 25.6237 61.0075 25.532C61.24 25.4402 61.4517 25.303 61.6304 25.1284C61.809 24.9538 61.9509 24.7453 62.0478 24.5152C62.1447 24.285 62.1946 24.0379 62.1945 23.7882H62.215Z" fill="#000229"/>
<path d="M33.0185 31.6656C33.8287 31.8193 34.3415 33.1714 34.2902 33.8577C34.2902 33.8577 40.4436 33.9294 42.5665 35.1483C42.5665 35.1483 45.4791 37.914 49.0993 46.6105L45.9201 45.4837H34.3004L28.6188 62.3236H28.5368C26.9369 61.0124 24.1987 62.4875 23.9423 64.0137C23.9423 64.1366 23.2449 64.0137 22.1886 63.7781V63.8805C18.9273 66.0623 20.5374 70.2211 20.5374 70.2211V70.4669C16.2013 70.1058 11.9189 69.2641 7.76916 67.9573C3.5541 66.4721 1.61579 64.5566 0.662018 62.2211C-0.784024 58.8614 5.14372 38.0779 10.7023 35.1995C12.8149 34.1035 19.9323 33.704 20.8656 33.6631C21.0401 32.9095 21.4807 32.244 22.1065 31.7886C22.1788 31.7605 22.2548 31.7433 22.3321 31.7373C25.8715 31.1908 29.4721 31.1666 33.0185 31.6656Z" fill="#CAD7E4"/>
<path d="M44.1762 163.486C46.3196 163.731 48.3502 164.93 47.8682 167.655H31.2951C31.7874 164.92 29.7568 163.721 27.6031 163.475C26.5146 163.354 25.4377 163.145 24.3828 162.851V162.717C24.3828 162.533 24.3828 161.57 24.3828 159.982H33.5103C34.3615 160.126 39.7047 162.953 44.1762 163.486Z" fill="#CAD7E4"/>
<path d="M46.6884 88.0747L6.32227 88.1669C6.38365 81.4068 6.86661 74.6571 7.76831 67.957C11.899 69.2524 16.1605 70.0872 20.475 70.4461L21.6544 70.5691C22.5441 70.9873 23.4547 71.36 24.3824 71.6856C24.7619 71.7675 25.1311 71.829 25.4798 71.8699L23.2748 78.4153L35.9405 77.1452L46.1961 80.5152C46.4833 84.8174 46.6269 87.1528 46.6884 88.0747Z" fill="#CAD7E4"/>
<path d="M34.3819 14.5293C34.6198 14.5293 34.8126 14.3365 34.8126 14.0986C34.8126 13.8608 34.6198 13.668 34.3819 13.668C34.144 13.668 33.9512 13.8608 33.9512 14.0986C33.9512 14.3365 34.144 14.5293 34.3819 14.5293Z" fill="#000229"/>
<path d="M27.5727 163.486C29.7264 163.731 31.757 164.93 31.2647 167.665H7.59473C7.59473 166.948 7.59474 164.172 7.5332 159.982H16.9376C17.5632 160.126 20.8655 161.826 24.3832 162.84C25.4275 163.14 26.494 163.356 27.5727 163.486Z" fill="#CAD7E4"/>
<path d="M29.0596 14.5293C29.2975 14.5293 29.4904 14.3365 29.4904 14.0986C29.4904 13.8608 29.2975 13.668 29.0596 13.668C28.8218 13.668 28.6289 13.8608 28.6289 14.0986C28.6289 14.3365 28.8218 14.5293 29.0596 14.5293Z" fill="#000229"/>
<path fill-rule="evenodd" clip-rule="evenodd" d="M32.9634 32.1713C29.4601 31.6544 25.8996 31.6549 22.3963 32.1728C22.3861 32.1743 22.3758 32.1755 22.3654 32.1763C22.3473 32.1777 22.3294 32.1805 22.3118 32.1846C21.8004 32.5762 21.4404 33.1337 21.2948 33.7621L20.4355 33.5636C20.634 32.7068 21.1349 31.9502 21.8464 31.4324C21.8773 31.4099 21.9109 31.3916 21.9464 31.3778C22.0537 31.3361 22.1663 31.3098 22.2809 31.2994C25.8689 30.7703 29.5153 30.771 33.1032 31.3014L33.0386 31.7371L33.1209 31.3044C33.7348 31.4208 34.1512 31.9582 34.3915 32.4355C34.5601 32.7704 34.6804 33.15 34.7298 33.4981C34.8894 33.5027 35.0902 33.5095 35.3236 33.5193C35.9388 33.5453 36.7823 33.5928 37.6939 33.6789C38.6042 33.7648 39.5894 33.8899 40.4859 34.0723C41.3724 34.2527 42.2122 34.4968 42.8064 34.838C42.8368 34.8554 42.865 34.8764 42.8904 34.9006L42.5866 35.2198C42.8904 34.9006 42.8906 34.9007 42.8908 34.9009L42.8912 34.9013L42.8922 34.9022L42.8949 34.9049L42.9036 34.9133C42.9108 34.9203 42.9207 34.9301 42.9333 34.9429C42.9586 34.9683 42.9946 35.0054 43.0409 35.0548C43.1334 35.1536 43.2669 35.3019 43.4371 35.5059C43.7773 35.9138 44.2641 36.5442 44.863 37.4463C46.06 39.2494 47.7048 42.1378 49.5234 46.505L49.5814 46.6306L48.7806 46.9997L48.719 46.8665C48.7167 46.8614 48.7144 46.8563 48.7122 46.8511C46.9118 42.5262 45.2915 39.6859 44.1279 37.9331C43.5461 37.0567 43.0784 36.4522 42.7594 36.0698C42.5999 35.8786 42.4776 35.7429 42.3967 35.6565C42.3634 35.6209 42.3372 35.5937 42.3182 35.5744C41.85 35.3183 41.1446 35.1054 40.3098 34.9355C39.4555 34.7617 38.5042 34.6402 37.6109 34.5559C36.7187 34.4717 35.8912 34.425 35.2863 34.3995C34.9841 34.3867 34.738 34.3792 34.5677 34.3749C34.4826 34.3728 34.4166 34.3715 34.372 34.3707L34.3215 34.3698L34.309 34.3696L34.3053 34.3696C34.1835 34.3682 34.0677 34.3165 33.9853 34.2269C33.903 34.1373 33.8615 34.0177 33.8705 33.8964C33.8887 33.6538 33.8015 33.2244 33.6035 32.8313C33.4002 32.4275 33.1585 32.2123 32.9634 32.1713Z" fill="#000229"/>
<path fill-rule="evenodd" clip-rule="evenodd" d="M21.2338 33.8482C21.2337 33.8532 21.2337 33.8587 21.2337 33.8682H21.2296C21.2333 33.8527 21.2339 33.8427 21.2339 33.8423L21.2339 33.8423C21.2339 33.8421 21.2338 33.8437 21.2338 33.8482ZM21.0403 33.8682H21.2296C21.2293 33.8696 21.2289 33.871 21.2286 33.8725C21.2235 33.8919 21.2145 33.9161 21.1992 33.9411C21.1838 33.9662 21.1665 33.9851 21.1515 33.9979L21.0403 33.8682ZM21.0403 33.8682H20.3517C20.3517 33.8653 20.3517 33.862 20.3516 33.8583C20.351 33.7797 20.3488 33.5243 20.5775 33.3284L21.0403 33.8682Z" fill="#000229"/>
<path fill-rule="evenodd" clip-rule="evenodd" d="M23.8771 152.446C23.82 147.719 23.7473 141.701 23.6855 135.116L24.5675 135.107C24.6291 141.671 24.702 147.714 24.7593 152.454C24.7971 155.59 24.8281 158.157 24.8444 159.927L24.8444 159.931L24.8444 159.94V162.666H23.9624V159.933C23.946 158.144 23.915 155.579 23.8771 152.446Z" fill="#000229"/>
<path fill-rule="evenodd" clip-rule="evenodd" d="M8.21084 67.6089V67.9572C8.21084 67.9768 8.20953 67.9964 8.20691 68.0158C7.3266 74.5574 6.84655 81.1464 6.76937 87.746L46.2196 87.6559C46.1455 86.5035 45.9999 84.254 45.7169 80.5178L46.5964 80.4514C46.8857 84.2709 47.0316 86.5398 47.1043 87.6699C47.1142 87.8226 47.1227 87.9545 47.13 88.0666C47.1379 88.188 47.0952 88.3072 47.0121 88.3961C46.9289 88.4849 46.8127 88.5355 46.6909 88.5358L6.32481 88.628C6.207 88.6282 6.09397 88.5814 6.01094 88.4979C5.92791 88.4144 5.88178 88.3012 5.88283 88.1836C5.94344 81.4082 6.42639 74.6431 7.32886 67.9277V67.6089H8.21084Z" fill="#000229"/>
<path fill-rule="evenodd" clip-rule="evenodd" d="M13.9211 91.2812C14.1646 91.2744 14.3674 91.4661 14.3742 91.7092C14.4389 94.0357 13.6619 95.9157 12.3586 97.348C11.0624 98.7726 9.26401 99.7353 7.30315 100.279L7.30237 100.279C6.22951 100.575 5.12671 100.748 4.0149 100.797C3.77158 100.807 3.56573 100.619 3.55511 100.376C3.5445 100.133 3.73315 99.9271 3.97647 99.9165C5.02191 99.8709 6.05888 99.7077 7.0677 99.43C8.91148 98.9187 10.5486 98.0274 11.7059 96.7555C12.8562 95.4913 13.5509 93.8323 13.4926 91.7337C13.4858 91.4905 13.6777 91.2879 13.9211 91.2812Z" fill="#000229"/>
<path fill-rule="evenodd" clip-rule="evenodd" d="M7.28821 87.9621C7.53168 87.9683 7.72396 88.1706 7.71769 88.4137C7.62556 91.9819 7.62554 95.8376 7.62554 99.8543L7.62553 99.8562C7.54127 119.409 7.7904 142.711 7.93585 156.315C7.94969 157.61 7.9626 158.818 7.97419 159.925C8.03575 164.117 8.03575 166.895 8.03575 167.613C8.03575 167.856 7.83831 168.054 7.59476 168.054C7.35121 168.054 7.15377 167.856 7.15377 167.613V167.613C7.15377 166.897 7.15377 164.123 7.09229 159.937L7.09226 159.935C7.08067 158.828 7.06776 157.62 7.05391 156.325C6.90847 142.721 6.65927 119.413 6.74355 99.8533V99.8502C6.74355 95.8377 6.74355 91.9714 6.836 88.391C6.84227 88.1478 7.04474 87.9558 7.28821 87.9621Z" fill="#000229"/>
<path fill-rule="evenodd" clip-rule="evenodd" d="M7.91843 167.335C7.84583 167.257 7.74452 167.204 7.62932 167.195C7.38654 167.175 7.17402 167.356 7.15465 167.599C7.14897 167.67 7.14897 167.741 7.15465 167.812C7.173 168.042 7.36559 168.219 7.59634 168.218L31.2561 168.105C31.4996 168.104 31.6961 167.906 31.6949 167.662C31.6938 167.419 31.4954 167.223 31.2519 167.224L7.91843 167.335Z" fill="#000229"/>
<path fill-rule="evenodd" clip-rule="evenodd" d="M29.8681 96.454C30.1114 96.4646 30.3001 96.6702 30.2895 96.9133C29.7253 109.847 27.7888 122.684 24.5126 135.21C22.3735 143.827 19.8948 152.051 17.5027 159.663C17.6639 159.727 17.8477 159.806 18.0447 159.891C18.1973 159.957 18.3627 160.029 18.5402 160.106C18.8959 160.262 19.3003 160.438 19.7477 160.628C21.0853 161.195 22.7713 161.866 24.505 162.365L24.5097 162.367C25.529 162.673 26.5713 162.897 27.6264 163.038C28.755 163.167 29.9038 163.55 30.7126 164.31C31.5459 165.093 31.9684 166.231 31.6982 167.732C31.6551 167.972 31.4259 168.131 31.1862 168.088C30.9464 168.045 30.7871 167.816 30.8302 167.576C31.0523 166.342 30.7056 165.513 30.1082 164.952C29.4873 164.368 28.5459 164.029 27.5221 163.913L27.514 163.912C26.4117 163.765 25.3229 163.531 24.2579 163.211C22.4747 162.697 20.7518 162.011 19.403 161.439C18.9519 161.247 18.5386 161.067 18.1805 160.911C18.0046 160.834 17.8419 160.763 17.6947 160.7C17.223 160.496 16.9453 160.385 16.8384 160.36C16.7066 160.33 16.5959 160.241 16.5382 160.119C16.4805 159.996 16.4822 159.855 16.5427 159.734L16.5782 159.663C18.9944 151.982 21.4997 143.686 23.6572 134.995L23.6586 134.99C26.9194 122.524 28.8468 109.747 29.4083 96.8749C29.4189 96.6319 29.6248 96.4434 29.8681 96.454Z" fill="#000229"/>
<path fill-rule="evenodd" clip-rule="evenodd" d="M46.3203 88.1366C46.5638 88.1421 46.7567 88.3438 46.7511 88.587C46.1084 116.701 39.9961 140.885 34.1015 159.655C34.144 159.671 34.1874 159.689 34.2316 159.707C34.4707 159.805 34.769 159.935 35.1109 160.084L35.2021 160.124C35.8747 160.417 36.7184 160.786 37.6655 161.164C39.6525 161.956 42.0619 162.778 44.2483 163.038C45.3733 163.167 46.5207 163.55 47.33 164.309C48.1626 165.09 48.5886 166.224 48.3239 167.721C48.2866 167.931 48.1035 168.085 47.8896 168.085H31.0601C30.8166 168.085 30.6191 167.888 30.6191 167.644C30.6191 167.401 30.8166 167.204 31.0601 167.204H47.5045C47.5989 166.173 47.2632 165.455 46.7262 164.951C46.1049 164.369 45.1655 164.03 44.1473 163.913L44.1456 163.913C41.8404 163.639 39.343 162.781 37.3383 161.982C36.3776 161.598 35.5224 161.225 34.8505 160.932L34.7578 160.891C34.4137 160.741 34.1248 160.616 33.8963 160.522C33.6566 160.424 33.5173 160.375 33.4566 160.361C33.336 160.334 33.2321 160.258 33.1703 160.151C33.1086 160.044 33.0945 159.917 33.1316 159.799C39.0531 141.012 45.2246 116.77 45.8694 88.5669C45.8749 88.3237 46.0768 88.131 46.3203 88.1366Z" fill="#000229"/>
<path fill-rule="evenodd" clip-rule="evenodd" d="M25.7491 2.47593C24.7766 3.78122 24.153 5.31255 23.9373 6.92547L23.9354 6.93958L23.9326 6.95354C23.7589 7.82118 23.6375 8.68091 23.528 9.45609C23.5102 9.58251 23.4927 9.70669 23.4753 9.82828C23.4408 10.0691 23.2174 10.2364 22.9763 10.202C22.7352 10.1676 22.5677 9.94451 22.6021 9.7037C22.6192 9.58461 22.6365 9.46211 22.6542 9.33662C22.7629 8.56654 22.8874 7.68445 23.065 6.79465C23.3033 5.03139 23.988 3.35791 25.0545 1.93258L25.0664 1.91667L25.0797 1.90189C26.3386 0.502426 27.6993 0.0118184 29.0671 0.235343C30.3952 0.452378 31.641 1.32979 32.739 2.4631C33.3739 3.11432 33.952 3.81844 34.4671 4.56778C36.0265 6.7981 37.2264 9.25862 38.0234 11.8599L38.0265 11.87L38.0291 11.8802C38.2841 12.8818 38.1139 14.1377 37.7424 15.4163C37.3668 16.7084 36.7673 18.0841 36.0987 19.3561C35.4297 20.6289 34.6847 21.8106 34.0111 22.7151C33.6746 23.1669 33.3512 23.5559 33.0597 23.8544C32.7817 24.139 32.4906 24.3862 32.2172 24.4949C32.0221 24.5734 31.8198 24.6328 31.6132 24.6723L31.6104 24.6728C30.4047 24.8949 29.0913 24.4681 27.9922 23.7837C26.8888 23.0966 25.9261 22.1042 25.4312 21.0818C25.3252 20.8628 25.417 20.5995 25.6363 20.4936C25.8555 20.3877 26.1192 20.4794 26.2253 20.6984C26.6328 21.5403 27.4649 22.4172 28.4588 23.0362C29.4564 23.6574 30.5421 23.9732 31.4488 23.8068C31.5992 23.778 31.7465 23.7347 31.8885 23.6775L31.8906 23.6766C31.9785 23.6418 32.1597 23.5143 32.4283 23.2393C32.6837 22.9778 32.9815 22.6216 33.3034 22.1893C33.9467 21.3256 34.6677 20.1834 35.3178 18.9466C35.9683 17.709 36.5411 16.3895 36.8953 15.1707C37.252 13.9436 37.3695 12.8769 37.1768 12.1072C36.4066 9.59721 35.248 7.22301 33.743 5.07073L33.7409 5.06778L33.7409 5.06777C33.2539 4.35901 32.7071 3.69306 32.1066 3.07716L32.1057 3.07616C31.0604 1.99718 29.9783 1.27687 28.9247 1.1047C27.9147 0.939648 26.8444 1.2652 25.7491 2.47593Z" fill="#000229"/>
<path fill-rule="evenodd" clip-rule="evenodd" d="M22.7215 26.7349C22.7466 28.3706 22.7721 30.0295 22.7721 31.7373V31.8807H21.8901V31.7373C21.8901 30.059 21.8649 28.417 21.8399 26.7902C21.7761 22.6391 21.7138 18.5874 22.0763 14.2869L22.9552 14.3608C22.5966 18.6148 22.6579 22.6009 22.7215 26.7349Z" fill="#000229"/>
<path fill-rule="evenodd" clip-rule="evenodd" d="M31.0923 24.3751L31.0312 24.1311L31.8869 23.9175L31.9493 24.167C32.224 25.3055 32.4411 26.4265 32.668 27.6249C32.6909 27.7461 32.714 27.8681 32.7372 27.9911C32.944 29.0855 33.1645 30.2529 33.449 31.573L32.5868 31.7584C32.2998 30.4267 32.0772 29.2484 31.8706 28.1547C31.8473 28.0316 31.8243 27.9096 31.8013 27.7886C31.5746 26.5907 31.3611 25.4895 31.0923 24.3751Z" fill="#000229"/>
<path fill-rule="evenodd" clip-rule="evenodd" d="M21.2398 8.94783C21.8936 8.7261 22.6008 8.89606 23.2848 9.4825L23.287 9.48438L23.2891 9.48628C23.6595 9.81232 23.983 10.188 24.2503 10.6026C24.3822 10.8071 24.3231 11.0796 24.1183 11.2113C23.9135 11.3431 23.6406 11.284 23.5088 11.0795C23.286 10.7341 23.0166 10.421 22.7082 10.1491C22.1985 9.71297 21.8103 9.68469 21.5234 9.78196C21.2002 9.8916 20.8786 10.2026 20.6178 10.6777C20.3616 11.1442 20.1972 11.7117 20.1546 12.2309C20.1118 12.7532 20.198 13.1405 20.3405 13.3423C20.5869 13.5935 20.9014 13.7679 21.2457 13.8439C21.5985 13.9217 21.9665 13.8926 22.3026 13.7603L22.3285 13.7501L22.3555 13.7432C22.5151 13.7027 22.6687 13.6413 22.8123 13.5607C23.0246 13.4416 23.2935 13.5169 23.4128 13.729C23.5321 13.941 23.4567 14.2096 23.2443 14.3287C23.0414 14.4426 22.8249 14.5304 22.5999 14.59C22.1075 14.7779 21.5706 14.8177 21.0555 14.704C20.5313 14.5884 20.0536 14.3192 19.6835 13.9309L19.667 13.9136L19.6524 13.8945C19.3052 13.4404 19.2248 12.7775 19.2756 12.1589C19.3279 11.5216 19.5263 10.8336 19.8444 10.2541C20.1579 9.68304 20.6222 9.15733 21.2398 8.94783Z" fill="#000229"/>
<path fill-rule="evenodd" clip-rule="evenodd" d="M40.4104 0.00439622C41 0.0320461 41.6074 0.202743 41.8825 0.746558C42.0852 1.14296 42.0874 1.54789 41.927 1.92221C41.7756 2.27548 41.4912 2.57607 41.1646 2.83054C40.5112 3.33966 39.549 3.76991 38.578 4.11732C36.6294 4.81455 34.4593 5.24128 34.1318 5.27634L34.0378 4.40043C34.2845 4.37403 36.3859 3.96594 38.2806 3.28802C39.2313 2.94786 40.0837 2.55545 40.6222 2.13595C40.8915 1.92612 41.0474 1.73592 41.1162 1.57555C41.1757 1.43659 41.1781 1.30547 41.0967 1.14655L41.0955 1.1442C41.0474 1.04874 40.8848 0.908529 40.3691 0.884342C39.878 0.861312 39.205 0.953875 38.3869 1.14902C36.7582 1.53754 34.6744 2.30238 32.5723 3.17592L32.5711 3.17639C29.1088 4.60399 25.6468 6.30112 24.1952 7.01277C23.9763 7.12006 23.8031 7.20494 23.6826 7.26313L23.6799 7.26442L23.5234 7.33737L23.1504 6.53911L23.3015 6.46867C23.4191 6.4119 23.5884 6.32888 23.8029 6.22376C25.2481 5.51516 28.7412 3.80254 32.234 2.36236C34.3468 1.48441 36.4829 0.697507 38.182 0.292206C39.0279 0.0904318 39.7958 -0.0244295 40.4104 0.00439622Z" fill="#000229"/>
<path fill-rule="evenodd" clip-rule="evenodd" d="M34.2253 10.8176C33.8785 10.8946 33.5827 11.1261 33.4785 11.3465C33.3745 11.5665 33.1117 11.6606 32.8915 11.5567C32.6712 11.4529 32.577 11.1904 32.681 10.9704C32.9255 10.4533 33.481 10.0804 34.034 9.95769C34.6049 9.83099 35.3009 9.95097 35.7012 10.5996C35.8289 10.8067 35.7644 11.078 35.5571 11.2057C35.3498 11.3333 35.0781 11.2689 34.9503 11.0618C34.807 10.8295 34.5544 10.7446 34.2253 10.8176Z" fill="#000229"/>
<path fill-rule="evenodd" clip-rule="evenodd" d="M28.3706 11.5035C28.8771 11.4498 29.3891 11.5173 29.8643 11.7003C30.0915 11.7878 30.2047 12.0428 30.1171 12.2697C30.0295 12.4967 29.7742 12.6098 29.547 12.5222C29.2023 12.3895 28.831 12.3406 28.4637 12.3795C28.0963 12.4184 27.7436 12.5441 27.4345 12.7461C27.2307 12.8794 26.9574 12.8223 26.824 12.6188C26.6906 12.4153 26.7477 12.1423 26.9515 12.009C27.3777 11.7305 27.8641 11.5572 28.3706 11.5035Z" fill="#000229"/>
<path fill-rule="evenodd" clip-rule="evenodd" d="M29.3835 20.8919C29.5126 20.6856 29.7846 20.6229 29.9912 20.7518C30.2966 20.9425 30.7611 21.1761 31.206 21.2739C31.6652 21.3748 31.9605 21.3062 32.1276 21.1079C32.2845 20.9219 32.5627 20.8981 32.749 21.0547C32.9353 21.2114 32.9591 21.4893 32.8023 21.6754C32.3131 22.2556 31.5828 22.2587 31.0164 22.1342C30.4358 22.0067 29.8747 21.7179 29.5237 21.4988C29.3172 21.3699 29.2544 21.0982 29.3835 20.8919Z" fill="#000229"/>
<path fill-rule="evenodd" clip-rule="evenodd" d="M22.8732 11.3643C23.0369 11.5444 23.0235 11.823 22.8432 11.9865C22.3261 12.4555 21.6584 12.7249 20.9602 12.746C20.7168 12.7534 20.5135 12.5623 20.5061 12.3191C20.4987 12.076 20.69 11.8729 20.9335 11.8655C21.4217 11.8507 21.8886 11.6624 22.2503 11.3344C22.4305 11.1708 22.7094 11.1842 22.8732 11.3643Z" fill="#000229"/>
<path fill-rule="evenodd" clip-rule="evenodd" d="M32.5308 12.0711C32.7739 12.0855 32.9594 12.294 32.9449 12.5369C32.8659 13.8692 32.9963 15.2056 33.3316 16.4976L33.3374 16.52L33.3408 16.543C33.4052 16.9734 33.5045 17.7156 33.3497 18.2887C33.2691 18.5871 33.0995 18.9147 32.7479 19.0896C32.4005 19.2624 31.9887 19.229 31.5536 19.0705C31.3248 18.9871 31.207 18.7343 31.2905 18.5057C31.374 18.2772 31.6271 18.1596 31.8559 18.2429C32.1797 18.3609 32.3141 18.3212 32.3548 18.301C32.3913 18.2829 32.4518 18.2308 32.4981 18.0593C32.5956 17.6985 32.5394 17.1521 32.4719 16.6957C32.1179 15.3218 31.9804 13.9011 32.0645 12.4847C32.0789 12.2419 32.2877 12.0567 32.5308 12.0711Z" fill="#000229"/>
<path fill-rule="evenodd" clip-rule="evenodd" d="M24.5566 159.49H33.9303V160.372H24.5566V159.49Z" fill="#000229"/>
<path fill-rule="evenodd" clip-rule="evenodd" d="M7.57422 159.49H16.9479V160.372H7.57422V159.49Z" fill="#000229"/>
<path fill-rule="evenodd" clip-rule="evenodd" d="M7.1543 167.613C7.1543 167.37 7.35174 167.173 7.59529 167.173H31.255C31.4986 167.173 31.696 167.37 31.696 167.613V169.56C31.696 169.803 31.4986 170 31.255 170H7.59529C7.35174 170 7.1543 169.803 7.1543 169.56V167.613ZM8.03628 168.054V169.119H30.814V168.054H8.03628Z" fill="#000229"/>
<path fill-rule="evenodd" clip-rule="evenodd" d="M30.8535 167.613C30.8535 167.37 31.051 167.173 31.2945 167.173H47.8676C48.1111 167.173 48.3086 167.37 48.3086 167.613V169.56C48.3086 169.803 48.1111 170 47.8676 170H31.2945C31.051 170 30.8535 169.803 30.8535 169.56V167.613ZM31.7355 168.054V169.119H47.4266V168.054H31.7355Z" fill="#000229"/>
<path fill-rule="evenodd" clip-rule="evenodd" d="M33.8824 45.343C33.9429 45.1639 34.1111 45.0432 34.3003 45.0432H45.9405C45.9908 45.0432 46.0408 45.0518 46.0883 45.0687L49.288 46.2057L49.2884 46.2058L56.4438 48.7561L66.7841 46.65C66.9416 46.6179 67.1042 46.6741 67.2083 46.7965C67.3124 46.9189 67.3415 47.0882 67.2843 47.2383L61.1822 63.2484L59.8489 66.7416L59.0248 66.4278L60.358 62.935L66.1749 47.6732L56.4996 49.6438C56.4207 49.6598 56.339 49.654 56.2633 49.627L48.992 47.0355L45.8644 45.9241H34.6171L28.0115 65.4948L28.011 65.4965L27.991 65.5562L27.1543 65.2777L27.1748 65.2162L27.1754 65.2145L28.2009 62.1825L33.8824 45.343Z" fill="#000229"/>
<path fill-rule="evenodd" clip-rule="evenodd" d="M25.0209 71.6787L25.1026 71.4338L25.9393 71.7124L25.8573 71.9583L25.857 71.9592L23.8697 77.8676L35.8553 76.656C35.9167 76.6498 35.9788 76.6565 36.0375 76.6758L46.1759 80.0073L54.5854 78.0599L56.9425 71.8974L57.7664 72.2117L55.3255 78.5933C55.2732 78.7301 55.1561 78.8321 55.0132 78.8651L46.2549 80.8933C46.1763 80.9115 46.0941 80.9078 46.0175 80.8826L35.8508 77.5419L23.2784 78.8128C23.1293 78.8279 22.9828 78.7664 22.8893 78.6494C22.7959 78.5325 22.7682 78.3762 22.8159 78.2344L25.0206 71.6797L25.0209 71.6787Z" fill="#000229"/>
<path fill-rule="evenodd" clip-rule="evenodd" d="M27.6648 65.7901C27.3028 65.8567 26.9307 65.8453 26.5733 65.7566C26.2127 65.6671 25.8756 65.5009 25.5851 65.2695C25.3947 65.1178 25.3635 64.8407 25.5153 64.6505C25.6672 64.4603 25.9447 64.4291 26.1351 64.5808C26.3265 64.7333 26.5485 64.8427 26.7861 64.9017C27.0236 64.9606 27.2711 64.9677 27.5117 64.9225C27.5183 64.9213 27.525 64.9202 27.5317 64.9192C27.9163 64.865 28.3227 64.7325 28.7424 64.5667C28.9511 64.4843 29.1578 64.3959 29.3645 64.3069C29.3791 64.3007 29.3938 64.2944 29.4084 64.2881C29.5985 64.2062 29.7897 64.1239 29.974 64.0502C30.3595 63.8959 30.7714 63.7546 31.1483 63.7398C31.3441 63.7322 31.5502 63.7573 31.7459 63.8468C31.9462 63.9384 32.1098 64.0857 32.2328 64.2806L32.2348 64.2839L32.2348 64.2839C32.4341 64.6062 32.4104 64.9574 32.3151 65.2516C32.2215 65.5403 32.045 65.8237 31.8544 66.0794C31.848 66.088 31.8412 66.0963 31.8342 66.1045C31.2119 66.8229 30.1326 67.509 28.9346 67.8658C27.7336 68.2235 26.3434 68.2698 25.1347 67.6055C24.9213 67.4882 24.8435 67.2204 24.961 67.0073C25.0784 66.7942 25.3465 66.7164 25.5599 66.8337C26.4947 67.3474 27.6222 67.3374 28.6826 67.0216C29.7385 66.7071 30.6586 66.1087 31.1567 65.5401C31.3196 65.32 31.427 65.1315 31.476 64.9803C31.5234 64.8339 31.5013 64.7749 31.4853 64.7482C31.4471 64.6884 31.4112 64.6626 31.3788 64.6478C31.3414 64.6307 31.2812 64.6162 31.1829 64.6201C30.9718 64.6283 30.6844 64.7149 30.302 64.8679C30.1288 64.9372 29.9477 65.0152 29.7549 65.0982C29.7411 65.1041 29.7273 65.11 29.7135 65.116C29.5072 65.2047 29.2893 65.2981 29.0667 65.386C28.627 65.5596 28.1485 65.7206 27.6648 65.7901Z" fill="#000229"/>
<path fill-rule="evenodd" clip-rule="evenodd" d="M31.2683 65.6098C31.4051 65.4086 31.6793 65.3562 31.8808 65.4928C32.2127 65.7179 32.4497 65.9842 32.5777 66.2923C32.707 66.6034 32.7088 66.9178 32.6366 67.207C32.4985 67.7605 32.0843 68.248 31.7076 68.5974C31.7048 68.5999 31.7021 68.6025 31.6993 68.6049C31.5145 68.7678 31.3213 68.9179 31.1614 69.0353C30.2857 69.7207 29.2462 70.1662 28.1455 70.328C27.0423 70.4901 25.9159 70.3614 24.8778 69.9549C24.651 69.8661 24.5393 69.6105 24.6282 69.384C24.7171 69.1575 24.973 69.0459 25.1998 69.1348C26.0948 69.4853 27.066 69.5962 28.0171 69.4564C28.9682 69.3167 29.8663 68.9311 30.6223 68.338C30.6261 68.335 30.63 68.3321 30.6339 68.3292C30.7792 68.2228 30.9511 68.0892 31.1115 67.9481C31.4506 67.6328 31.7064 67.292 31.7808 66.994C31.8151 66.8568 31.8085 66.7391 31.7631 66.63C31.7165 66.5177 31.6125 66.3756 31.3854 66.2217C31.1839 66.085 31.1315 65.8111 31.2683 65.6098Z" fill="#000229"/>
<path fill-rule="evenodd" clip-rule="evenodd" d="M20.8459 33.2228C20.8523 33.2226 20.8588 33.2224 20.8652 33.2224H20.9575V34.1033H20.875C20.3973 34.1246 18.4077 34.2343 16.275 34.4732C15.2011 34.5935 14.0974 34.7459 13.135 34.9348C12.1604 35.1262 11.3732 35.3474 10.9052 35.5902L10.9049 35.5904C10.2857 35.911 9.63003 36.4995 8.95763 37.3267C8.28851 38.1498 7.62107 39.1864 6.97184 40.3743C5.6734 42.7501 4.46612 45.697 3.47339 48.669C2.48095 51.6402 1.70775 54.6221 1.27291 57.0633C1.05537 58.2846 0.92409 59.3619 0.890584 60.2303C0.856326 61.1181 0.92785 61.7241 1.0668 62.047L1.06999 62.0546C1.96237 64.2397 3.7794 66.083 7.90891 67.5394C12.0049 68.8377 16.2321 69.6791 20.5135 70.0484L20.5213 70.0491L21.7007 70.172C21.7461 70.1768 21.7906 70.1886 21.8325 70.2069C22.6904 70.5838 23.5664 70.9182 24.4573 71.2087C24.5343 71.2255 24.6072 71.242 24.6767 71.2577C24.9751 71.3251 25.2106 71.3784 25.4392 71.3784C25.4595 71.3784 25.4797 71.3798 25.4998 71.3825C29.8763 71.9888 31.4588 69.6803 31.6716 69.202C31.7691 68.9831 31.7305 68.8416 31.6958 68.7856C31.6782 68.7572 31.6577 68.7413 31.6365 68.7324C31.6155 68.7235 31.5773 68.7146 31.515 68.7271L31.342 67.8633C31.7971 67.7723 32.218 67.9544 32.4458 68.322C32.6649 68.6758 32.6673 69.1334 32.4776 69.5598C32.1168 70.3706 30.1784 72.9088 25.4073 72.259C25.079 72.2541 24.7337 72.1751 24.4379 72.1075C24.3721 72.0924 24.3088 72.0779 24.2487 72.0649C24.234 72.0618 24.2196 72.0579 24.2053 72.0532C23.3012 71.7592 22.412 71.4214 21.5408 71.0411L20.4335 70.9257C16.0864 70.5505 11.7942 69.6957 7.63536 68.3769C7.63278 68.3761 7.63021 68.3753 7.62764 68.3744C7.62578 68.3738 7.62393 68.3731 7.62209 68.3725C3.32822 66.8595 1.27 64.8738 0.254797 62.3909C0.0336561 61.8738 -0.0255032 61.0971 0.0092548 60.1963C0.0448534 59.2738 0.182867 58.1536 0.404557 56.909C0.848172 54.4185 1.63318 51.3947 2.63674 48.3902C3.64001 45.3866 4.86652 42.3879 6.19769 39.9523C6.86326 38.7345 7.55958 37.6489 8.27292 36.7714C8.98289 35.898 9.72834 35.2074 10.4986 34.8085M20.8459 33.2228C20.3726 33.2436 18.3495 33.3543 16.1767 33.5978L20.8459 33.2228ZM16.1767 33.5978C15.0905 33.7194 13.9604 33.875 12.9649 34.0705L16.1767 33.5978ZM12.9649 34.0705C11.9818 34.2635 11.0872 34.5032 10.4989 34.8083L12.9649 34.0705Z" fill="#000229"/>
<path fill-rule="evenodd" clip-rule="evenodd" d="M58.2455 66.0138C58.7477 66.176 59.1 66.2219 59.3183 66.1607L59.3194 66.1604C59.3857 66.142 59.4462 66.1068 59.495 66.0581C59.6672 65.8862 59.9465 65.8863 60.1186 66.0584C60.2908 66.2304 60.2907 66.5093 60.1184 66.6813C59.9623 66.837 59.7686 66.9499 59.5561 67.009C59.0618 67.1473 58.4836 67.0166 57.9741 66.852C57.6119 66.735 57.2204 66.5774 56.8499 66.4283C56.6878 66.363 56.5297 66.2993 56.3798 66.2414C55.8554 66.0388 55.4314 65.9058 55.123 65.8972C54.9771 65.8931 54.8961 65.9189 54.8516 65.9456C54.8164 65.9667 54.769 66.0086 54.7303 66.1232C54.7301 66.1239 54.73 66.1248 54.73 66.126C54.7299 66.1282 54.7301 66.1338 54.7324 66.1437C54.7373 66.1645 54.7515 66.2022 54.7887 66.2557C54.8653 66.366 55.0107 66.5026 55.2325 66.6428C55.2354 66.6446 55.2383 66.6464 55.2411 66.6483C56.6671 67.5961 58.377 68.0231 60.0818 67.857C60.3242 67.8334 60.5399 68.0106 60.5635 68.2527C60.5871 68.4948 60.4098 68.7102 60.1674 68.7338C58.262 68.9194 56.3509 68.4427 54.7566 67.3845C54.4778 67.2077 54.23 66.9969 54.0639 66.7577C53.8964 66.5164 53.7828 66.198 53.8887 65.8593L53.8908 65.853C53.985 65.5669 54.1525 65.3373 54.3976 65.1903C54.6341 65.0485 54.8993 65.0097 55.1477 65.0166C55.6281 65.0301 56.1854 65.2217 56.6981 65.4199C56.8743 65.4879 57.047 65.5575 57.2166 65.6258C57.5717 65.7689 57.9133 65.9065 58.2455 66.0138Z" fill="#000229"/>
<path fill-rule="evenodd" clip-rule="evenodd" d="M55.4146 66.938C55.4911 67.169 55.3656 67.4181 55.1344 67.4945C54.8518 67.5878 54.7192 67.6883 54.6611 67.7562C54.6144 67.811 54.6038 67.8568 54.6101 67.9153C54.6181 67.99 54.658 68.0985 54.7524 68.2359C54.8441 68.3693 54.9719 68.5075 55.1205 68.6383C55.2959 68.7873 55.487 68.917 55.6903 69.0251C56.9506 69.5754 58.3067 69.8739 59.682 69.9036C59.9255 69.9088 60.1186 70.1102 60.1134 70.3534C60.1081 70.5966 59.9065 70.7895 59.663 70.7843C58.1668 70.752 56.6915 70.4262 55.3212 69.8253C55.3117 69.8212 55.3023 69.8167 55.2931 69.8118C55.0261 69.6715 54.7754 69.502 54.5458 69.3065L54.5407 69.3022C54.352 69.1365 54.1692 68.9439 54.0252 68.7343C53.8833 68.5279 53.7623 68.2804 53.7332 68.0094C53.7023 67.7222 53.7783 67.4326 53.9901 67.1845C54.1907 66.9496 54.4888 66.7799 54.8575 66.6581C55.0887 66.5818 55.3382 66.7071 55.4146 66.938Z" fill="#000229"/>
<path fill-rule="evenodd" clip-rule="evenodd" d="M60.5831 62.9325C60.7222 62.7329 60.9971 62.6837 61.197 62.8226C61.7677 63.2194 62.283 63.6903 62.7293 64.2228C62.735 64.2297 62.7405 64.2367 62.7459 64.2439C63.1301 64.7637 63.4332 65.3385 63.6451 65.9489C64.104 67.0868 64.1025 68.3584 63.6408 69.4954C63.297 70.3432 62.7278 71.081 61.9947 71.6292C61.2616 72.1774 60.3925 72.5151 59.4812 72.6057L59.4727 72.6065C58.731 72.6659 57.9849 72.585 57.2734 72.3682C55.9773 72.0766 54.7996 71.4008 53.8945 70.4291C53.8558 70.3875 53.8255 70.3389 53.8053 70.2859C53.6459 69.8682 53.6525 69.4247 53.8159 69.0783C53.8983 68.9036 54.0283 68.7396 54.2127 68.633C54.4037 68.5225 54.6274 68.4893 54.8532 68.5432C55.0901 68.5998 55.2362 68.8374 55.1796 69.074C55.123 69.3103 54.8856 69.4561 54.649 69.4002C54.6417 69.4072 54.6283 69.423 54.6137 69.4538C54.5722 69.5418 54.5484 69.7025 54.6042 69.8966C55.3829 70.7058 56.3838 71.2681 57.4821 71.5121C57.4936 71.5147 57.505 71.5177 57.5163 71.5212C58.1248 71.7086 58.7633 71.779 59.398 71.7287C60.1478 71.6534 60.8628 71.3752 61.4661 70.924C62.0706 70.4721 62.5399 69.8637 62.8233 69.1647L62.8234 69.1645C63.2005 68.2361 63.2005 67.1975 62.8234 66.269C62.8204 66.2618 62.8177 66.2544 62.8151 66.247C62.6337 65.7213 62.3738 65.226 62.0442 64.7779C61.6502 64.3095 61.1959 63.8952 60.6931 63.5457C60.4932 63.4067 60.444 63.1322 60.5831 62.9325Z" fill="#000229"/>
<path fill-rule="evenodd" clip-rule="evenodd" d="M14.7366 44.5277C14.9479 44.6489 15.0208 44.9181 14.8995 45.129L14.8644 45.1089C14.8995 45.129 14.8995 45.129 14.8995 45.129L14.8955 45.136L14.8829 45.1582C14.8716 45.178 14.8548 45.2076 14.8329 45.2465C14.789 45.3244 14.7247 45.4395 14.6434 45.5873C14.4808 45.8829 14.2506 46.309 13.9809 46.8295C13.441 47.8713 12.7449 49.2875 12.1165 50.7901C11.4865 52.2964 10.9323 53.8716 10.6666 55.2354C10.5338 55.9173 10.4765 56.53 10.5109 57.046C10.5455 57.5644 10.6704 57.9516 10.8702 58.2177L10.8728 58.2211C11.2232 58.6975 11.8875 59.2164 12.789 59.7445C13.6802 60.2665 14.7621 60.7742 15.9048 61.2421C18.1885 62.1773 20.6777 62.9384 22.2882 63.3282C22.8142 63.4455 23.2372 63.5315 23.5251 63.5736C23.5498 63.5773 23.5728 63.5804 23.5943 63.5832C23.8835 62.7577 24.6883 62.0559 25.5605 61.6794C26.5649 61.2459 27.8426 61.1643 28.8162 61.9622C29.0045 62.1165 29.0319 62.394 28.8774 62.5821C28.7229 62.7701 28.4451 62.7975 28.2568 62.6432C27.6305 62.1299 26.7392 62.1303 25.9104 62.488C25.075 62.8486 24.4836 63.4942 24.3802 64.0473C24.3537 64.2976 24.1488 64.4085 24.0653 64.4399C23.9736 64.4743 23.8825 64.4799 23.8277 64.4813C23.7062 64.4844 23.555 64.4683 23.3974 64.4453C23.0732 64.3979 22.6208 64.305 22.0922 64.1871L22.0845 64.1853C20.4337 63.7861 17.8997 63.0111 15.5702 62.0572C14.4053 61.5802 13.2823 61.0547 12.3428 60.5043C11.4146 59.9606 10.6231 59.3686 10.1633 58.7445C9.82555 58.2938 9.67195 57.7198 9.63089 57.1046C9.58961 56.4862 9.65967 55.7922 9.80087 55.0672C10.0833 53.6174 10.6635 51.9787 11.3027 50.4505C11.9434 48.9185 12.651 47.4794 13.1976 46.4246C13.4711 45.8968 13.7048 45.4642 13.8704 45.1632C13.9531 45.0127 14.0189 44.895 14.0641 44.8147C14.0867 44.7746 14.1042 44.7437 14.1161 44.7228L14.1297 44.699L14.1345 44.6906C14.1346 44.6905 14.1346 44.6904 14.5171 44.9097L14.1345 44.6906C14.2558 44.4797 14.5254 44.4066 14.7366 44.5277ZM23.5099 63.9032C23.5042 63.9307 23.501 63.9606 23.501 63.9928C23.501 63.9684 23.503 63.944 23.5071 63.9199C23.508 63.9144 23.509 63.9088 23.5099 63.9032ZM23.8115 63.6004C23.8142 63.6001 23.8157 63.6 23.8158 63.6001C23.8159 63.6001 23.8145 63.6003 23.8115 63.6004Z" fill="#000229"/>
<path fill-rule="evenodd" clip-rule="evenodd" d="M46.0035 45.6995C46.2354 45.7739 46.3629 46.022 46.2884 46.2536L36.3199 77.229C36.2454 77.4606 35.997 77.588 35.7651 77.5136C35.5333 77.4391 35.4057 77.1911 35.4803 76.9595L45.4487 45.984C45.5232 45.7524 45.7716 45.625 46.0035 45.6995Z" fill="#000229"/>
<path fill-rule="evenodd" clip-rule="evenodd" d="M56.5489 48.7938C56.7804 48.8695 56.9065 49.1183 56.8306 49.3495L46.575 80.6015C46.4992 80.8327 46.25 80.9587 46.0186 80.8829C45.7872 80.8071 45.661 80.5583 45.7369 80.3272L55.9925 49.0751C56.0684 48.844 56.3175 48.718 56.5489 48.7938Z" fill="#000229"/>
<path fill-rule="evenodd" clip-rule="evenodd" d="M69.8796 16.9102C69.6475 16.8297 69.4017 16.7963 69.1565 16.8119C69.1472 16.8125 69.1378 16.8128 69.1284 16.8128H51.5093C51.5012 16.8128 51.4932 16.8126 51.4851 16.8121C51.2413 16.7988 50.9972 16.8339 50.7671 16.9154C50.5369 16.9969 50.3252 17.1232 50.1443 17.287C49.9634 17.4508 49.8168 17.6488 49.713 17.8696C49.6105 18.0877 49.5518 18.3237 49.5402 18.5642V34.2428C49.5731 34.7243 49.7938 35.1739 50.1551 35.4949C50.5196 35.8186 50.9976 35.9852 51.4847 35.958C51.4929 35.9576 51.5011 35.9574 51.5093 35.9574H63.9596C64.2031 35.9574 64.4006 36.1546 64.4006 36.3978C64.4006 36.6411 64.2031 36.8383 63.9596 36.8383H51.521C50.8057 36.8748 50.1045 36.6288 49.569 36.1531C49.0303 35.6746 48.7032 35.0026 48.659 34.284C48.6585 34.275 48.6582 34.266 48.6582 34.257V18.5541C48.6582 18.5478 48.6583 18.5414 48.6586 18.5351C48.6743 18.175 48.7613 17.8215 48.9146 17.4953C49.068 17.169 49.2846 16.8764 49.552 16.6343C49.8194 16.3923 50.1322 16.2056 50.4723 16.0851C50.8085 15.9661 51.1647 15.914 51.5208 15.9319H69.115C69.4724 15.911 69.8305 15.9607 70.1689 16.078C70.5118 16.1969 70.8276 16.383 71.0976 16.6254C71.3676 16.8678 71.5865 17.1616 71.7414 17.4895C71.8963 17.8175 71.984 18.173 71.9996 18.5353C71.9999 18.5416 72 18.5479 72 18.5541V34.257C72 34.2599 72 34.2629 71.9999 34.2658C71.9998 34.2713 71.9996 34.2767 71.9993 34.2821C71.9582 35.0002 71.6335 35.6727 71.0964 36.1519C70.5624 36.6282 69.862 36.8747 69.1474 36.8383H66.7389C66.4953 36.8383 66.2979 36.6411 66.2979 36.3978C66.2979 36.1546 66.4953 35.9574 66.7389 35.9574H69.1592C69.1674 35.9574 69.1756 35.9576 69.1837 35.958C69.6694 35.9851 70.146 35.8185 70.5088 35.4948C70.8687 35.1738 71.0874 34.7243 71.118 34.2437V18.5641C71.1064 18.322 71.0472 18.0846 70.9437 17.8653C70.8389 17.6434 70.6908 17.4446 70.5081 17.2806C70.3253 17.1166 70.1117 16.9906 69.8796 16.9102Z" fill="#000229"/>
<path fill-rule="evenodd" clip-rule="evenodd" d="M64.0621 33.7861C64.3056 33.7861 64.5031 33.9833 64.5031 34.2266H64.0621H63.6211C63.6211 33.9833 63.8185 33.7861 64.0621 33.7861ZM64.5031 36.396V34.2266H64.0621H63.6211V36.3981L63.6211 36.4024C63.6314 37.4623 63.6696 38.7341 63.8078 39.671C63.8748 40.1252 63.9733 40.5649 64.1398 40.8587C64.222 41.0036 64.3639 41.191 64.6007 41.2649C64.8656 41.3476 65.1017 41.2471 65.2658 41.1199C65.5377 40.9091 65.7542 40.5813 65.9299 40.236C66.1103 39.8817 66.2695 39.4646 66.4087 39.0324C66.6873 38.1673 66.8989 37.1995 67.0388 36.4594L67.0393 36.457C67.1067 36.0892 67.1586 35.7757 67.1936 35.5539C67.2112 35.443 67.2245 35.3548 67.2335 35.2942C67.238 35.2639 67.2414 35.2404 67.2437 35.2244L67.2464 35.2061L67.2473 35.1995C67.2811 34.9586 67.1129 34.7358 66.8717 34.702C66.6305 34.6683 66.4076 34.8363 66.3739 35.0772C66.3739 35.0772 66.3739 35.0771 66.3739 35.0772L66.3731 35.0823L66.3707 35.0989C66.3686 35.1137 66.3654 35.136 66.3611 35.165C66.3524 35.2232 66.3395 35.3085 66.3224 35.4165C66.2883 35.6324 66.2377 35.9382 66.1719 36.2971C66.0349 37.0217 65.8313 37.9483 65.569 38.7626C65.4377 39.1703 65.2951 39.5394 65.1437 39.8368C65.0397 40.0412 64.9405 40.1936 64.851 40.2995C64.7907 40.1376 64.731 39.8854 64.6804 39.5426C64.552 38.6723 64.5134 37.4559 64.5031 36.396Z" fill="#000229"/>
<path fill-rule="evenodd" clip-rule="evenodd" d="M22.524 63.6146C22.6595 63.8167 22.6053 64.0903 22.403 64.2256C20.9335 65.2088 20.5548 66.629 20.55 67.8499C20.5476 68.4624 20.6406 69.0148 20.735 69.4154C20.7821 69.6149 20.8291 69.7749 20.8638 69.8835C20.8811 69.9378 20.8953 69.979 20.9048 70.0059C20.9095 70.0193 20.9131 70.0291 20.9154 70.0351L20.9176 70.0412L20.9177 70.0414C20.9178 70.0415 20.9178 70.0416 20.9178 70.0417M20.9178 70.0417C21.0055 70.2685 20.8925 70.5234 20.6655 70.6111C20.4383 70.6988 20.1829 70.586 20.0951 70.3591L20.5064 70.2002C20.0951 70.3591 20.095 70.3589 20.095 70.3587L20.0948 70.3582L20.0943 70.357L20.0929 70.3533L20.0884 70.3414C20.0848 70.3315 20.0797 70.3177 20.0735 70.3001C20.061 70.265 20.0438 70.2148 20.0234 70.1511C19.9828 70.0237 19.9295 69.8417 19.8765 69.6173C19.771 69.17 19.6653 68.5464 19.668 67.8464C19.6735 66.4424 20.1204 64.6924 21.9122 63.4937C22.1145 63.3584 22.3884 63.4125 22.524 63.6146" fill="#000229"/>
<path fill-rule="evenodd" clip-rule="evenodd" d="M18.4056 161.001C17.8467 160.761 17.4124 160.574 17.123 160.467L17.4282 159.641C17.7418 159.756 18.2045 159.955 18.762 160.195C18.8725 160.243 18.9868 160.292 19.1043 160.342C19.823 160.65 20.6841 161.015 21.6259 161.376C23.5155 162.102 25.7044 162.808 27.6942 163.037C28.8307 163.167 29.9566 163.549 30.7453 164.356C31.5505 165.179 31.9411 166.38 31.7218 168L30.8478 167.882C31.0388 166.47 30.6909 165.561 30.1142 164.971C29.5211 164.364 28.6216 164.029 27.5942 163.913L27.5936 163.913C25.4914 163.671 23.2193 162.932 21.3093 162.199C20.3513 161.831 19.4779 161.461 18.7563 161.152C18.6345 161.099 18.5175 161.049 18.4056 161.001Z" fill="#000229"/>
</svg>
