<svg width="109" height="170" viewBox="0 0 109 170" fill="none" xmlns="http://www.w3.org/2000/svg">
<path d="M32.8114 100.497H9.55663H9.48652C9.26626 96.7313 9.45042 92.9524 10.0358 89.2266C15.3294 90.8333 22.7499 92.5109 31.6428 94.3775L32.8815 94.6375C34.798 95.1218 37.1586 94.921 38.1986 97.4847C38.2921 97.7091 38.3973 98.099 38.5258 98.5243H38.2921L34.0501 98.7252C33.8461 98.7318 33.6469 98.7893 33.4702 98.8925C33.2935 98.9958 33.1448 99.1416 33.0372 99.3169C32.9297 99.4923 32.8667 99.6918 32.8538 99.8977C32.8409 100.104 32.8785 100.31 32.9633 100.497H32.8114Z" fill="#CAD7E4"/>
<path d="M35.0436 86.9006C33.94 87.6699 33.07 88.7238 32.5278 89.9481C31.9857 91.1725 31.7922 92.5205 31.9682 93.8461V94.1296C22.8969 92.2633 15.28 90.586 9.92779 88.9795C4.57563 87.3731 1.47638 85.9439 0.975735 84.4437C-2.87448 72.8798 5.61268 49.492 10.0589 45.1452C12.6456 42.6292 18.6176 40.6684 25.0545 39.4281C25.3443 38.6101 25.8556 37.8867 26.5326 37.3374C26.6242 37.2896 26.7199 37.2501 26.8187 37.2193C30.7284 36.4334 34.7576 36.4334 38.6673 37.2193C38.8978 37.2791 39.1215 37.3623 39.3349 37.4674C39.7567 37.6372 40.128 37.9106 40.4137 38.2619C40.6994 38.6133 40.8901 39.0308 40.9679 39.4754C40.9679 39.4754 53.0073 40.822 55.2721 43.645C57.9899 46.9997 62.758 58.5636 66.7155 76.3053L51.8511 76.8014C50.9607 76.8394 50.1128 77.1891 49.4581 77.7881C48.8033 78.3872 48.3842 79.1969 48.275 80.0733L45.891 94.8619C45.6645 92.8185 45.5095 90.3497 43.3162 89.7001C41.1229 89.0504 38.2501 88.0464 35.0436 86.9006Z" fill="#CAD7E4"/>
<path d="M91.8319 157.852H92.0511V157.951C93.0254 158.175 99.2363 161.587 104.534 162.219C107.079 162.53 109.478 163.956 108.918 167.182H80.8105V157.79L91.8319 157.852Z" fill="#CAD7E4"/>
<path d="M50.5365 137.046C51.0903 138.524 52.5747 144.614 55.249 148.622C56.6392 150.668 57.134 153.352 54.4479 154.972L36.6465 134.35L43.1497 128.674C45.4953 131.582 48.0132 134.347 50.6897 136.951L50.5365 137.046Z" fill="#000229"/>
<path fill-rule="evenodd" clip-rule="evenodd" d="M10.3359 119.792C10.3359 119.51 10.5658 119.282 10.8493 119.282H51.5239V120.303H11.3627V168.979H70.3868V123.685H71.4135V169.49C71.4135 169.771 71.1837 170 70.9002 170H10.8493C10.5658 170 10.3359 169.771 10.3359 169.49V119.792Z" fill="#000229"/>
<path fill-rule="evenodd" clip-rule="evenodd" d="M26.9049 37.3336C26.3284 37.8234 25.8923 38.4616 25.643 39.1816C25.5838 39.3526 25.4396 39.4791 25.2641 39.514C22.1132 40.1409 19.0872 40.9403 16.5401 41.8942C13.9803 42.853 11.9558 43.9494 10.7603 45.1443L10.7599 45.1447C9.73785 46.164 8.42669 48.3778 7.08943 51.3772C5.76146 54.3558 4.43383 58.049 3.35921 61.9713C2.28444 65.8941 1.46595 70.0345 1.15054 73.909C0.834583 77.7902 1.02665 81.3681 1.94397 84.1866C2.02878 84.4451 2.25301 84.7585 2.69016 85.1181C3.12255 85.4738 3.72628 85.8445 4.50537 86.228C6.06319 86.9949 8.25446 87.7808 11.0094 88.5957C16.5154 90.2245 24.1881 91.9453 33.3533 93.8602L33.1495 94.8619C23.9867 92.9475 16.2767 91.2193 10.7267 89.5776C7.95364 88.7573 5.6986 87.9525 4.06451 87.148C3.24765 86.7459 2.56902 86.3357 2.05425 85.9123C1.54441 85.4929 1.15666 85.0289 0.986187 84.5086L0.985882 84.5076C0.008388 81.5047 -0.176437 77.7718 0.144866 73.8249C0.466739 69.8709 1.29976 65.6656 2.38691 61.6976C3.4742 57.729 4.81891 53.9862 6.16987 50.956C7.51138 47.947 8.88559 45.5793 10.0518 44.4161M26.9049 37.3336C26.9644 37.3059 27.1025 37.2568 27.3474 37.1992C27.6165 37.1359 27.9678 37.0725 28.3864 37.0132C29.2226 36.8949 30.3023 36.797 31.4799 36.7477C33.8474 36.6487 36.5479 36.7496 38.4399 37.2476C38.4481 37.2497 38.4564 37.2517 38.4648 37.2534C38.923 37.3493 39.3439 37.5779 39.6765 37.9114C40.009 38.245 40.2389 38.6693 40.3383 39.1327C40.3842 39.3469 40.5598 39.5077 40.7747 39.5323L40.79 39.3948C40.7747 39.5323 40.7747 39.5323 40.7747 39.5323L40.7825 39.5332L40.8071 39.5361C40.8166 39.5372 40.8281 39.5385 40.8417 39.5402C40.8593 39.5423 40.8804 39.5448 40.9048 39.5478C40.9909 39.5583 41.118 39.5741 41.2808 39.5952C41.6064 39.6375 42.0748 39.7011 42.6441 39.7864C43.7833 39.9572 45.3235 40.2141 46.9309 40.5591C48.541 40.9047 50.2052 41.3358 51.5977 41.8524C52.2938 42.1107 52.9118 42.3866 53.4169 42.6781C53.9267 42.9725 54.2939 43.2671 54.5161 43.5516L54.5183 43.5545C55.8069 45.1799 57.6321 48.7959 59.6319 54.2944C61.6249 59.7744 63.7749 67.0777 65.7302 76.0378L66.7155 75.8169C64.7519 66.8189 62.5898 59.4704 60.5787 53.9406C58.5749 48.431 56.7045 44.68 55.3062 42.9154C54.9711 42.4868 54.4807 42.1152 53.9163 41.7894C53.3465 41.4605 52.6729 41.1622 51.9445 40.892C50.4879 40.3516 48.7714 39.9086 47.14 39.5585C45.506 39.2078 43.9441 38.9474 42.7917 38.7747C42.2151 38.6883 41.7402 38.6237 41.409 38.5807C41.3427 38.5721 41.2821 38.5643 41.2276 38.5574C41.0581 38.0408 40.7706 37.5699 40.3863 37.1845C39.918 36.7148 39.3261 36.3919 38.6815 36.2545C36.6438 35.7206 33.8299 35.6258 31.4383 35.7258C30.2339 35.7762 29.121 35.8766 28.2469 36.0003C27.8105 36.062 27.4274 36.1304 27.1193 36.2029C26.83 36.271 26.5504 36.3548 26.3631 36.4682C26.3418 36.4811 26.3215 36.4956 26.3022 36.5116C25.64 37.0612 25.1231 37.7671 24.7957 38.5654C21.708 39.1909 18.7281 39.9844 16.1904 40.9349C13.5905 41.9086 11.4025 43.0661 10.0518 44.4161" fill="#000229"/>
<path fill-rule="evenodd" clip-rule="evenodd" d="M10.7206 108.552C8.4431 103.625 7.82939 97.0628 9.12975 88.2874L10.1534 88.4331C8.86777 97.1092 9.49894 103.453 11.6627 108.133C13.8169 112.793 17.5193 115.867 22.5226 117.958C24.3114 118.61 26.1796 119.03 28.0796 119.207L51.677 119.113L51.6812 120.127L28.0331 120.221L28.008 120.219C26.005 120.035 24.0355 119.593 22.1504 118.904L22.1393 118.9L22.1284 118.895C16.9376 116.729 13.0062 113.496 10.7206 108.552Z" fill="#000229"/>
<path fill-rule="evenodd" clip-rule="evenodd" d="M90.7001 126.046C90.3261 118.597 89.9312 114.128 89.2676 111.049L90.2607 110.829C90.9447 114.002 91.3417 118.553 91.7154 125.993C91.9697 131.058 92.2137 137.48 92.5278 145.744C92.6756 149.634 92.839 153.932 93.0262 158.688L92.0104 158.729C91.823 153.967 91.6595 149.666 91.5116 145.775C91.1978 137.516 90.9541 131.104 90.7001 126.046Z" fill="#000229"/>
<path fill-rule="evenodd" clip-rule="evenodd" d="M85.0062 75.1382L85.0208 75.1385C85.6561 75.1528 86.2805 75.304 86.85 75.5816C87.4195 75.8591 87.9202 76.2563 88.3169 76.745C88.7136 77.2337 88.9965 77.8021 89.1458 78.4101C89.2947 79.0162 89.3071 79.6469 89.1823 80.2582L85.5062 100.575C85.3625 101.493 84.9104 102.336 84.2219 102.971C83.532 103.608 82.6447 103.998 81.7026 104.078L81.6967 104.078L48.5757 106.132L48.5636 106.132C47.9193 106.142 47.281 106.01 46.695 105.746C46.109 105.482 45.5902 105.093 45.1763 104.607C44.7624 104.121 44.4639 103.55 44.3024 102.936C44.1417 102.325 44.1207 101.686 44.2409 101.066L47.5651 79.901C47.6889 78.933 48.157 78.0393 48.8866 77.3786C49.6181 76.7161 50.5648 76.331 51.558 76.2918L51.5605 76.2917L85.0062 75.1382ZM85.0119 76.1302L51.5983 77.2826C51.5979 77.2827 51.5975 77.2827 51.5971 77.2827C50.8429 77.3127 50.1241 77.6053 49.5686 78.1083C49.0129 78.6116 48.6568 79.2929 48.5639 80.0306L48.563 80.038L45.2337 101.236L45.2319 101.245C45.138 101.723 45.1537 102.216 45.2776 102.687C45.4016 103.158 45.6307 103.597 45.9484 103.97C46.2661 104.343 46.6643 104.642 47.1141 104.844C47.5604 105.045 48.0462 105.146 48.5368 105.141L81.6213 103.09C82.3362 103.027 83.0094 102.731 83.5331 102.248C84.0583 101.763 84.4028 101.119 84.5114 100.419L84.5123 100.413L88.1926 80.073L88.1937 80.0673C88.2906 79.5963 88.2814 79.1101 88.1667 78.6431C88.052 78.176 87.8346 77.7394 87.5299 77.3639C87.2252 76.9885 86.8405 76.6834 86.403 76.4702C85.9697 76.2591 85.4951 76.1431 85.0119 76.1302Z" fill="#000229"/>
<path fill-rule="evenodd" clip-rule="evenodd" d="M34.5029 98.88L38.6546 98.6539L38.6006 97.6794L34.4196 97.9072L34.4059 97.9087C34.0405 97.949 33.6981 98.1051 33.4296 98.354C33.161 98.6028 32.9808 98.931 32.9157 99.2896C32.8505 99.6482 32.904 100.018 33.0682 100.344C33.2323 100.67 33.4983 100.935 33.8265 101.099L33.8462 101.109L46.6204 106.132L46.9835 105.225L34.2528 100.219C34.1218 100.149 34.0157 100.041 33.9491 99.9083C33.8797 99.7705 33.8571 99.6141 33.8847 99.4625C33.9122 99.3108 33.9884 99.1721 34.102 99.0669C34.2126 98.9644 34.3528 98.899 34.5029 98.88Z" fill="#000229"/>
<path fill-rule="evenodd" clip-rule="evenodd" d="M32.8858 100.498L9.39648 100.456L9.39856 99.5581L32.8879 99.5999L32.8858 100.498Z" fill="#000229"/>
<path fill-rule="evenodd" clip-rule="evenodd" d="M40.0046 92.1129C40.2497 91.9692 40.561 92.0582 40.7 92.3116C41.4072 93.6016 41.8892 95.0103 42.1239 96.4732C42.1892 96.8784 42.2914 97.5478 42.2849 98.1984C42.2817 98.5242 42.2513 98.8679 42.1647 99.1832C42.0786 99.4966 41.9255 99.8224 41.6485 100.059L41.6466 100.06L41.6466 100.06C41.4015 100.267 41.1423 100.413 40.8681 100.47C40.5851 100.53 40.317 100.488 40.0786 100.37C39.6333 100.15 39.3368 99.6883 39.1337 99.2731C38.9208 98.8378 38.7571 98.3388 38.6284 97.9151C38.5872 97.7796 38.5506 97.6556 38.5174 97.5432C38.4395 97.2793 38.3806 97.08 38.3271 96.9489L38.325 96.9438L38.325 96.9438C37.8634 95.7799 37.1303 95.2558 36.2664 94.9498C35.8199 94.7917 35.3388 94.6927 34.8277 94.6011C34.7271 94.5831 34.6247 94.5653 34.5212 94.5473C34.1116 94.476 33.684 94.4016 33.2781 94.2992C33.0043 94.2301 32.8366 93.9446 32.9033 93.6616C32.9701 93.3785 33.2461 93.205 33.5198 93.274C33.8862 93.3664 34.2665 93.4327 34.6716 93.5033C34.7799 93.5222 34.8898 93.5413 35.0018 93.5614C35.5202 93.6543 36.069 93.7646 36.5969 93.9515C37.681 94.3355 38.6736 95.044 39.268 96.5409C39.3433 96.7261 39.4266 97.0082 39.5124 97.2987C39.5419 97.399 39.5718 97.5003 39.6018 97.5989C39.7282 98.0149 39.8714 98.4438 40.0441 98.7968C40.2266 99.17 40.3943 99.3568 40.5185 99.4182C40.5647 99.4411 40.6077 99.4483 40.6654 99.4362C40.7318 99.4223 40.8426 99.3766 41.0003 99.2438C41.0612 99.1914 41.1302 99.0878 41.1833 98.8948C41.236 98.7028 41.262 98.4614 41.2647 98.1876C41.2701 97.6389 41.1826 97.0509 41.1174 96.6463L41.1173 96.6459C40.9023 95.3052 40.4606 94.0143 39.8125 92.8321C39.6735 92.5786 39.7595 92.2567 40.0046 92.1129Z" fill="#000229"/>
<path fill-rule="evenodd" clip-rule="evenodd" d="M42.6653 91.1738C42.8727 91.0268 43.1339 91.1231 43.2486 91.389C43.4596 91.878 43.6824 92.7266 43.8537 93.674C44.027 94.6325 44.1571 95.7451 44.1644 96.7806C44.1714 97.7926 44.0626 98.8308 43.6872 99.5582C43.4915 99.9372 43.2189 100.24 42.857 100.392C42.4999 100.542 42.0974 100.528 41.6607 100.373C41.4322 100.293 41.2982 99.9895 41.3613 99.6966C41.4244 99.4038 41.6609 99.232 41.8893 99.3129C42.2112 99.4269 42.4347 99.4115 42.5896 99.3464C42.7396 99.2834 42.8648 99.1574 42.9712 98.9511C43.2 98.5079 43.3126 97.7486 43.306 96.7904C43.2995 95.8556 43.1807 94.8253 43.0174 93.9223C42.8522 93.0082 42.6507 92.2768 42.4974 91.9214C42.3827 91.6556 42.4578 91.3208 42.6653 91.1738Z" fill="#000229"/>
<path fill-rule="evenodd" clip-rule="evenodd" d="M45.6409 98.6326C45.9393 98.6842 46.1089 98.8659 46.0199 99.0386C45.9029 99.2654 45.6393 99.4146 45.324 99.4916C45.032 99.563 44.7213 99.5673 44.4698 99.5502C44.2139 99.5327 43.9677 99.4897 43.774 99.4364C43.6789 99.4103 43.5753 99.376 43.4855 99.3319C43.4407 99.3099 43.3844 99.2782 43.3356 99.2359C43.2886 99.1951 43.2246 99.1235 43.2246 99.0288C43.2246 98.8486 43.477 98.7025 43.7884 98.7025C43.9831 98.7025 44.1547 98.7596 44.256 98.8464C44.2565 98.8466 44.257 98.8467 44.2576 98.8469C44.34 98.8695 44.4674 98.8929 44.6016 98.902C44.7401 98.9114 44.8359 98.9025 44.8856 98.8903C44.912 98.8839 44.9253 98.8795 44.9395 98.852C45.0285 98.6793 45.3426 98.5811 45.6409 98.6326Z" fill="#000229"/>
<path fill-rule="evenodd" clip-rule="evenodd" d="M50.7378 56.3535L50.8574 56.86C51.4352 59.3071 52.176 62.19 52.8927 64.9791C53.1017 65.7922 53.3086 66.5974 53.5088 67.3815C54.3906 70.8347 55.1513 73.9103 55.3647 75.4007L55.4387 75.9173L54.483 76.0773L54.4091 75.5607C54.2064 74.1455 53.4659 71.1424 52.5766 67.6598C52.3775 66.88 52.1714 66.0778 51.9629 65.2665C51.2457 62.4756 50.501 59.5775 49.9204 57.1186L49.8008 56.6121L50.7378 56.3535Z" fill="#000229"/>
<path fill-rule="evenodd" clip-rule="evenodd" d="M35.7061 87.2703C33.5815 88.3817 32.0902 90.4074 32.0902 93.9225H31.0078C31.0078 90.1009 32.6629 87.7199 35.1696 86.4087L35.7061 87.2703Z" fill="#000229"/>
<path fill-rule="evenodd" clip-rule="evenodd" d="M20.1554 103.315C20.4304 103.307 20.6599 103.533 20.6679 103.821C20.7656 107.327 19.3177 109.963 17.094 111.744C14.8871 113.512 11.9319 114.43 8.98024 114.585C8.70546 114.599 8.47149 114.378 8.45767 114.09C8.44385 113.802 8.6554 113.557 8.93019 113.543C11.7365 113.395 14.4814 112.523 16.4886 110.915C18.4791 109.321 19.7596 106.995 19.672 103.852C19.6639 103.564 19.8804 103.324 20.1554 103.315Z" fill="#000229"/>
<path fill-rule="evenodd" clip-rule="evenodd" d="M32.8992 2.12277C32.2366 2.34631 31.5455 2.8036 30.8434 3.585L30.843 3.58541C29.9957 4.52631 29.4343 5.9326 29.0415 7.48606C28.6764 8.9297 28.4704 10.4407 28.2951 11.7269C28.2827 11.8173 28.2706 11.9066 28.2585 11.9947C28.2207 12.271 27.9653 12.4644 27.6881 12.4267C27.4109 12.3889 27.2169 12.1344 27.2547 11.858C27.2671 11.7677 27.2796 11.6756 27.2924 11.582C27.4665 10.3042 27.6795 8.74019 28.0591 7.23919C28.4644 5.63675 29.0751 4.03686 30.0889 2.91095C30.8799 2.0308 31.7114 1.45732 32.5744 1.16614C33.4413 0.873689 34.3085 0.876841 35.1482 1.10145C36.8044 1.54447 38.3469 2.84559 39.6771 4.42173C42.3449 7.5828 44.3865 12.1266 44.9635 14.3729L44.9638 14.374C45.2566 15.5249 45.0613 16.9667 44.6344 18.4342C44.2031 19.9172 43.5144 21.4955 42.7464 22.9545C41.9779 24.4145 41.1222 25.7696 40.3485 26.8068C39.962 27.3249 39.5905 27.7709 39.2556 28.1132C38.936 28.4398 38.6013 28.7233 38.287 28.8478C36.8405 29.4219 35.163 29.0094 33.7622 28.2244C32.3526 27.4344 31.1011 26.2025 30.4819 24.936C30.3594 24.6853 30.4639 24.383 30.7154 24.2609C30.9669 24.1387 31.2701 24.2429 31.3926 24.4936C31.9044 25.5405 32.9912 26.6337 34.2587 27.344C35.535 28.0592 36.8732 28.3219 37.9123 27.9095L37.9127 27.9094C38.0136 27.8694 38.2218 27.7233 38.5303 27.408C38.8237 27.1082 39.1657 26.6998 39.5355 26.2041C40.2744 25.2137 41.1026 23.9039 41.8493 22.4853C42.5966 21.0657 43.2545 19.5519 43.6614 18.153C44.0728 16.7387 44.2073 15.509 43.9818 14.6224C43.4394 12.5115 41.4641 8.10787 38.9019 5.0719C37.6169 3.54928 36.2408 2.43936 34.8857 2.07686C34.2197 1.89871 33.5581 1.90049 32.8992 2.12277Z" fill="#000229"/>
<path fill-rule="evenodd" clip-rule="evenodd" d="M27.2502 17.0011C26.8663 23.814 26.8324 30.6682 27.1491 37.4906L26.5269 37.569C26.2076 30.6889 26.2418 23.7766 26.6289 16.906L27.2502 17.0011Z" fill="#000229"/>
<path fill-rule="evenodd" clip-rule="evenodd" d="M37.1835 31.5486C37.0211 30.4508 36.8645 29.3919 36.6465 28.4149L37.5983 28.1768C37.8253 29.1939 37.9915 30.3174 38.1568 31.4342C38.2268 31.9071 38.2966 32.3789 38.3707 32.8408C38.6244 34.421 38.9318 35.9127 39.4654 37.1342L38.5778 37.569C37.9856 36.2135 37.6618 34.6043 37.4065 33.0144C37.3273 32.5207 37.2548 32.0309 37.1835 31.5486Z" fill="#000229"/>
<path fill-rule="evenodd" clip-rule="evenodd" d="M26.4844 10.34C27.3565 10.4258 28.2162 11.164 29.0452 12.5583C29.1976 12.8147 29.1393 13.1637 28.9151 13.338C28.6908 13.5122 28.3854 13.4456 28.233 13.1893C27.4634 11.8948 26.8301 11.5007 26.4002 11.4584C25.9923 11.4182 25.5832 11.6822 25.2169 12.2648C24.8541 12.8419 24.5991 13.6412 24.5093 14.4059C24.4163 15.1973 24.5159 15.7993 24.7022 16.0841C24.9825 16.4989 25.4367 16.7017 25.984 16.7213C26.5337 16.741 27.1076 16.5694 27.5112 16.3304C27.7519 16.1878 28.0482 16.2953 28.173 16.5705C28.2977 16.8458 28.2037 17.1845 27.9629 17.3271C27.4187 17.6493 26.6795 17.8693 25.9532 17.8433C25.2254 17.8172 24.4415 17.5378 23.9223 16.7663L23.9194 16.7619L23.9194 16.7618C23.4957 16.1191 23.4319 15.1428 23.536 14.2565C23.6435 13.3415 23.9473 12.3607 24.4195 11.6097C24.8882 10.8642 25.5903 10.252 26.4844 10.34Z" fill="#000229"/>
<path fill-rule="evenodd" clip-rule="evenodd" d="M49.6179 0.94722C49.2968 0.250892 48.5921 0.0362541 47.9081 0.00449761C47.1946 -0.028631 46.3032 0.123475 45.3217 0.387459C43.3502 0.917717 40.8757 1.93896 38.4381 3.07049C34.0317 5.11589 29.6689 7.55858 28.465 8.23267L28.1895 8.38639L28.6371 9.39227C28.6916 9.36228 28.7873 9.3087 28.9202 9.23433L38.8271 4.10601L45.5592 1.47818L47.866 1.12572L48.7195 1.45926C48.8139 1.66341 48.8109 1.83318 48.739 2.01455C48.6559 2.22413 48.469 2.47188 48.1495 2.74415C47.5114 3.28789 46.5069 3.7945 45.398 4.23038C44.8373 4.45079 44.2615 4.64872 43.7113 4.82131C43.1843 4.98658 42.6809 5.12862 42.2367 5.24489C41.7833 5.36356 41.3943 5.45468 41.1083 5.5158C40.9651 5.54642 40.8497 5.56907 40.7661 5.58382C40.7151 5.59281 40.6852 5.59711 40.6709 5.59917C40.6638 5.6002 40.6605 5.60066 40.6605 5.60087C40.6606 5.60104 40.6628 5.60104 40.6668 5.60103L40.6694 5.60103V6.72322C40.7422 6.72322 40.8449 6.70616 40.9244 6.69214C41.0221 6.6749 41.1488 6.6499 41.299 6.61782C41.5997 6.55354 42.0023 6.45913 42.4681 6.33721C43.3984 6.09372 44.5915 5.7377 45.7346 5.28838C46.8665 4.84346 47.9949 4.28986 48.7638 3.63475C49.1477 3.30758 49.4828 2.92125 49.6629 2.46717C49.8541 1.9849 49.8552 1.46073 49.6179 0.94722Z" fill="#000229"/>
<path fill-rule="evenodd" clip-rule="evenodd" d="M27.1184 13.3244C27.3057 13.5449 27.2924 13.888 27.0887 14.0908C26.5026 14.6743 25.7407 15.0075 24.9446 15.0283C24.6681 15.0356 24.4385 14.7987 24.4318 14.4992C24.4251 14.1998 24.6439 13.9512 24.9204 13.9439C25.4737 13.9295 26.0033 13.6979 26.4107 13.2923C26.6143 13.0896 26.9312 13.1039 27.1184 13.3244Z" fill="#000229"/>
<path d="M34.298 17.8457C34.5574 17.8457 34.7678 17.6353 34.7678 17.3758C34.7678 17.1164 34.5574 16.906 34.298 16.906C34.0385 16.906 33.8281 17.1164 33.8281 17.3758C33.8281 17.6353 34.0385 17.8457 34.298 17.8457Z" fill="#000229"/>
<path d="M40.8741 17.8457C41.1336 17.8457 41.344 17.6353 41.344 17.3758C41.344 17.1164 41.1336 16.906 40.8741 16.906C40.6146 16.906 40.4043 17.1164 40.4043 17.3758C40.4043 17.6353 40.6146 17.8457 40.8741 17.8457Z" fill="#000229"/>
<path fill-rule="evenodd" clip-rule="evenodd" d="M38.6802 15.0795C38.9638 15.2029 39.081 15.507 38.9421 15.7588C38.6999 16.1978 38.6965 16.8447 38.834 17.6284C38.9006 18.0079 38.9949 18.3939 39.0911 18.7729C39.1051 18.8278 39.1191 18.8827 39.1331 18.9376C39.214 19.2547 39.2943 19.569 39.3507 19.8509L39.3513 19.8541L39.3519 19.8573C39.3923 20.0754 39.4426 20.3657 39.4595 20.666C39.4761 20.9604 39.4634 21.3039 39.3506 21.6173C39.2336 21.9427 38.9925 22.2721 38.5404 22.438C38.1119 22.5952 37.6035 22.5636 37.0464 22.4076C36.7453 22.3232 36.5781 22.0381 36.6731 21.7706C36.7681 21.5032 37.0893 21.3548 37.3905 21.4392C37.8241 21.5606 38.0272 21.5276 38.1036 21.4995C38.1564 21.4802 38.2137 21.4406 38.2612 21.3084C38.313 21.1643 38.3311 20.9617 38.3173 20.7166C38.3039 20.4787 38.2632 20.2375 38.224 20.0253C38.1728 19.7699 38.0999 19.484 38.0189 19.1666C38.0046 19.1107 37.9901 19.054 37.9755 18.9962C37.8789 18.6155 37.777 18.2007 37.704 17.7847C37.5623 16.9774 37.5057 16.0538 37.9151 15.312C38.0541 15.0602 38.3966 14.9561 38.6802 15.0795Z" fill="#000229"/>
<path fill-rule="evenodd" clip-rule="evenodd" d="M81.8348 157.703C79.678 145.681 76.8386 133.794 73.3303 122.099L72.3535 122.396C75.8915 134.19 78.7471 146.18 80.906 158.306L80.9812 158.729H92.0863V157.703H81.8348Z" fill="#000229"/>
<path fill-rule="evenodd" clip-rule="evenodd" d="M91.6657 158.161C91.7269 157.905 91.9969 157.744 92.2688 157.802C92.4359 157.837 92.6721 157.923 92.9288 158.024C93.1984 158.13 93.5345 158.269 93.9196 158.429C93.9488 158.441 93.9782 158.454 94.008 158.466C94.768 158.782 95.7237 159.18 96.7986 159.588C99.0398 160.439 101.761 161.32 104.245 161.594L104.246 161.595C105.538 161.739 106.854 162.156 107.78 162.977C108.733 163.823 109.216 165.05 108.907 166.67C108.864 166.895 108.656 167.06 108.413 167.061L81.3175 167.182C81.0389 167.184 80.8119 166.972 80.8106 166.709C80.8092 166.447 81.0341 166.233 81.3127 166.232L107.971 166.112C108.085 164.993 107.703 164.215 107.088 163.669C106.377 163.038 105.299 162.67 104.127 162.538C101.506 162.249 98.683 161.329 96.4211 160.47C95.3306 160.056 94.3617 159.652 93.6026 159.336C93.5719 159.324 93.5416 159.311 93.5116 159.298C93.1239 159.137 92.7985 159.002 92.5412 158.901C92.271 158.795 92.1148 158.743 92.0472 158.729C91.7754 158.671 91.6045 158.417 91.6657 158.161Z" fill="#000229"/>
<path fill-rule="evenodd" clip-rule="evenodd" d="M109 169.415C109 169.738 108.774 170 108.495 170H81.3152C81.0364 170 80.8103 169.738 80.8103 169.415V166.828C80.8103 166.505 81.0364 166.243 81.3152 166.243H108.495C108.774 166.243 109 166.505 109 166.828V169.415ZM107.99 168.829V167.414H81.8201V168.829H107.99Z" fill="#000229"/>
<path fill-rule="evenodd" clip-rule="evenodd" d="M80.8105 167.182V157.79H81.7502V167.182H80.8105Z" fill="#000229"/>
<path d="M50.7849 137.123C51.2828 138.681 52.587 144.8 55.2427 148.747C56.5231 150.667 57.0566 153.105 55.0293 154.783C54.8668 154.919 54.6592 154.986 54.4495 154.97C54.2398 154.954 54.044 154.857 53.903 154.698L36.8425 134.915C36.7046 134.752 36.6348 134.541 36.6481 134.326C36.6614 134.112 36.7567 133.912 36.9136 133.768L42.7585 128.674" fill="#CAD7E4"/>
<path fill-rule="evenodd" clip-rule="evenodd" d="M37.7565 134.354L43.573 129.436L42.9126 128.674L37.0854 133.601L37.0808 133.605C36.8257 133.832 36.6707 134.148 36.6491 134.486C36.6275 134.824 36.741 135.157 36.9652 135.414L53.9652 154.54L53.9677 154.542C54.1958 154.791 54.5123 154.944 54.8514 154.969C55.1902 154.994 55.5255 154.889 55.788 154.676C56.9254 153.762 57.3614 152.614 57.3157 151.439C57.2709 150.29 56.7687 149.147 56.099 148.173L56.0978 148.171C54.8158 146.323 53.8474 143.944 53.1347 141.814C52.7796 140.753 52.4905 139.763 52.2585 138.94C52.1961 138.719 52.1373 138.507 52.0821 138.309C51.9353 137.782 51.8146 137.349 51.7211 137.066L50.7554 137.376C50.841 137.636 50.9517 138.033 51.0948 138.547C51.1514 138.75 51.213 138.971 51.2801 139.209C51.5139 140.038 51.808 141.046 52.1704 142.129C52.8924 144.286 53.8961 146.771 55.2591 148.737C55.8647 149.618 56.2658 150.58 56.3007 151.478C56.3347 152.35 56.0271 153.191 55.146 153.898L55.1437 153.9C55.0827 153.95 55.0048 153.974 54.9261 153.968C54.8483 153.963 54.7756 153.928 54.7228 153.871L37.7339 134.758C37.7336 134.758 37.7332 134.758 37.7329 134.757C37.6831 134.7 37.6579 134.625 37.6627 134.549C37.6675 134.475 37.7011 134.405 37.7565 134.354Z" fill="#000229"/>
<path fill-rule="evenodd" clip-rule="evenodd" d="M32.4713 22.5444C32.7971 22.5184 33.0934 22.6697 33.1333 22.8823C33.2074 23.2783 33.6676 23.5091 34.3275 23.6037C34.6512 23.6502 34.9818 23.6547 35.2474 23.631C35.3798 23.6191 35.4836 23.6013 35.5555 23.5832C35.6004 23.5719 35.6216 23.5634 35.6274 23.561C35.8511 23.4107 36.219 23.4035 36.4563 23.5465C36.6975 23.6918 36.7125 23.9372 36.4899 24.0946C36.342 24.1992 36.1512 24.2647 35.9831 24.3071C35.807 24.3514 35.6103 24.3815 35.4087 24.3996C35.0063 24.4356 34.5346 24.4277 34.0724 24.3614C33.1604 24.2306 32.1144 23.8344 31.9537 22.9765C31.9138 22.7639 32.1456 22.5704 32.4713 22.5444Z" fill="#000229"/>
<path fill-rule="evenodd" clip-rule="evenodd" d="M17.9674 57.3162C18.2343 57.3997 18.382 57.6808 18.2974 57.9442C17.0417 61.8541 15.633 66.269 14.6177 69.858C14.1097 71.6537 13.7033 73.2321 13.4635 74.4326C13.3433 75.0341 13.2676 75.528 13.2401 75.9008C13.2263 76.0874 13.2254 76.2326 13.2341 76.3398C13.2407 76.4221 13.2516 76.4627 13.2554 76.4755C13.2634 76.4846 13.2951 76.5215 13.3761 76.5864C13.4785 76.6685 13.626 76.7691 13.8226 76.8875C14.2148 77.1239 14.7638 77.4084 15.4495 77.7332C16.8183 78.3818 18.691 79.1717 20.8505 80.0327C25.1673 81.7537 30.5997 83.7461 35.3706 85.4377C35.634 85.5311 35.7709 85.8176 35.6762 86.0775C35.5816 86.3375 35.2913 86.4726 35.0279 86.3792C30.2518 84.6857 24.8054 82.6883 20.4709 80.9603C18.3048 80.0967 16.4088 79.2974 15.0108 78.6351C14.313 78.3045 13.729 78.0033 13.2944 77.7413C13.0775 77.6107 12.8881 77.484 12.7371 77.3629C12.5978 77.2514 12.4441 77.1082 12.3544 76.936C12.2695 76.7731 12.2371 76.5858 12.2236 76.4191C12.2095 76.2435 12.2132 76.0437 12.2291 75.8281C12.261 75.3966 12.3455 74.8574 12.469 74.2391C12.7165 73.0001 13.1313 71.392 13.6414 69.589C14.6622 65.9804 16.0764 61.5489 17.3312 57.6419C17.4157 57.3786 17.7006 57.2328 17.9674 57.3162Z" fill="#000229"/>
<path fill-rule="evenodd" clip-rule="evenodd" d="M87.9289 93.6611C87.3132 93.4274 86.7021 93.2071 86.082 93.0108L86.3845 92.0442C87.0292 92.2484 87.6596 92.4758 88.2852 92.7133L88.2869 92.7139C95.0047 95.2913 97.4213 103.949 91.689 109.141C90.6347 110.096 87.6744 112.244 83.8359 114.923C79.9824 117.613 75.208 120.861 70.4952 124.027C65.7821 127.193 61.1288 130.278 57.517 132.642C53.9241 134.994 51.3239 136.658 50.7488 136.953L50.4106 137.127L42.2852 128.369L42.6105 128.023L42.9764 128.372C42.6105 128.023 42.6104 128.024 42.6105 128.023L42.7911 127.832C42.9094 127.706 43.0837 127.521 43.308 127.283C43.7567 126.807 44.4051 126.119 45.2043 125.272C46.8029 123.579 49.005 121.251 51.419 118.709C56.2458 113.626 61.9247 107.686 65.3204 104.27L66.0327 104.987C62.6465 108.393 56.9753 114.325 52.1474 119.409C49.7342 121.95 47.5328 124.278 45.9348 125.97C45.1357 126.817 44.4875 127.504 44.0391 127.98C43.8938 128.134 43.7694 128.266 43.6677 128.374L50.6175 135.865C51.5272 135.324 53.8425 133.839 56.9676 131.793C60.5756 129.431 65.2256 126.348 69.9357 123.184C74.6461 120.02 79.4151 116.775 83.2617 114.091C87.1231 111.396 90.0195 109.289 91.015 108.388C96.1053 103.777 94.048 96.0095 87.9289 93.6611Z" fill="#000229"/>
<path fill-rule="evenodd" clip-rule="evenodd" d="M39.0152 15.3479L38.7497 14.8271C38.5224 15.0127 38.457 15.3962 38.6037 15.6838C38.7502 15.9713 39.0532 16.0541 39.2804 15.8689M39.2807 15.8686L39.281 15.8684L39.2909 15.8607C39.3006 15.8532 39.3162 15.8412 39.3373 15.8259C39.3796 15.7951 39.4429 15.7511 39.5226 15.7016C39.6838 15.6015 39.9029 15.4849 40.1437 15.4085C40.6388 15.2515 41.1005 15.2936 41.4284 15.7599C41.6082 16.0156 41.9178 16.0384 42.1199 15.8108C42.3219 15.5833 42.3399 15.1915 42.1601 14.9358C41.4744 13.9608 40.5465 14.003 39.9055 14.2062C39.5783 14.31 39.2926 14.4637 39.0911 14.5888C38.9895 14.6519 38.907 14.7092 38.8488 14.7516C38.8196 14.7728 38.7963 14.7905 38.7796 14.8034C38.7713 14.8099 38.7646 14.8152 38.7596 14.8192L38.7533 14.8242L38.7512 14.8259L38.7504 14.8266L38.75 14.8268C38.7498 14.827 38.7497 14.8271 39.0152 15.3479" fill="#000229"/>
<path fill-rule="evenodd" clip-rule="evenodd" d="M34.768 15.7257C34.3628 15.7257 33.9636 15.795 33.604 15.928C33.3639 16.0167 33.0683 15.9499 32.9438 15.7788C32.8192 15.6077 32.9129 15.397 33.153 15.3083C33.652 15.1239 34.2059 15.0276 34.768 15.0276C35.3301 15.0276 35.8839 15.1239 36.3829 15.3083C36.623 15.397 36.7167 15.6077 36.5922 15.7788C36.4677 15.9499 36.1721 16.0167 35.932 15.928C35.5723 15.795 35.1731 15.7257 34.768 15.7257Z" fill="#000229"/>
<path fill-rule="evenodd" clip-rule="evenodd" d="M53.1315 156.844C52.9197 157.028 52.5987 157.006 52.4144 156.795L34.4521 136.162C34.2678 135.951 34.2901 135.63 34.5018 135.446L36.196 133.972C36.4077 133.788 36.7287 133.81 36.913 134.022L54.8753 154.654C55.0596 154.866 55.0373 155.186 54.8256 155.371L53.1315 156.844ZM52.8476 155.744L53.7749 154.938L36.4798 135.072L35.5525 135.879L52.8476 155.744Z" fill="#000229"/>
<path d="M77.9919 0.939209C81.0605 0.939209 83.8905 1.69499 86.4818 3.20656C89.0732 4.71813 91.1251 6.76902 92.6373 9.35923C94.1496 11.9494 94.9057 14.7781 94.9057 17.8453C94.9057 20.9124 94.1496 23.7411 92.6373 26.3313C91.1251 28.9216 89.0732 30.9724 86.4818 32.484C83.8905 33.9956 81.0605 34.7514 77.9919 34.7514C74.9234 34.7514 72.0934 33.9956 69.502 32.484C66.9106 30.9724 64.8588 28.9216 63.3465 26.3313C61.8343 23.7411 61.0781 20.9124 61.0781 17.8453C61.0781 14.7781 61.8343 11.9494 63.3465 9.35923C64.8588 6.76902 66.9106 4.71813 69.502 3.20656C72.0934 1.69499 74.9234 0.939209 77.9919 0.939209ZM84.0263 12.408C83.9969 12.4227 83.9272 12.4924 83.817 12.6172C83.7069 12.7419 83.6078 12.8116 83.5197 12.8263C83.5491 12.8263 83.5821 12.7896 83.6188 12.7162C83.6555 12.6429 83.6922 12.5621 83.729 12.4741C83.7657 12.386 83.7914 12.3347 83.806 12.32C83.8941 12.2173 84.0556 12.1072 84.2905 11.9898C84.4961 11.9017 84.8778 11.8137 85.4357 11.7256C85.9349 11.6082 86.3093 11.6889 86.5589 11.9678C86.5296 11.9384 86.5993 11.843 86.7682 11.6816C86.937 11.5202 87.0434 11.4321 87.0875 11.4175C87.1315 11.3881 87.2416 11.3551 87.4178 11.3184C87.594 11.2817 87.7041 11.2267 87.7482 11.1533L87.7922 10.669C87.616 10.6837 87.4876 10.6323 87.4068 10.5149C87.3261 10.3975 87.2784 10.2434 87.2637 10.0526C87.2637 10.082 87.2196 10.1407 87.1315 10.2287C87.1315 10.126 87.0985 10.0673 87.0324 10.0526C86.9664 10.038 86.8819 10.0453 86.7792 10.0747C86.6764 10.104 86.6103 10.1113 86.581 10.0967C86.4341 10.0526 86.324 9.99761 86.2506 9.93157C86.1772 9.86553 86.1185 9.74446 86.0744 9.56835C86.0304 9.39225 86.001 9.28218 85.9863 9.23816C85.957 9.16478 85.8872 9.08406 85.7771 8.99601C85.667 8.90796 85.5973 8.83458 85.5679 8.77588C85.5532 8.74653 85.5349 8.70617 85.5128 8.65481C85.4908 8.60344 85.4688 8.55575 85.4468 8.51172C85.4247 8.4677 85.3954 8.42734 85.3587 8.39065C85.322 8.35396 85.2816 8.33562 85.2375 8.33562C85.1935 8.33562 85.1421 8.37231 85.0834 8.44568C85.0247 8.51906 84.9696 8.59244 84.9182 8.66581C84.8668 8.73919 84.8338 8.77588 84.8191 8.77588C84.7751 8.74653 84.731 8.73552 84.687 8.74286C84.6429 8.7502 84.6099 8.75754 84.5879 8.76487C84.5658 8.77221 84.5328 8.79422 84.4888 8.83091C84.4447 8.8676 84.408 8.89328 84.3786 8.90796C84.3346 8.93731 84.2722 8.95932 84.1914 8.974C84.1107 8.98867 84.0483 9.00335 84.0042 9.01802C84.2245 8.94465 84.2171 8.86393 83.9822 8.77588C83.8354 8.71718 83.7179 8.69516 83.6298 8.70984C83.762 8.65114 83.817 8.56309 83.795 8.44568C83.773 8.32828 83.7106 8.22555 83.6078 8.1375H83.7179C83.7033 8.0788 83.6409 8.01643 83.5307 7.95039C83.4206 7.88435 83.2922 7.82198 83.1453 7.76328C82.9985 7.70457 82.9031 7.66055 82.859 7.6312C82.7416 7.55782 82.492 7.48811 82.1103 7.42207C81.7285 7.35603 81.4863 7.35236 81.3835 7.41107C81.3101 7.49912 81.277 7.57616 81.2844 7.6422C81.2917 7.70824 81.3211 7.81097 81.3725 7.95039C81.4239 8.0898 81.4496 8.18153 81.4496 8.22555C81.4642 8.3136 81.4239 8.40899 81.3284 8.51172C81.233 8.61445 81.1853 8.7025 81.1853 8.77588C81.1853 8.87861 81.2881 8.99234 81.4936 9.11708C81.6992 9.24182 81.7726 9.39958 81.7138 9.59037C81.6698 9.70777 81.5523 9.82517 81.3615 9.94258C81.1706 10.06 81.0531 10.148 81.0091 10.2067C80.9357 10.3241 80.9247 10.4599 80.9761 10.614C81.0274 10.7681 81.1045 10.8891 81.2073 10.9772C81.2367 11.0065 81.2477 11.0359 81.2403 11.0652C81.233 11.0946 81.2073 11.1276 81.1633 11.1643C81.1192 11.201 81.0788 11.2303 81.0421 11.2524C81.0054 11.2744 80.9577 11.3001 80.899 11.3294L80.8329 11.3734C80.6714 11.4468 80.5209 11.4028 80.3814 11.2413C80.242 11.0799 80.1428 10.8891 80.0841 10.669C79.9813 10.3021 79.8639 10.082 79.7317 10.0086C79.3941 9.89121 79.1812 9.89855 79.0931 10.0306C79.0197 9.83985 78.7187 9.64907 78.1901 9.45829C77.8231 9.32621 77.3973 9.29686 76.9128 9.37023C77.0009 9.35556 77.0009 9.24549 76.9128 9.04004C76.81 8.81991 76.6705 8.73185 76.4943 8.77588C76.5384 8.68783 76.5678 8.55942 76.5824 8.39065C76.5971 8.22188 76.6045 8.12282 76.6045 8.09347C76.6485 7.90269 76.7366 7.73393 76.8687 7.58717C76.8834 7.5725 76.9348 7.51013 77.0229 7.40006C77.111 7.28999 77.1807 7.19094 77.2321 7.10288C77.2835 7.01483 77.2872 6.9708 77.2431 6.9708C77.757 7.02951 78.1241 6.94879 78.3443 6.72866C78.4177 6.65528 78.5021 6.53054 78.5976 6.35444C78.693 6.17833 78.7701 6.05359 78.8288 5.98021C78.9609 5.89216 79.0637 5.8518 79.1371 5.85914C79.2105 5.86648 79.317 5.90684 79.4565 5.98021C79.5959 6.05359 79.7024 6.09028 79.7758 6.09028C79.9813 6.10495 80.0951 6.02424 80.1172 5.84813C80.1392 5.67203 80.0841 5.52528 79.952 5.40787C80.1282 5.42255 80.1502 5.29781 80.018 5.03365C79.9593 4.93092 79.9006 4.86488 79.8419 4.83553C79.6657 4.77683 79.4675 4.81352 79.2472 4.9456C79.1298 5.0043 79.1445 5.063 79.2913 5.1217C79.2766 5.10703 79.2069 5.18407 79.0821 5.35284C78.9573 5.52161 78.8361 5.65002 78.7187 5.73807C78.6012 5.82612 78.4838 5.78943 78.3663 5.628C78.3516 5.61333 78.3113 5.51427 78.2452 5.33083C78.1791 5.14738 78.1094 5.04832 78.036 5.03365C77.9185 5.03365 77.8011 5.14371 77.6836 5.36385C77.7276 5.24644 77.6469 5.13638 77.4413 5.03365C77.2358 4.93092 77.0596 4.87222 76.9128 4.85754C77.1917 4.68144 77.133 4.48332 76.7366 4.26319C76.6338 4.20449 76.4833 4.1678 76.2851 4.15312C76.0869 4.13845 75.9438 4.1678 75.8557 4.24118C75.7823 4.3439 75.7419 4.42829 75.7345 4.49433C75.7272 4.56037 75.7639 4.61907 75.8447 4.67043C75.9254 4.7218 76.0025 4.76215 76.0759 4.7915C76.1493 4.82086 76.2337 4.85021 76.3292 4.87956C76.4246 4.90891 76.487 4.93092 76.5164 4.9456C76.7219 5.09235 76.7806 5.19508 76.6926 5.25378C76.6632 5.26846 76.6008 5.29414 76.5054 5.33083C76.4099 5.36752 76.3255 5.40053 76.2521 5.42989C76.1787 5.45924 76.1346 5.48859 76.1199 5.51794C76.0759 5.57664 76.0759 5.67937 76.1199 5.82612C76.164 5.97288 76.1493 6.0756 76.0759 6.13431C76.0025 6.06093 75.9364 5.93252 75.8777 5.74908C75.819 5.56563 75.7676 5.44456 75.7235 5.38586C75.8263 5.51794 75.6428 5.56196 75.173 5.51794L74.9527 5.49592C74.894 5.49592 74.7765 5.5106 74.6004 5.53995C74.4242 5.5693 74.2737 5.57664 74.1489 5.56196C74.0241 5.54729 73.925 5.48859 73.8516 5.38586C73.7928 5.26846 73.7928 5.1217 73.8516 4.9456C73.8662 4.8869 73.8956 4.87222 73.9397 4.90157C73.8809 4.85754 73.8002 4.78784 73.6974 4.69245C73.5946 4.59706 73.5212 4.53469 73.4772 4.50533C72.8018 4.72547 72.1117 5.02631 71.407 5.40787C71.4951 5.42255 71.5832 5.41521 71.6713 5.38586C71.7447 5.35651 71.8401 5.30881 71.9576 5.24277C72.075 5.17673 72.1484 5.13638 72.1778 5.1217C72.677 4.91625 72.9853 4.86488 73.1028 4.96761L73.2129 4.85754C73.4184 5.09235 73.5653 5.27579 73.6534 5.40787C73.5506 5.34917 73.3303 5.34183 72.9927 5.38586C72.699 5.47391 72.5375 5.56196 72.5081 5.65002C72.6109 5.82612 72.6476 5.9582 72.6183 6.04625C72.5595 6.00223 72.4751 5.92885 72.365 5.82612C72.2549 5.72339 72.1484 5.64268 72.0457 5.58398C71.9429 5.52528 71.8328 5.48859 71.7153 5.47391C71.4804 5.47391 71.3189 5.48125 71.2308 5.49592C69.0872 6.66996 67.3621 8.29893 66.0554 10.3828C66.1581 10.4856 66.2462 10.5443 66.3196 10.5589C66.3784 10.5736 66.4151 10.6397 66.4298 10.7571C66.4444 10.8745 66.4628 10.9552 66.4848 10.9992C66.5068 11.0432 66.5913 11.0212 66.7381 10.9332C66.8702 11.0506 66.8922 11.19 66.8041 11.3514C66.8188 11.3367 67.1418 11.5349 67.7732 11.9458C68.0521 12.1953 68.2063 12.3493 68.2357 12.408C68.2797 12.5695 68.2063 12.7016 68.0154 12.8043C68.0007 12.7749 67.9347 12.7089 67.8172 12.6062C67.6998 12.5034 67.6337 12.4741 67.619 12.5181C67.575 12.5915 67.5786 12.7272 67.63 12.9254C67.6814 13.1235 67.7585 13.2152 67.8613 13.2005C67.7585 13.2005 67.6887 13.3179 67.652 13.5527C67.6153 13.7875 67.597 14.048 67.597 14.3342C67.597 14.6204 67.5896 14.7928 67.575 14.8515L67.619 14.8735C67.575 15.0496 67.6153 15.3028 67.7401 15.633C67.8649 15.9632 68.0228 16.1062 68.2136 16.0622C68.0228 16.1062 68.1696 16.4218 68.6541 17.0088C68.7422 17.1262 68.8009 17.1922 68.8303 17.2069C68.8743 17.2363 68.9624 17.2913 69.0946 17.372C69.2267 17.4527 69.3368 17.5261 69.4249 17.5921C69.513 17.6582 69.5864 17.7352 69.6451 17.8233C69.7039 17.8966 69.7773 18.0617 69.8654 18.3186C69.9535 18.5754 70.0562 18.7478 70.1737 18.8359C70.1443 18.9239 70.2141 19.0707 70.3829 19.2761C70.5518 19.4816 70.6288 19.6504 70.6142 19.7824C70.5995 19.7824 70.5811 19.7898 70.5591 19.8045C70.5371 19.8191 70.5187 19.8265 70.504 19.8265C70.5481 19.9292 70.6619 20.0319 70.8454 20.1346C71.0289 20.2374 71.1427 20.3328 71.1868 20.4208C71.2014 20.4648 71.2161 20.5382 71.2308 20.641C71.2455 20.7437 71.2675 20.8244 71.2969 20.8831C71.3262 20.9418 71.385 20.9565 71.4731 20.9271C71.5024 20.6336 71.3262 20.1787 70.9445 19.5623C70.7243 19.1954 70.5995 18.9826 70.5701 18.9239C70.5261 18.8506 70.4857 18.7368 70.449 18.5827C70.4123 18.4286 70.3792 18.3222 70.3499 18.2635C70.3792 18.2635 70.4233 18.2745 70.482 18.2966C70.5407 18.3186 70.6031 18.3442 70.6692 18.3736C70.7353 18.403 70.7903 18.4323 70.8344 18.4617C70.8784 18.491 70.8931 18.513 70.8784 18.5277C70.8344 18.6304 70.8491 18.7588 70.9225 18.9129C70.9959 19.067 71.084 19.2028 71.1868 19.3202C71.2895 19.4376 71.4143 19.577 71.5612 19.7384C71.708 19.8998 71.7961 19.9952 71.8254 20.0246C71.9135 20.1126 72.0163 20.2557 72.1338 20.4538C72.2512 20.652 72.2512 20.751 72.1338 20.751C72.2659 20.751 72.4127 20.8281 72.5742 20.9822C72.7357 21.1362 72.8605 21.2793 72.9486 21.4114C73.022 21.5288 73.0808 21.7196 73.1248 21.9838C73.1688 22.2479 73.2056 22.424 73.2349 22.5121C73.2643 22.6148 73.3267 22.7139 73.4221 22.8092C73.5175 22.9046 73.6093 22.9743 73.6974 23.0184L74.0498 23.1945L74.3361 23.3486C74.4095 23.3779 74.5453 23.455 74.7435 23.5797C74.9417 23.7044 75.0995 23.7888 75.217 23.8329C75.3638 23.8916 75.4813 23.9209 75.5694 23.9209C75.6575 23.9209 75.7639 23.9026 75.8887 23.8659C76.0135 23.8292 76.1126 23.8035 76.186 23.7888C76.4062 23.7595 76.6191 23.8695 76.8247 24.119C77.0302 24.3685 77.1844 24.5226 77.2872 24.5813C77.8157 24.8601 78.2195 24.9408 78.4985 24.8234C78.4691 24.8381 78.4728 24.8932 78.5095 24.9885C78.5462 25.0839 78.6049 25.1977 78.6856 25.3297C78.7664 25.4618 78.8325 25.5682 78.8839 25.6489C78.9352 25.7297 78.9756 25.792 79.005 25.836C79.0784 25.9241 79.2105 26.0342 79.4014 26.1662C79.5923 26.2983 79.7244 26.4084 79.7978 26.4964C79.8859 26.4377 79.9373 26.3717 79.952 26.2983C79.9079 26.4157 79.9593 26.5625 80.1061 26.7386C80.253 26.9147 80.3851 26.9881 80.5026 26.9587C80.7081 26.9147 80.8109 26.6799 80.8109 26.2543C80.3557 26.4744 79.996 26.3424 79.7317 25.8581C79.7317 25.8434 79.7134 25.803 79.6767 25.737C79.64 25.6709 79.6106 25.6086 79.5886 25.5499C79.5666 25.4912 79.5482 25.4288 79.5335 25.3628C79.5189 25.2967 79.5189 25.2417 79.5335 25.1977C79.5482 25.1536 79.5849 25.1316 79.6437 25.1316C79.7758 25.1316 79.8492 25.1059 79.8639 25.0546C79.8786 25.0032 79.8639 24.9115 79.8198 24.7794C79.7758 24.6473 79.7464 24.5519 79.7317 24.4932C79.7171 24.3758 79.6363 24.2291 79.4895 24.053C79.3427 23.8769 79.2546 23.7668 79.2252 23.7228C79.1518 23.8549 79.0343 23.9136 78.8728 23.8989C78.7113 23.8842 78.5939 23.8182 78.5205 23.7008C78.5205 23.7155 78.5095 23.7558 78.4874 23.8218C78.4654 23.8879 78.4544 23.9356 78.4544 23.9649C78.2635 23.9649 78.1534 23.9576 78.1241 23.9429C78.1387 23.8989 78.1571 23.7705 78.1791 23.5577C78.2011 23.3449 78.2268 23.1798 78.2562 23.0624C78.2709 23.0037 78.3113 22.9156 78.3773 22.7982C78.4434 22.6808 78.4985 22.5744 78.5425 22.479C78.5865 22.3837 78.6159 22.2919 78.6306 22.2039C78.6453 22.1158 78.6122 22.0461 78.5315 21.9948C78.4507 21.9434 78.3223 21.9251 78.1461 21.9397C77.8671 21.9544 77.6763 22.1012 77.5735 22.38C77.5588 22.424 77.5368 22.5011 77.5074 22.6111C77.478 22.7212 77.4413 22.8056 77.3973 22.8643C77.3532 22.923 77.2872 22.9743 77.1991 23.0184C77.0963 23.0624 76.9201 23.0771 76.6705 23.0624C76.4209 23.0477 76.2447 23.011 76.142 22.9523C75.9511 22.8349 75.7859 22.6221 75.6465 22.3139C75.507 22.0058 75.4372 21.7343 75.4372 21.4995C75.4372 21.3527 75.4556 21.1583 75.4923 20.9161C75.529 20.674 75.551 20.4905 75.5584 20.3658C75.5657 20.241 75.5253 20.0613 75.4372 19.8265C75.4813 19.7971 75.5473 19.7274 75.6354 19.6173C75.7235 19.5073 75.7969 19.4302 75.8557 19.3862C75.885 19.3715 75.9181 19.3605 75.9548 19.3532C75.9915 19.3458 76.0245 19.3458 76.0539 19.3532C76.0832 19.3605 76.1126 19.3495 76.142 19.3202C76.1713 19.2908 76.1934 19.2468 76.208 19.1881C76.1934 19.1734 76.164 19.1514 76.1199 19.122C76.0759 19.078 76.0465 19.056 76.0319 19.056C76.1346 19.1 76.3439 19.089 76.6595 19.023C76.9752 18.9569 77.1771 18.968 77.2652 19.056C77.4854 19.2174 77.6469 19.2028 77.7497 19.012C77.7497 18.9973 77.7313 18.9276 77.6946 18.8029C77.6579 18.6781 77.6542 18.5791 77.6836 18.5057C77.757 18.9019 77.9699 18.968 78.3223 18.7038C78.3663 18.7478 78.4801 18.7845 78.6636 18.8139C78.8472 18.8432 78.9756 18.8799 79.049 18.9239C79.0931 18.9533 79.1445 18.9936 79.2032 19.045C79.2619 19.0964 79.3023 19.1294 79.3243 19.1441C79.3463 19.1587 79.383 19.1551 79.4344 19.1331C79.4858 19.111 79.5482 19.0633 79.6216 18.99C79.7685 19.1954 79.8565 19.3715 79.8859 19.5183C80.0474 20.1053 80.1869 20.4282 80.3044 20.4869C80.4071 20.5309 80.4879 20.5456 80.5466 20.5309C80.6053 20.5162 80.6384 20.4465 80.6457 20.3218C80.6531 20.197 80.6531 20.0943 80.6457 20.0136C80.6384 19.9329 80.6274 19.8411 80.6127 19.7384L80.5907 19.5623V19.1661L80.5686 18.99C80.3484 18.9459 80.2126 18.8579 80.1612 18.7258C80.1098 18.5937 80.1208 18.458 80.1942 18.3186C80.2676 18.1792 80.3778 18.0434 80.5246 17.9113C80.5393 17.8966 80.598 17.871 80.7008 17.8343C80.8035 17.7976 80.9173 17.7499 81.0421 17.6912C81.1669 17.6325 81.2587 17.5738 81.3174 17.5151C81.6257 17.2363 81.7359 16.9794 81.6478 16.7446C81.7505 16.7446 81.8313 16.6786 81.89 16.5465C81.8753 16.5465 81.8386 16.5245 81.7799 16.4805C81.7212 16.4364 81.6661 16.3998 81.6147 16.3704C81.5633 16.3411 81.5303 16.3264 81.5156 16.3264C81.6478 16.253 81.6624 16.1356 81.5597 15.9742C81.6331 15.9301 81.6881 15.8494 81.7248 15.732C81.7616 15.6146 81.8166 15.5412 81.89 15.5119C82.0222 15.688 82.1763 15.7027 82.3525 15.5559C82.47 15.4385 82.4773 15.3211 82.3745 15.2037C82.4479 15.101 82.5984 15.0239 82.826 14.9726C83.0536 14.9212 83.1894 14.8515 83.2334 14.7634C83.3362 14.7928 83.3949 14.7781 83.4096 14.7194C83.4243 14.6607 83.4316 14.5727 83.4316 14.4553C83.4316 14.3379 83.4537 14.2498 83.4977 14.1911C83.5564 14.1177 83.6666 14.0517 83.8281 13.993C83.9896 13.9343 84.085 13.8976 84.1144 13.8829L84.4888 13.6408C84.5328 13.5821 84.5328 13.5527 84.4888 13.5527C84.753 13.5821 84.9806 13.5014 85.1715 13.3106C85.3183 13.1492 85.2742 13.0024 85.0393 12.8703C85.0834 12.7823 85.0614 12.7126 84.9733 12.6612C84.8852 12.6098 84.7751 12.5695 84.6429 12.5401C84.687 12.5254 84.7714 12.5218 84.8962 12.5291C85.021 12.5365 85.0981 12.5254 85.1274 12.4961C85.3477 12.3493 85.2963 12.2319 84.9733 12.1439C84.7237 12.0705 84.408 12.1586 84.0263 12.408ZM80.4365 31.7136C83.461 31.1852 86.0377 29.7984 88.1666 27.5531C88.1226 27.509 88.0308 27.476 87.8913 27.454C87.7519 27.432 87.6601 27.4063 87.616 27.377C87.3518 27.2742 87.1756 27.2155 87.0875 27.2009C87.1022 27.0981 87.0838 27.0027 87.0324 26.9147C86.981 26.8266 86.9223 26.7606 86.8562 26.7166C86.7902 26.6725 86.6984 26.6138 86.581 26.5405C86.4635 26.4671 86.3827 26.4157 86.3387 26.3864C86.3093 26.357 86.2579 26.313 86.1845 26.2543C86.1111 26.1956 86.0597 26.1552 86.0304 26.1332C86.001 26.1112 85.946 26.0782 85.8652 26.0342C85.7844 25.9901 85.722 25.9755 85.678 25.9901C85.634 26.0048 85.5605 26.0122 85.4578 26.0122L85.3917 26.0342C85.3477 26.0488 85.3073 26.0672 85.2706 26.0892C85.2339 26.1112 85.1935 26.1332 85.1494 26.1552C85.1054 26.1773 85.076 26.1993 85.0614 26.2213C85.0467 26.2433 85.0467 26.2616 85.0614 26.2763C84.753 26.0268 84.4888 25.8654 84.2685 25.792C84.1951 25.7773 84.1144 25.737 84.0263 25.6709C83.9382 25.6049 83.8611 25.5535 83.795 25.5169C83.729 25.4802 83.6555 25.4692 83.5748 25.4838C83.494 25.4985 83.4096 25.5499 83.3215 25.6379C83.2481 25.7113 83.2041 25.8214 83.1894 25.9681C83.1747 26.1149 83.16 26.2103 83.1453 26.2543C83.0426 26.1809 83.0426 26.0525 83.1453 25.8691C83.2481 25.6856 83.2628 25.5499 83.1894 25.4618C83.1453 25.3738 83.0683 25.3408 82.9581 25.3628C82.848 25.3848 82.7599 25.4178 82.6939 25.4618C82.6278 25.5058 82.5434 25.5682 82.4406 25.6489C82.3378 25.7297 82.2718 25.7773 82.2424 25.792C82.213 25.8067 82.1506 25.8471 82.0552 25.9131C81.9598 25.9791 81.8974 26.0342 81.868 26.0782C81.8239 26.1369 81.7799 26.2249 81.7359 26.3424C81.6918 26.4598 81.6551 26.5405 81.6257 26.5845C81.5964 26.5258 81.512 26.4781 81.3725 26.4414C81.233 26.4047 81.1633 26.3644 81.1633 26.3203C81.1926 26.4671 81.222 26.7239 81.2513 27.0908C81.2807 27.4577 81.3174 27.7365 81.3615 27.9273C81.4642 28.3822 81.3761 28.7344 81.0972 28.9839C80.7008 29.3508 80.4879 29.6443 80.4585 29.8645C80.3998 30.1873 80.4879 30.3781 80.7228 30.4368C80.7228 30.5395 80.6641 30.6899 80.5466 30.8881C80.4291 31.0862 80.3778 31.2439 80.3924 31.3613C80.3924 31.4494 80.4071 31.5668 80.4365 31.7136Z" fill="#000229"/>
</svg>
