<svg width="84" height="170" viewBox="0 0 84 170" fill="none" xmlns="http://www.w3.org/2000/svg">
<path d="M48.5508 52.5268C50.3611 64.6491 52.8085 82.6395 52.9198 88.5078H52.4141L13.9229 88.5788H13.215C13.4273 84.7005 13.7408 84.3452 14.0038 78.5886L23.035 79.0455C18.2109 78.416 11.435 75.1773 6.48962 71.0148C2.87917 67.969 0.229481 64.4562 0.0171014 61.1058C-0.164938 58.324 1.13968 56.1412 2.34316 53.6538C3.85005 50.5166 12.598 39.0847 14.732 37.3182C17.1996 35.2876 25.4318 34.0693 25.4318 34.0693C25.7656 33.2368 25.9375 32.4855 26.7466 31.988C26.7979 31.9588 26.8521 31.9349 26.9084 31.917C30.2674 31.1663 33.7444 31.118 37.1228 31.7748C37.2725 31.8146 37.4156 31.8762 37.5476 31.9576C37.937 32.1707 38.2709 32.473 38.5222 32.8399C38.7734 33.2068 38.935 33.628 38.9938 34.0693C38.9938 34.0693 43.9796 33.8764 46.9833 35.5212C51.2752 38.0878 55.3091 41.0663 59.0282 44.4149C59.1666 40.3484 59.0179 36.2771 58.5832 32.2317L63.6399 31.856H63.7815C65.612 38.1101 69.6472 52.9837 67.2706 55.3492C65.4805 57.1869 50.0779 53.0548 48.5508 52.5268ZM18.6357 52.1106C18.1503 52.6182 17.6244 53.1258 17.1996 53.6538C15.0661 55.9571 13.0735 58.388 11.2328 60.9332C9.32134 64.1516 23.0855 72.5884 26.4027 73.3905C26.4027 73.3905 26.4027 73.624 26.4027 73.9996C26.3319 75.4109 26.069 78.812 25.1588 79.076C25.7656 79.878 29.9525 82.8121 31.5504 83.0761C33.8866 83.4822 36.7587 81.1674 38.4982 79.746C39.501 79.7986 40.4837 79.4498 41.2307 78.776C41.9777 78.1023 42.428 77.1586 42.4829 76.152L43.4234 57.1463C43.4702 56.1386 43.1178 55.1533 42.4431 54.4056C41.7685 53.658 40.8266 53.2088 39.8231 53.1563L18.6357 52.1106Z" fill="#CAD7E4"/>
<path d="M50.8667 162.929C52.9939 163.187 54.9996 164.445 54.5032 167.316V167.294H38.1235C38.5794 164.467 36.5838 163.22 34.4667 162.994C33.3994 162.848 32.3455 162.608 31.3164 162.274V162.134C31.3164 161.94 31.3164 160.93 31.3164 159.263H40.3521C41.1726 159.403 46.4501 162.37 50.8667 162.929Z" fill="#CAD7E4"/>
<path d="M34.7774 162.957C36.8799 163.214 38.8617 164.46 38.409 167.251V167.316H15.2713C15.2713 166.564 15.2713 163.665 15.2109 159.263H24.4358C25.0495 159.403 28.2887 161.185 31.7393 162.248C32.7321 162.573 33.7482 162.81 34.7774 162.957Z" fill="#CAD7E4"/>
<path fill-rule="evenodd" clip-rule="evenodd" d="M54.077 5.72519C54.9017 4.92383 56.0202 4.47363 57.1864 4.47363H73.4443C74.0218 4.47363 74.5936 4.58416 75.1271 4.7989C75.6606 5.01364 76.1454 5.32839 76.5537 5.72519C76.9621 6.12197 77.286 6.59304 77.507 7.11147C77.728 7.62991 77.8417 8.18556 77.8417 8.7467V9.14793C77.8417 9.70907 77.728 10.2647 77.507 10.7832C77.286 11.3016 76.9621 11.7727 76.5537 12.1694C76.1454 12.5662 75.6606 12.881 75.1271 13.0957C74.5936 13.3105 74.0218 13.421 73.4443 13.421H57.1864C56.0202 13.421 54.9017 12.9708 54.077 12.1694C53.2524 11.3681 52.7891 10.2812 52.7891 9.14793V8.7467C52.7891 7.61341 53.2524 6.52654 54.077 5.72519ZM57.1864 5.33627C56.2556 5.33627 55.3629 5.69558 54.7047 6.33516C54.0466 6.97474 53.6768 7.8422 53.6768 8.7467V9.14793C53.6768 10.0524 54.0466 10.9199 54.7047 11.5595C55.3629 12.1991 56.2556 12.5584 57.1864 12.5584H73.4443C73.9052 12.5584 74.3616 12.4702 74.7874 12.2988C75.2132 12.1274 75.6001 11.8762 75.926 11.5595C76.2519 11.2428 76.5104 10.8668 76.6868 10.453C76.8632 10.0393 76.954 9.5958 76.954 9.14793V8.7467C76.954 8.29884 76.8632 7.85536 76.6868 7.44159C76.5104 7.02782 76.2519 6.65185 75.926 6.33516C75.6001 6.01848 75.2132 5.76727 74.7874 5.59588C74.3616 5.42449 73.9052 5.33627 73.4443 5.33627H57.1864ZM73.6956 6.87071C73.2749 6.70141 72.8121 6.65712 72.3656 6.74343C71.919 6.82973 71.5089 7.04277 71.1869 7.3556C70.865 7.66843 70.6458 8.06699 70.557 8.5009C70.4682 8.9348 70.5137 9.38456 70.688 9.79329C70.8622 10.202 71.1572 10.5514 71.5358 10.7972C71.9141 11.0428 72.3588 11.174 72.8138 11.1741C73.4238 11.1717 74.008 10.9352 74.4393 10.5161C74.8707 10.0969 75.1141 9.52911 75.1166 8.93636C75.1164 8.49428 74.9814 8.06215 74.7286 7.69456C74.4757 7.32672 74.1162 7.04002 73.6956 6.87071ZM72.8146 11.6053L72.8163 12.0368C73.6608 12.0337 74.4699 11.7063 75.0671 11.126C75.6642 10.5457 76.0011 9.75956 76.0043 8.9389L76.0043 8.93729C76.0043 8.32427 75.8172 7.72502 75.4667 7.21531C75.1163 6.7056 74.6181 6.30833 74.0353 6.07374C73.4524 5.83915 72.8111 5.77777 72.1924 5.89736C71.5737 6.01696 71.0053 6.31215 70.5592 6.74562C70.1131 7.17909 69.8094 7.73137 69.6863 8.33261C69.5632 8.93385 69.6264 9.55705 69.8678 10.1234C70.1092 10.6898 70.518 11.1738 71.0426 11.5144C71.5671 11.855 72.1838 12.0368 72.8146 12.0368V11.6053Z" fill="#000229"/>
<path d="M72.3656 6.74343C72.8121 6.65712 73.2749 6.70141 73.6956 6.87071C74.1162 7.04002 74.4757 7.32672 74.7286 7.69456C74.9814 8.06215 75.1164 8.49428 75.1166 8.93636C75.1141 9.52911 74.8707 10.0969 74.4393 10.5161C74.008 10.9352 73.4238 11.1717 72.8138 11.1741C72.3588 11.174 71.9141 11.0428 71.5358 10.7972C71.1572 10.5514 70.8622 10.202 70.688 9.79329C70.5137 9.38456 70.4682 8.9348 70.557 8.5009C70.6458 8.06699 70.865 7.66843 71.1869 7.3556C71.5089 7.04277 71.919 6.82973 72.3656 6.74343Z" fill="#000229"/>
<path d="M40.2639 13.8675C40.2568 13.9831 40.2106 14.092 40.1336 14.1742C40.0567 14.2564 39.9543 14.3063 39.8453 14.3146C39.7364 14.323 39.6283 14.2892 39.541 14.2196C39.4537 14.15 39.3931 14.0493 39.3704 13.936C39.3615 13.8106 39.3993 13.6865 39.4758 13.5905C39.5523 13.4944 39.6614 13.4341 39.7795 13.4224C39.8389 13.4178 39.8986 13.4256 39.9551 13.4455C40.0117 13.4654 40.0639 13.4969 40.1089 13.5382C40.154 13.5796 40.1908 13.63 40.2174 13.6865C40.244 13.743 40.2598 13.8045 40.2639 13.8675Z" fill="#000229"/>
<path d="M33.9996 13.8312C34.0057 13.9505 33.9654 14.0674 33.8873 14.1576C33.8092 14.2479 33.6993 14.3044 33.5805 14.3153C33.4625 14.3212 33.3469 14.2806 33.2585 14.2022C33.1701 14.1237 33.116 14.0137 33.1077 13.8958C33.1018 13.8375 33.1078 13.7787 33.1254 13.7228C33.143 13.667 33.1718 13.6154 33.21 13.5711C33.2482 13.5267 33.2951 13.4907 33.3477 13.4652C33.4003 13.4396 33.4576 13.4251 33.516 13.4224C33.6341 13.4135 33.7509 13.4513 33.8414 13.5278C33.9318 13.6042 33.9887 13.7132 33.9996 13.8312Z" fill="#000229"/>
<path fill-rule="evenodd" clip-rule="evenodd" d="M27.8514 31.8974C27.831 31.9048 27.8112 31.9137 27.7921 31.9242C27.238 32.2663 27.0634 32.7221 26.8024 33.4035C26.7532 33.532 26.7009 33.6686 26.6424 33.8139C26.5837 33.9595 26.4522 34.0631 26.2969 34.086L26.2915 34.0868L26.2741 34.0894C26.2587 34.0917 26.2355 34.0952 26.2051 34.0999C26.1442 34.1093 26.0541 34.1233 25.9384 34.1419C25.707 34.1792 25.3731 34.2347 24.9646 34.3074C24.147 34.4531 23.0324 34.6677 21.8427 34.9435C20.6518 35.2196 19.3928 35.5554 18.284 35.9425C17.1648 36.3332 16.2429 36.7615 15.6907 37.2065C15.1849 37.624 14.2491 38.6489 13.0835 40.0383C11.9266 41.4173 10.5686 43.1245 9.22921 44.8766C7.88983 46.6286 6.57153 48.4223 5.49371 49.9742C4.40995 51.5346 3.58645 52.8263 3.22074 53.5844L3.22019 53.5856C3.06581 53.9033 2.91144 54.2135 2.75978 54.5183C1.68519 56.6781 0.746367 58.5649 0.900063 60.9036L0.900122 60.9045C1.10376 64.1033 3.67015 67.5541 7.32033 70.6203C12.298 74.792 19.1061 78.022 23.9041 78.6457C24.5435 78.7261 25.1879 78.7593 25.8322 78.745C25.8354 78.745 25.8387 78.7449 25.8419 78.7449H25.8585C25.8741 78.7323 25.8962 78.7109 25.924 78.6754C25.9857 78.5967 26.054 78.4753 26.1234 78.3053C26.2623 77.9652 26.3782 77.5008 26.4718 76.9762C26.6572 75.9375 26.7411 74.7494 26.7771 74.0393V73.7687C25.8486 73.4776 24.4545 72.8211 22.9023 71.9672C21.1329 70.994 19.1142 69.7397 17.2613 68.4074C15.4131 67.0784 13.7086 65.6568 12.5841 64.3465C12.0233 63.6931 11.5857 63.0434 11.3565 62.4269C11.1257 61.8056 11.0899 61.1651 11.4248 60.6036C11.4316 60.5922 11.4389 60.5811 11.4467 60.5703C13.3247 57.9848 15.3573 55.5151 17.5335 53.1748C17.8695 52.7606 18.2684 52.3538 18.6466 51.9681C18.7692 51.8431 18.8895 51.7204 19.0049 51.6003C20.5111 49.969 22.1155 48.431 23.8091 46.995C23.9952 46.8372 24.274 46.8601 24.4319 47.0461C24.5898 47.2322 24.5669 47.5109 24.3808 47.6687C22.7135 49.0824 21.1341 50.5965 19.6514 52.2026L19.6454 52.209C19.5142 52.3457 19.3831 52.4794 19.2538 52.6113C18.8797 52.9929 18.5201 53.3597 18.2112 53.742C18.2047 53.75 18.198 53.7578 18.191 53.7653C16.0402 56.0774 14.0312 58.5172 12.1749 61.0715C12.0323 61.3224 12.0132 61.6568 12.185 62.1192C12.3622 62.596 12.7249 63.1538 13.2548 63.7713C14.3118 65.0028 15.9504 66.3765 17.7773 67.6902C19.5995 69.0004 21.588 70.2359 23.3283 71.1932C25.0836 72.1588 26.5435 72.8171 27.3224 73.0047C27.521 73.0524 27.6609 73.23 27.6609 73.4341V74.0504C27.6609 74.0578 27.6607 74.0653 27.6603 74.0727C27.6241 74.7917 27.5382 76.0313 27.3418 77.1314C27.2441 77.679 27.1152 78.2142 26.9416 78.6392C26.8549 78.8516 26.75 79.054 26.6197 79.2202C26.4905 79.3851 26.3136 79.5429 26.0776 79.611C26.0378 79.6225 25.9965 79.6284 25.955 79.6284H25.8466C25.1604 79.6433 24.4741 79.6078 23.7932 79.5222L23.7913 79.522C18.7858 78.8716 11.8244 75.5481 6.75214 71.2969L6.75176 71.2966C3.06472 68.1995 0.246341 64.5419 0.0181599 60.9611C-0.15213 58.3678 0.904153 56.2531 1.97372 54.1118C2.12502 53.8089 2.27658 53.5055 2.42497 53.2001C2.82499 52.3711 3.68666 51.0269 4.76775 49.4704C5.85505 47.9049 7.18165 46.1 8.52699 44.3402C9.87232 42.5804 11.2388 40.8623 12.4063 39.4707C13.5638 38.091 14.5514 37.0006 15.1302 36.5235L15.1337 36.5206C15.8098 35.9749 16.8537 35.5061 17.9926 35.1085C19.143 34.7068 20.4358 34.3628 21.6431 34.0829C22.8517 33.8027 23.9819 33.5852 24.8095 33.4377C25.2235 33.364 25.5623 33.3077 25.798 33.2697C25.8394 33.2631 25.8777 33.257 25.9126 33.2514C25.9265 33.2144 25.9405 33.177 25.9546 33.1394C26.2129 32.4486 26.5008 31.6788 27.3376 31.1665C27.3417 31.1639 27.3459 31.1615 27.3501 31.1591C27.429 31.1143 27.5123 31.0779 27.5987 31.0504C27.6112 31.0464 27.6239 31.0429 27.6368 31.0401C31.1092 30.2674 34.7035 30.2176 38.196 30.8938C38.2058 30.8957 38.2155 30.8979 38.2251 30.9004C38.4151 30.9507 38.5969 31.028 38.7649 31.1299C39.2174 31.3784 39.6055 31.7294 39.8981 32.1548C40.1174 32.4738 40.2785 32.8279 40.3749 33.2007C40.5067 33.1998 40.6697 33.2 40.859 33.2028C41.3907 33.2107 42.1317 33.2387 42.9703 33.3198C44.6337 33.4805 46.7365 33.8542 48.3431 34.7302C48.348 34.7328 48.3529 34.7356 48.3577 34.7385C52.7423 37.3493 56.8633 40.3791 60.6629 43.7851C60.7957 43.9002 60.9296 44.0146 61.0643 44.1297C61.541 44.537 62.0266 44.9519 62.5022 45.4273C62.6747 45.5998 62.6747 45.8795 62.5022 46.052C62.3296 46.2245 62.0498 46.2245 61.8772 46.052C61.4285 45.6034 60.9773 45.2178 60.5053 44.8144C60.366 44.6953 60.2248 44.5747 60.0814 44.4504L60.0757 44.4454C56.32 41.0783 52.2466 38.0831 47.9127 35.5018C46.468 34.7164 44.5153 34.3566 42.8853 34.1991C42.0758 34.1209 41.3595 34.0937 40.8459 34.0862C40.5893 34.0824 40.3838 34.0835 40.2432 34.0855C40.1729 34.0865 40.1188 34.0878 40.0827 34.0888C40.0647 34.0893 40.0511 34.0897 40.0423 34.09L40.0326 34.0903L40.0305 34.0904L40.0301 34.0904C40.0301 34.0904 40.0302 34.0904 40.0131 33.649L39.8155 34.0441C39.6846 33.9786 39.5946 33.8526 39.5751 33.7075C39.5246 33.3298 39.3858 32.9693 39.1698 32.6553C38.9538 32.3413 38.6668 32.0826 38.3321 31.9002C38.3254 31.8965 38.3188 31.8927 38.3123 31.8887C38.2189 31.8313 38.1178 31.7873 38.0122 31.758C34.6513 31.1096 31.1932 31.157 27.8514 31.8974Z" fill="#000229"/>
<path fill-rule="evenodd" clip-rule="evenodd" d="M25.8482 78.7368C25.8582 78.7556 25.8701 78.7735 25.884 78.7902L25.8847 78.791L25.8847 78.791C25.9986 78.9289 26.3341 79.2093 26.8505 79.5781C27.3509 79.9353 27.9814 80.348 28.6445 80.7461C29.3081 81.1445 29.9981 81.5246 30.6178 81.8187C31.2501 82.1188 31.7678 82.309 32.1002 82.3593L32.1039 82.3599L32.1039 82.3599C33.133 82.5237 34.3411 82.141 35.5668 81.4957C36.7786 80.8576 37.9242 80.0087 38.8105 79.3454L39.3685 79.9757C38.487 80.6354 37.2892 81.5254 36.006 82.201C34.7373 82.8689 33.2995 83.3744 31.9548 83.161C31.4755 83.0881 30.8531 82.845 30.2124 82.5409C29.5583 82.2305 28.8415 81.8351 28.1612 81.4266C27.4805 81.0179 26.8301 80.5925 26.3084 80.22C25.8031 79.8592 25.3757 79.5184 25.1811 79.283C25.1315 79.2232 25.0884 79.1589 25.0527 79.0911L25.8482 78.7368Z" fill="#000229"/>
<path fill-rule="evenodd" clip-rule="evenodd" d="M47.6436 43.848C47.8787 43.808 48.1008 43.9722 48.1396 44.2147C48.4713 46.288 48.8831 49.0541 49.3448 52.2107L49.3448 52.2111C51.1392 64.5547 53.5739 82.9294 53.685 88.9477C53.6872 89.0672 53.6427 89.1825 53.5615 89.2678C53.4804 89.3531 53.3694 89.4012 53.2535 89.4012H52.7517L14.5567 89.4736H13.8534C13.7349 89.4736 13.6215 89.4233 13.54 89.3346C13.4585 89.2458 13.416 89.1264 13.4225 89.0043C13.5144 87.2713 13.6256 86.2208 13.7424 85.1177C13.7604 84.9471 13.7786 84.7752 13.7969 84.5994C13.9328 83.292 14.0751 81.7486 14.2051 78.8242C14.216 78.5786 14.4179 78.3887 14.656 78.4C14.894 78.4112 15.0782 78.6194 15.0673 78.8649C14.9364 81.8087 14.7927 83.3702 14.6551 84.6942C14.6366 84.8715 14.6184 85.0442 14.6003 85.2152C14.4948 86.2113 14.3956 87.1486 14.3106 88.5835H14.5559L52.7509 88.5111L52.7517 88.5111L52.81 88.5111C52.5953 82.1356 50.2462 64.4147 48.4913 52.343C48.0297 49.1866 47.6187 46.4261 47.288 44.3596C47.2492 44.1171 47.4084 43.8881 47.6436 43.848Z" fill="#000229"/>
<path fill-rule="evenodd" clip-rule="evenodd" d="M64.6493 31.3157L64.7395 31.6316C65.6384 34.7804 67.0814 40.1251 68.0079 44.9868C68.4707 47.4156 68.8079 49.7402 68.8805 51.6165C68.9168 52.5539 68.8878 53.3961 68.769 54.091C68.6523 54.7737 68.4386 55.3783 68.0538 55.7726C67.877 55.9539 67.644 56.0742 67.3991 56.1567C67.151 56.2403 66.8636 56.2943 66.5511 56.327C65.9264 56.3923 65.1541 56.3765 64.2966 56.3056C62.5787 56.1636 60.4553 55.7946 58.3549 55.3542C54.2696 54.4975 50.2083 53.3569 49.2803 53.0428H49.2606V53.0361C49.2427 53.03 49.2262 53.0242 49.2109 53.0188L49.2606 52.87V52.1618H49.4212L49.4887 52.1858C50.2127 52.4432 54.3441 53.6142 58.5247 54.4908C60.6134 54.9288 62.6976 55.2897 64.3646 55.4275C65.1995 55.4965 65.914 55.5081 66.4652 55.4505C66.7405 55.4217 66.9633 55.3768 67.1346 55.3192C67.3089 55.2605 67.405 55.1964 67.4526 55.1475C67.5933 55.0035 67.7212 54.766 67.8215 54.4175C67.8258 54.4027 67.8299 54.3878 67.8341 54.3727C67.8696 54.2428 67.9014 54.0981 67.9288 53.9379C68.0328 53.3296 68.063 52.5571 68.028 51.6517C67.958 49.8425 67.6305 47.5695 67.1707 45.1569C66.5168 41.7253 65.6018 38.0442 64.8053 35.0747C64.5214 34.0163 64.2526 33.0484 64.016 32.2143L59.741 32.5409C60.1338 36.4942 60.265 40.4707 60.1335 44.4428L59.2808 44.4127C59.4159 40.3305 59.2708 36.2435 58.8465 32.1824L58.7992 31.7295L64.1996 31.3169L64.2153 31.3157H64.6493Z" fill="#000229"/>
<path fill-rule="evenodd" clip-rule="evenodd" d="M33.0871 71.6344C33.9354 71.5603 34.7889 71.5603 35.6373 71.6344L35.6463 71.6352L35.6553 71.6363C35.9782 71.6772 36.279 71.8179 36.513 72.0376C36.747 72.2573 36.9019 72.5444 36.9546 72.8562C37.0073 73.1681 36.9551 73.4881 36.8056 73.7689C36.659 74.0443 36.4266 74.2675 36.1417 74.407C35.8396 74.5772 35.3108 74.7824 34.8071 74.9713C34.6683 75.0233 34.5297 75.0747 34.3944 75.1249C34.0069 75.2686 33.646 75.4024 33.3837 75.5131L33.382 75.5138C33.253 75.5676 33.1241 75.6911 33.0175 75.9133C32.9113 76.1346 32.845 76.42 32.825 76.7265C32.8052 77.0317 32.8328 77.3349 32.8963 77.5833C32.9634 77.8458 33.0546 77.9862 33.1112 78.035C33.2884 78.1856 33.614 78.3296 34.0927 78.446C34.5602 78.5598 35.1239 78.6359 35.7295 78.683C36.9398 78.7772 38.2687 78.7524 39.2292 78.7066L39.2404 78.706H39.3681V79.5902H39.2627C38.2852 79.6366 36.918 79.6626 35.6567 79.5644C35.0241 79.5151 34.4058 79.4338 33.8711 79.3037C33.3483 79.1765 32.8516 78.9903 32.5096 78.699L32.5084 78.6981C32.2472 78.4742 32.0963 78.1262 32.012 77.7963C31.9238 77.4516 31.8906 77.057 31.9157 76.6708C31.9408 76.2859 32.0254 75.8864 32.1914 75.5402C32.3568 75.1953 32.6209 74.8692 33.0212 74.7019C33.3041 74.5826 33.6946 74.4378 34.0883 74.2918C34.2193 74.2432 34.3508 74.1945 34.4787 74.1465C35.0153 73.9453 35.4729 73.7637 35.6928 73.6374L35.7085 73.6284L35.7248 73.6207C35.8414 73.5654 35.9365 73.475 35.9961 73.3631C36.0557 73.2512 36.0765 73.1237 36.0555 72.9994C36.0345 72.8751 35.9727 72.7606 35.8794 72.673C35.7881 72.5872 35.6711 72.5317 35.5454 72.5141C34.757 72.4459 33.964 72.446 33.1757 72.5144C32.8297 72.5555 32.4156 72.6711 31.9313 72.8297C31.739 72.8926 31.526 72.9658 31.3041 73.042C30.998 73.1472 30.6751 73.2581 30.3665 73.356C29.2743 73.7024 28.0209 74.0046 26.8418 73.7503L27.0395 72.8872C27.9581 73.0853 29.0038 72.858 30.0834 72.5155C30.3965 72.4163 30.6859 72.3166 30.9729 72.2178C31.1934 72.1418 31.4125 72.0664 31.64 71.9919C32.134 71.8302 32.6263 71.6879 33.0736 71.6358L33.0803 71.635L33.0871 71.6344Z" fill="#000229"/>
<path fill-rule="evenodd" clip-rule="evenodd" d="M30.811 2.25574C29.8629 3.54314 29.2528 5.04971 29.0371 6.63649L29.0356 6.64768L29.0335 6.65878C28.8753 7.49495 28.7592 8.3233 28.6542 9.07266C28.6342 9.21541 28.6146 9.3553 28.5952 9.49182C28.5615 9.7288 28.3429 9.89347 28.1069 9.85961C27.871 9.82576 27.707 9.6062 27.7407 9.36923C27.7597 9.23582 27.779 9.09809 27.7988 8.95669C27.9033 8.21076 28.0221 7.36276 28.1835 6.50798C28.4211 4.77395 29.0905 3.12809 30.1299 1.72289L30.1416 1.70707L30.1547 1.69238C31.3821 0.314308 32.7139 -0.168067 34.0532 0.0503354C35.3539 0.262443 36.5757 1.12301 37.6506 2.23364L37.6517 2.23474C38.2696 2.87763 38.8347 3.5697 39.3414 4.30415C40.8677 6.49918 42.0423 8.92082 42.8223 11.481L42.8253 11.4911L42.8279 11.5013C43.0773 12.4892 42.911 13.7267 42.5473 14.9864C42.1798 16.2594 41.5931 17.6142 40.9388 18.8665C40.284 20.1197 39.555 21.2829 38.8958 22.1732C38.5665 22.6179 38.25 23.0007 37.9647 23.2945C37.6923 23.575 37.407 23.8184 37.1392 23.9253L37.1383 23.9256C36.9441 24.0026 36.743 24.0609 36.5377 24.0996L36.5363 24.0999C35.3558 24.3186 34.0703 23.8955 32.9951 23.221C31.9157 22.5438 30.974 21.5674 30.4897 20.567C30.3854 20.3517 30.4747 20.0923 30.6891 19.9877C30.9034 19.883 31.1617 19.9727 31.2659 20.1879C31.6648 21.012 32.4794 21.8753 33.4524 22.4858C34.4293 23.0987 35.4917 23.4114 36.3785 23.2476C36.5297 23.2191 36.6778 23.1762 36.8209 23.1195C36.9069 23.0851 37.0842 22.9596 37.3468 22.6892C37.5967 22.4319 37.8881 22.0814 38.2032 21.6559C38.8327 20.8057 39.5383 19.6814 40.1745 18.4637C40.8111 17.2452 41.3716 15.9458 41.7183 14.745C42.0673 13.5362 42.1824 12.4844 41.9937 11.7242C41.24 9.25425 40.1062 6.91792 38.6334 4.79997L38.6324 4.79863C38.1522 4.10254 37.6168 3.44664 37.0312 2.83733C36.0087 1.78106 34.9474 1.0744 33.9149 0.906015C32.9247 0.744553 31.8775 1.0653 30.811 2.25574Z" fill="#000229"/>
<path fill-rule="evenodd" clip-rule="evenodd" d="M27.5559 26.4151C27.576 28.0159 27.5964 29.6403 27.5964 31.3157H26.921C26.921 29.6694 26.9008 28.0614 26.8808 26.4692C26.8302 22.4382 26.7809 18.5086 27.0635 14.3157L27.7365 14.3871C27.4569 18.5351 27.5055 22.4008 27.5559 26.4151Z" fill="#000229"/>
<path fill-rule="evenodd" clip-rule="evenodd" d="M36.7123 23.7253C36.7055 23.6546 36.696 23.5845 36.6836 23.5156L37.2899 23.2632C37.3081 23.3647 37.3224 23.4677 37.3327 23.5717C37.4566 24.4631 37.5523 25.4352 37.6476 26.4036C37.6961 26.8964 37.7445 27.3881 37.7965 27.8679C37.954 29.3208 38.1464 30.6926 38.4731 31.8255L37.8976 32.2106C37.5373 30.9608 37.3351 29.488 37.1764 28.0238C37.1209 27.5119 37.071 27.004 37.0218 26.5041C36.928 25.5498 36.837 24.6247 36.7159 23.7561L36.7138 23.7408L36.7123 23.7253Z" fill="#000229"/>
<path fill-rule="evenodd" clip-rule="evenodd" d="M26.2536 9.0464C26.9475 8.81155 27.6988 8.99153 28.4269 9.61246L28.432 9.61683L28.437 9.62134C28.8218 9.96905 29.1616 10.3633 29.4486 10.7949C29.5914 11.0097 29.5327 11.2994 29.3174 11.4419C29.102 11.5844 28.8117 11.5258 28.6688 11.311C28.4261 10.946 28.1389 10.6124 27.8139 10.3179C27.2715 9.85732 26.8587 9.82747 26.5542 9.93053C26.2109 10.0467 25.8701 10.3762 25.5942 10.8794C25.3231 11.3737 25.1496 11.975 25.1052 12.5253C25.0606 13.0779 25.1521 13.4883 25.3031 13.7027C25.5662 13.9671 25.9001 14.1507 26.2652 14.2311C26.6398 14.3136 27.0305 14.2839 27.3882 14.1458L27.4145 14.1357L27.4418 14.1287C27.6111 14.0858 27.774 14.0207 27.9264 13.9353C28.1516 13.809 28.4369 13.8889 28.5635 14.1136C28.6901 14.3384 28.61 14.623 28.3848 14.7493C28.169 14.8702 27.9388 14.9634 27.6997 15.0265C27.1772 15.2224 26.6088 15.2629 26.0634 15.1427C25.5089 15.0206 25.0028 14.7377 24.6088 14.3297L24.5901 14.3104L24.5739 14.2891C24.2057 13.8082 24.1195 13.106 24.1724 12.4503C24.227 11.7749 24.4363 11.0456 24.7733 10.4313C25.1053 9.82579 25.5975 9.26845 26.2536 9.0464Z" fill="#000229"/>
<path fill-rule="evenodd" clip-rule="evenodd" d="M44.9003 0.00435537C45.4878 0.0315964 46.091 0.198809 46.3672 0.728722C46.5692 1.11659 46.5717 1.51301 46.412 1.87929C46.2615 2.22463 45.9789 2.51849 45.6542 2.76725C45.0046 3.26494 44.0482 3.68554 43.083 4.02516C41.1459 4.70674 38.9888 5.1239 38.6631 5.15817L38.5697 4.30191C38.815 4.2761 40.9039 3.87717 42.7873 3.21446C43.7323 2.88193 44.5797 2.49833 45.115 2.08824C45.3827 1.88311 45.5377 1.69718 45.606 1.54041C45.6652 1.40462 45.6676 1.27647 45.5868 1.12118C45.5368 1.02526 45.3715 0.888314 44.859 0.864549C44.3703 0.84189 43.7015 0.932105 42.8889 1.12226C41.2711 1.50083 39.2023 2.246 37.1124 3.09506C33.9414 4.38884 30.778 5.89646 29.1604 6.66738C28.7595 6.85846 28.4535 7.00428 28.2659 7.09038L28.1284 7.15789L27.7363 6.38765L27.8844 6.31496L27.8897 6.3125C28.067 6.23121 28.3646 6.08938 28.7586 5.90158C30.365 5.13589 33.5745 3.60603 36.7763 2.29969L36.7769 2.29944C38.8769 1.44628 40.998 0.679493 42.6857 0.284552C43.5259 0.0879385 44.2889 -0.0239916 44.9003 0.00435537Z" fill="#000229"/>
<path fill-rule="evenodd" clip-rule="evenodd" d="M32.9673 10.7982C33.4994 10.688 34.0464 10.7266 34.5632 10.9106C34.811 10.9989 34.9505 11.3044 34.8747 11.593C34.799 11.8817 34.5367 12.0441 34.2889 11.9559C33.914 11.8224 33.5174 11.7944 33.1314 11.8743C32.7455 11.9542 32.3814 12.1396 32.0689 12.4153C31.8624 12.5976 31.5681 12.5504 31.4117 12.3098C31.2552 12.0692 31.2957 11.7265 31.5023 11.5442C31.933 11.164 32.4351 10.9083 32.9673 10.7982Z" fill="#000229"/>
<path fill-rule="evenodd" clip-rule="evenodd" d="M27.6121 11.7162C27.7898 11.8222 27.7762 11.9866 27.5817 12.0835C27.0222 12.3621 26.2952 12.5196 25.5374 12.5263C25.2741 12.5286 25.0571 12.4142 25.0528 12.2706C25.0485 12.1271 25.2585 12.0088 25.5219 12.0064C26.0469 12.0018 26.5507 11.8927 26.9383 11.6996C27.1328 11.6028 27.4344 11.6102 27.6121 11.7162Z" fill="#000229"/>
<path fill-rule="evenodd" clip-rule="evenodd" d="M38.9852 10.7723C39.6218 10.6915 40.3621 10.7461 40.8623 10.963C41.1168 11.0733 41.2279 11.3565 41.1104 11.5956C40.993 11.8346 40.6914 11.939 40.4369 11.8287C40.1699 11.7129 39.6414 11.6511 39.1212 11.7172C38.8691 11.7492 38.6525 11.8075 38.4946 11.8823C38.333 11.9588 38.2781 12.0299 38.2619 12.0665L38.2607 12.0692L38.2595 12.0719C38.1733 12.2603 38.1262 12.5449 38.1305 12.9257C38.1347 13.2993 38.1875 13.7271 38.2686 14.1782C38.3851 14.8259 38.5516 15.4813 38.6997 16.0646C38.76 16.3019 38.8173 16.5272 38.8669 16.7352L38.8675 16.7379L38.8681 16.7406C38.9701 17.193 39.1403 17.9845 39.015 18.61C38.9501 18.9337 38.7885 19.3027 38.4024 19.5189C38.0185 19.7338 37.5459 19.7228 37.0436 19.5794C36.7754 19.5028 36.6241 19.2365 36.7057 18.9846C36.7872 18.7327 37.0707 18.5906 37.3389 18.6672C37.71 18.7731 37.8482 18.7192 37.8827 18.6999C37.9148 18.6819 37.979 18.6255 38.0174 18.4337C38.0985 18.0288 37.9859 17.4303 37.8757 16.9409C37.8317 16.7565 37.7785 16.547 37.7209 16.3204C37.5704 15.7277 37.3902 15.0183 37.2677 14.337C37.1821 13.8609 37.1205 13.3789 37.1155 12.9359C37.1106 12.5011 37.1592 12.0633 37.3258 11.6978C37.4694 11.3758 37.7545 11.165 38.0376 11.0309C38.3253 10.8947 38.659 10.8137 38.9852 10.7723Z" fill="#000229"/>
<path fill-rule="evenodd" clip-rule="evenodd" d="M38.293 20.6235C38.4863 20.7006 38.5314 20.8509 38.3937 20.9591C38.2054 21.1071 37.9607 21.2297 37.6773 21.3183C37.3939 21.4068 37.0789 21.4589 36.755 21.4709C36.4312 21.4829 36.1067 21.4545 35.8049 21.3876C35.5031 21.3208 35.2317 21.2172 35.0102 21.0844C34.8482 20.9873 34.8575 20.835 35.031 20.7443C35.2046 20.6537 35.4766 20.6589 35.6386 20.756C35.7731 20.8367 35.938 20.8995 36.1212 20.9401C36.3045 20.9807 36.5016 20.998 36.6983 20.9907C36.8949 20.9834 37.0863 20.9518 37.2584 20.898C37.4305 20.8443 37.5791 20.7698 37.6934 20.6799C37.8312 20.5717 38.0996 20.5464 38.293 20.6235Z" fill="#000229"/>
<path fill-rule="evenodd" clip-rule="evenodd" d="M30.7177 151.993C30.6296 147.389 30.5173 141.528 30.4219 135.113L31.7837 135.105C31.8788 141.499 31.9915 147.384 32.0799 152.001C32.1383 155.056 32.1862 157.555 32.2113 159.28L32.2113 159.283L32.2113 159.293V161.947H30.8494V159.285C30.824 157.543 30.7762 155.044 30.7177 151.993Z" fill="#000229"/>
<path fill-rule="evenodd" clip-rule="evenodd" d="M21.02 91.2634C21.2615 91.2564 21.4627 91.4546 21.4695 91.7061C21.5336 94.1123 20.7629 96.0567 19.4699 97.5381C18.184 99.0115 16.4001 100.007 14.4549 100.57L14.4541 100.57C13.3898 100.875 12.2958 101.055 11.1929 101.105C10.9515 101.116 10.7473 100.921 10.7368 100.67C10.7262 100.418 10.9134 100.206 11.1547 100.195C12.1918 100.147 13.2205 99.9787 14.2213 99.6915C16.0503 99.1626 17.6744 98.2408 18.8225 96.9254C19.9636 95.6178 20.6527 93.9019 20.5948 91.7314C20.5881 91.4799 20.7785 91.2703 21.02 91.2634Z" fill="#000229"/>
<path fill-rule="evenodd" clip-rule="evenodd" d="M14.8614 88.579C15.0977 88.5853 15.2842 88.786 15.2781 89.0275C15.1887 92.5599 15.1887 96.3678 15.1887 100.335L15.1887 100.337C15.1069 119.75 15.3487 142.885 15.4898 156.393C15.5032 157.679 15.5157 158.877 15.527 159.977C15.5807 163.729 15.5861 166.329 15.5867 167.334L38.0444 167.224C38.2807 167.223 38.4732 167.418 38.4743 167.659C38.4754 167.901 38.2848 168.097 38.0484 168.099L15.1609 168.21C15.047 168.211 14.9377 168.165 14.857 168.083C14.7763 168.001 14.7309 167.889 14.7309 167.773V167.61C14.7309 166.899 14.7309 164.156 14.6713 159.989L14.6713 159.987C14.66 158.887 14.6475 157.688 14.634 156.402C14.4929 142.896 14.2511 119.754 14.3329 100.335V100.332C14.3329 96.3685 14.3329 92.5499 14.4226 89.0049C14.4287 88.7634 14.6252 88.5728 14.8614 88.579Z" fill="#000229"/>
<path fill-rule="evenodd" clip-rule="evenodd" d="M37.2987 96.632C37.5551 96.6425 37.7538 96.8454 37.7427 97.0854C37.1482 109.854 35.1079 122.527 31.656 134.892C29.4043 143.391 26.7954 151.503 24.2772 159.011C24.4492 159.074 24.6575 159.156 24.8942 159.251C25.0733 159.323 25.2683 159.402 25.4788 159.488C25.8381 159.634 26.2424 159.799 26.6893 159.976C28.0989 160.535 29.8754 161.197 31.702 161.69L31.709 161.692C32.7808 161.999 33.8783 162.22 34.9899 162.354C36.1738 162.481 37.3773 162.857 38.2287 163.594C39.0982 164.346 39.5527 165.436 39.299 166.868C39.3058 167.07 39.1594 167.256 38.9401 167.304C38.6902 167.359 38.4403 167.214 38.382 166.98C38.363 166.904 38.3617 166.825 38.378 166.749C38.5931 165.574 38.227 164.777 37.5978 164.232C36.9426 163.665 35.9541 163.333 34.8806 163.217L34.8745 163.217C33.7111 163.077 32.5625 162.846 31.4408 162.525C29.5623 162.017 27.7474 161.34 26.3268 160.777C25.878 160.599 25.4628 160.43 25.0995 160.282C24.8906 160.197 24.6988 160.119 24.5277 160.05C24.2902 159.955 24.0916 159.877 23.9337 159.819C23.7676 159.759 23.6728 159.73 23.6315 159.722C23.417 159.679 23.2637 159.502 23.2637 159.297V159.196C23.2637 159.151 23.2709 159.107 23.285 159.065C25.8342 151.474 28.4782 143.273 30.7548 134.68L30.7562 134.675C34.1919 122.368 36.2226 109.755 36.8143 97.0475C36.8254 96.8076 37.0423 96.6216 37.2987 96.632Z" fill="#000229"/>
<path fill-rule="evenodd" clip-rule="evenodd" d="M53.3759 88.579C53.6217 88.5844 53.8164 88.7852 53.8109 89.0274C53.1724 117.029 46.9927 141.117 41.0425 159.811C41.0846 159.827 41.1277 159.845 41.1715 159.862C41.4133 159.959 41.7146 160.087 42.0599 160.235L42.1965 160.294C42.8683 160.582 43.7037 160.94 44.6392 161.308C46.6452 162.096 49.0775 162.915 51.2847 163.173C52.4249 163.302 53.5863 163.683 54.4023 164.441C55.2426 165.222 55.6661 166.356 55.3877 167.851C55.3489 168.059 55.1647 168.21 54.9498 168.21H38.0233C37.7774 168.21 37.5781 168.014 37.5781 167.772C37.5781 167.529 37.7774 167.333 38.0233 167.333H54.5639C54.6681 166.3 54.3324 165.582 53.7917 165.08C53.1663 164.499 52.2162 164.161 51.1827 164.045L51.1807 164.045C48.8537 163.772 46.3328 162.918 44.3093 162.123C43.3606 161.75 42.5138 161.387 41.8427 161.099L41.7049 161.04C41.3577 160.891 41.0662 160.767 40.836 160.675C40.5939 160.578 40.4549 160.531 40.3958 160.518C40.2728 160.493 40.1665 160.418 40.103 160.311C40.0395 160.204 40.0249 160.076 40.0626 159.957C46.0401 141.245 52.2803 117.099 52.9208 89.0077C52.9263 88.7655 53.1301 88.5735 53.3759 88.579Z" fill="#000229"/>
<path fill-rule="evenodd" clip-rule="evenodd" d="M31.3164 159.263H41.1585V160.158H31.3164V159.263Z" fill="#000229"/>
<path fill-rule="evenodd" clip-rule="evenodd" d="M15.2109 159.263H24.1583V160.158H15.2109V159.263Z" fill="#000229"/>
<path fill-rule="evenodd" clip-rule="evenodd" d="M14 167.467C14 167.209 14.193 167 14.4311 167H37.5689C37.807 167 38 167.209 38 167.467V169.533C38 169.791 37.807 170 37.5689 170H14.4311C14.193 170 14 169.791 14 169.533V167.467ZM14.8622 167.935V169.065H37.1378V167.935H14.8622Z" fill="#000229"/>
<path fill-rule="evenodd" clip-rule="evenodd" d="M38 167.467C38 167.209 38.1924 167 38.4297 167H54.5703C54.8076 167 55 167.209 55 167.467V169.533C55 169.791 54.8076 170 54.5703 170H38.4297C38.1924 170 38 169.791 38 169.533V167.467ZM38.8595 167.935V169.065H54.1405V167.935H38.8595Z" fill="#000229"/>
<path fill-rule="evenodd" clip-rule="evenodd" d="M7.12695 73.9213L7.29684 70.7269L6.43826 70.6843L6.26832 73.8797L6.26822 73.8817C6.21667 74.9494 6.60486 75.9934 7.34796 76.7856C8.09106 77.5778 9.12865 78.0537 10.234 78.1094L10.2353 78.1095L20.5362 78.737L20.5795 77.9078L14.3367 77.4734L10.2788 77.2803C9.4006 77.2359 8.57553 76.8576 7.98512 76.2282C7.39476 75.5989 7.08626 74.7695 7.12695 73.9213Z" fill="#000229"/>
<path fill-rule="evenodd" clip-rule="evenodd" d="M19.8184 51.876H19.6836V51H19.8382L40.0103 52.0192C41.077 52.078 42.0782 52.5801 42.7952 53.416C43.5123 54.2519 43.8868 55.3535 43.8371 56.4801L42.9882 75.5892L42.9881 75.591C42.9608 76.1555 42.8274 76.7086 42.5955 77.2181C42.3637 77.7275 42.0381 78.1831 41.6377 78.5583C41.2374 78.9335 40.7703 79.2207 40.2638 79.4033C39.7618 79.5843 39.231 79.6588 38.7017 79.6227H38.1656V78.7467H38.7154V79.1847L38.7436 78.7478C39.1678 78.7783 39.5935 78.7193 39.9958 78.5743C40.3981 78.4293 40.7691 78.2011 41.0871 77.9031C41.4051 77.6051 41.6637 77.2433 41.8478 76.8386C42.0319 76.4342 42.1379 75.9951 42.1596 75.547C42.1596 75.5468 42.1596 75.5466 42.1597 75.5464L43.0084 56.4393C43.0084 56.4393 43.0084 56.4394 43.0084 56.4393C43.0479 55.544 42.7502 54.6684 42.1804 54.0041C41.6107 53.34 40.8153 52.941 39.968 52.8941C39.9677 52.894 39.9674 52.894 39.9671 52.894L19.8184 51.876Z" fill="#000229"/>
<path fill-rule="evenodd" clip-rule="evenodd" d="M59.9225 25.0898C59.7056 25.1259 59.5035 25.171 59.2999 25.2165C59.1584 25.2481 59.0161 25.2798 58.8677 25.3089C58.4353 25.4018 58.0176 25.5474 57.6251 25.7419C56.905 26.1206 56.5639 26.6221 56.4471 27.158C56.3262 27.7128 56.4373 28.3485 56.7165 28.976C56.9945 29.6009 57.425 30.1848 57.8908 30.6207C58.3698 31.0689 58.8278 31.3073 59.1469 31.3433C59.4002 31.372 59.5809 31.5886 59.5505 31.8272C59.5201 32.0659 59.2901 32.2361 59.0368 32.2074C58.4158 32.1373 57.7752 31.7393 57.2396 31.2381C56.6908 30.7246 56.1906 30.046 55.8643 29.3123C55.5391 28.5812 55.3722 27.7621 55.542 26.983C55.7158 26.186 56.2331 25.4754 57.1805 24.979L57.185 24.9766L57.1896 24.9743C57.6561 24.7426 58.1528 24.5694 58.6671 24.4593L58.6715 24.4583L58.6759 24.4575C58.7711 24.4389 58.8946 24.4117 59.0307 24.3817C59.2646 24.3301 59.5355 24.2703 59.7636 24.2324L59.7671 24.2319L59.7671 24.2319C60.2334 24.1578 60.7737 24.1167 61.2613 24.22C61.761 24.3258 62.2336 24.5927 62.4746 25.1308C62.6351 25.4144 62.6752 25.7452 62.586 26.0561C62.4941 26.3764 62.2723 26.6499 61.9683 26.8176L61.9483 26.8286L61.9272 26.8377C61.4567 27.0407 60.9636 27.1933 60.4569 27.2926C60.4105 27.3024 60.3644 27.3149 60.3194 27.3294C60.4512 27.4098 60.5758 27.501 60.6916 27.6023C61.0007 27.8727 61.2386 28.207 61.3868 28.5788C61.5103 28.8211 61.6105 29.0733 61.6861 29.3325C61.7536 29.5643 61.609 29.8037 61.3629 29.8674C61.1169 29.931 60.8627 29.7948 60.7951 29.563C60.7325 29.3485 60.6491 29.1399 60.5458 28.9398L60.5354 28.9197L60.5273 28.8988C60.43 28.6477 60.2708 28.422 60.0629 28.2401C59.8575 28.0605 59.6104 27.9287 59.3413 27.8553C59.2803 27.841 59.2007 27.8117 59.1264 27.7497C59.0302 27.6696 58.9772 27.5631 58.9639 27.4565C58.9422 27.282 59.0297 27.1514 59.0571 27.1118C59.1327 27.0028 59.2477 26.9078 59.3501 26.8359C59.5683 26.6825 59.8958 26.5184 60.2594 26.4423L60.2626 26.4417L60.2657 26.4411C60.6968 26.3568 61.1167 26.228 61.5178 26.057C61.6041 26.0042 61.667 25.9231 61.694 25.829C61.7227 25.7291 61.7085 25.6225 61.6546 25.5323L61.6398 25.5076L61.6286 25.4813C61.5328 25.2573 61.3517 25.1311 61.0587 25.0691C60.7463 25.0029 60.3472 25.0224 59.9225 25.0898Z" fill="#000229"/>
<path fill-rule="evenodd" clip-rule="evenodd" d="M56.8192 16.9964C56.9507 16.9695 57.0387 16.9787 57.1046 16.999L57.3583 17.1657L57.9663 18.3057L58.5233 20.2873L58.6115 20.6441C58.7753 21.3085 58.9531 22.0301 59.1647 22.7745C59.3581 23.4556 59.5666 24.1784 59.8252 24.9034C59.9077 25.1347 60.1975 25.266 60.4724 25.1966C60.7474 25.1272 60.9035 24.8834 60.821 24.6521C60.5718 23.9536 60.3693 23.2526 60.1758 22.5712C59.9683 21.8407 59.794 21.1338 59.6301 20.4692C59.6001 20.3476 59.5705 20.2274 59.5411 20.1087C59.3523 19.3474 59.1707 18.6429 58.9625 18.0558C58.7582 17.4794 58.5097 16.9583 58.1538 16.6026C57.9695 16.4184 57.7424 16.2642 57.462 16.1778C57.1777 16.0902 56.8773 16.0845 56.5736 16.1466C56.1191 16.2395 55.8641 16.5489 55.7246 16.8457C55.5833 17.1461 55.5155 17.5204 55.4887 17.9176C55.4348 18.7181 55.5411 19.741 55.7132 20.7663C56.0577 22.8176 56.6863 24.9919 56.954 25.6512C57.0467 25.8798 57.3422 26.0018 57.6139 25.9238C57.8856 25.8457 58.0306 25.5972 57.9378 25.3686C57.6978 24.7772 57.0812 22.6602 56.7427 20.644C56.5733 19.6356 56.4786 18.6805 56.5267 17.9671C56.5509 17.6074 56.6098 17.3408 56.6914 17.1672C56.7312 17.0825 56.7689 17.0364 56.7938 17.0139C56.8053 17.0034 56.8128 16.9992 56.8153 16.9978C56.8175 16.9967 56.8182 16.9966 56.8192 16.9964Z" fill="#000229"/>
<path fill-rule="evenodd" clip-rule="evenodd" d="M60.1615 22.5432C60.0553 22.6356 59.9847 22.7636 60.0032 22.9622C60.0249 23.1949 59.8312 23.3992 59.5704 23.4186C59.3097 23.438 59.0807 23.2651 59.0589 23.0324C59.0169 22.5822 59.1913 22.2065 59.5 21.9379C59.7965 21.68 60.1908 21.5417 60.5739 21.4937C60.9584 21.4456 61.3702 21.4831 61.7302 21.6153C62.0888 21.7469 62.4262 21.9857 62.591 22.3537C62.7672 22.7167 62.9133 23.0907 63.0281 23.4727C63.3359 24.4052 63.5077 25.3944 63.525 26.2894C63.5418 27.1639 63.4122 27.9964 63.0708 28.5972C62.9446 28.88 62.7233 29.1212 62.437 29.2875C62.1426 29.4585 61.7948 29.5413 61.444 29.524C61.1828 29.5111 60.9827 29.3117 60.9972 29.0786C61.0116 28.8455 61.2351 28.667 61.4964 28.6799C61.646 28.6873 61.7944 28.6519 61.92 28.579C62.0457 28.506 62.1419 28.3993 62.1949 28.2742L62.2048 28.2509L62.2176 28.2289C62.4621 27.8088 62.5936 27.1319 62.5776 26.3039C62.5618 25.4875 62.4037 24.5718 62.1176 23.7068L62.1159 23.7016L62.1143 23.6964C62.0107 23.3506 61.8785 23.0123 61.7187 22.684L61.7153 22.677L61.7122 22.6698C61.6664 22.5655 61.5584 22.4664 61.3697 22.3971C61.1797 22.3274 60.9395 22.3016 60.7056 22.3309C60.4703 22.3604 60.28 22.4401 60.1615 22.5432Z" fill="#000229"/>
<path fill-rule="evenodd" clip-rule="evenodd" d="M62.8331 22.3032C62.6081 22.3702 62.3918 22.6196 62.4271 23.0656C62.4448 23.2887 62.306 23.4865 62.1171 23.5074C61.9283 23.5283 61.7609 23.3643 61.7432 23.1412C61.6747 22.2756 62.1294 21.6758 62.6652 21.5163C62.929 21.4378 63.2204 21.4637 63.4747 21.627C63.7348 21.7941 63.9297 22.0882 64.0154 22.4838L64.0155 22.484C64.3003 23.8013 64.4216 24.9117 64.4205 25.8062C64.4195 26.6912 64.2987 27.3981 64.0721 27.8835C63.9912 28.0608 63.8828 28.2186 63.7524 28.3486L63.7394 28.3615L63.7254 28.3729C63.4533 28.5937 63.1182 28.6779 62.7936 28.607C62.469 28.5362 62.1815 28.3161 61.9941 27.9951C61.8864 27.8107 61.9257 27.558 62.0819 27.4308C62.2381 27.3036 62.4519 27.35 62.5596 27.5345C62.6437 27.6785 62.7727 27.7773 62.9184 27.809C63.0585 27.8396 63.203 27.8058 63.3225 27.7149C63.3814 27.6531 63.4306 27.5795 63.4679 27.4974L63.4689 27.4952L63.47 27.493C63.6181 27.1764 63.7326 26.6243 63.7336 25.8051C63.7346 24.9941 63.6241 23.953 63.3499 22.6849C63.3078 22.4909 63.2262 22.3911 63.1466 22.3399C63.0612 22.2851 62.9497 22.2685 62.8331 22.3032Z" fill="#000229"/>
<path fill-rule="evenodd" clip-rule="evenodd" d="M63.7892 27.7525C63.979 27.6873 64.1741 27.8316 64.225 28.0748C64.4852 29.3187 64.4852 30.6286 64.225 31.8726C64.1741 32.1157 63.979 32.26 63.7892 32.1949C63.5994 32.1297 63.4867 31.8797 63.5376 31.6366C63.7655 30.5472 63.7655 29.4001 63.5376 28.3108C63.4867 28.0676 63.5994 27.8176 63.7892 27.7525Z" fill="#000229"/>
<path fill-rule="evenodd" clip-rule="evenodd" d="M79.413 0.095982C79.6581 0.251949 79.7041 0.542954 79.5158 0.745959L77.0561 3.3978C76.8678 3.6008 76.5165 3.63893 76.2714 3.48297C76.0264 3.327 75.9803 3.03599 76.1686 2.83299L78.6283 0.181152C78.8166 -0.0218535 79.1679 -0.0599852 79.413 0.095982Z" fill="#000229"/>
<path fill-rule="evenodd" clip-rule="evenodd" d="M82.2631 3.85568C82.379 4.10945 82.2954 4.42404 82.0764 4.55834L79.3949 6.20259C79.1759 6.33689 78.9044 6.24003 78.7885 5.98625C78.6726 5.73247 78.7562 5.41788 78.9752 5.28359L81.6567 3.63933C81.8757 3.50504 82.1472 3.6019 82.2631 3.85568Z" fill="#000229"/>
<path fill-rule="evenodd" clip-rule="evenodd" d="M79.6309 8.5001C79.6309 8.25303 79.8131 8.05273 80.038 8.05273H82.8027C83.0275 8.05273 83.2098 8.25303 83.2098 8.5001C83.2098 8.74718 83.0275 8.94747 82.8027 8.94747H80.038C79.8131 8.94747 79.6309 8.74718 79.6309 8.5001Z" fill="#000229"/>
</svg>
