<svg width="146" height="170" viewBox="0 0 146 170" fill="none" xmlns="http://www.w3.org/2000/svg">
<path d="M137.79 137.779L113.455 151.21L109.158 143.103L109.23 142.981L118.806 137.889H118.985C119.344 137.779 120.541 137.718 122.157 137.572C125.42 137.368 128.642 136.715 131.733 135.63C133.576 134.886 135.659 134.788 136.964 136.302C137.331 136.73 137.612 137.228 137.79 137.767V137.779Z" fill="#CAD7E4"/>
<path d="M94.2938 153.156C94.6648 153.247 95.7419 153.806 97.238 154.456C100.203 155.96 103.344 157.014 106.573 157.59C108.536 157.837 110.427 158.825 110.87 160.918C110.974 161.511 110.974 162.119 110.87 162.712C110.875 162.755 110.875 162.799 110.87 162.842H83.2109V153H93.9826H94.198L94.2938 153.156Z" fill="#CAD7E4"/>
<path fill-rule="evenodd" clip-rule="evenodd" d="M83.2109 153.895H94.5667L94.7069 154.088C94.9407 154.161 95.2539 154.283 95.6004 154.418C95.6753 154.447 95.7531 154.478 95.8338 154.51C96.2788 154.684 96.8115 154.894 97.4166 155.116L97.4296 155.121L97.4422 155.126C100.257 156.335 103.238 157.182 106.303 157.646C108.259 157.857 110.362 158.718 110.86 160.713L110.862 160.721L110.864 160.73C110.972 161.251 110.976 161.785 110.876 162.306C110.877 162.35 110.875 162.394 110.87 162.438L110.819 162.842H83.2109V153.895ZM84.2034 154.808V161.929H109.932C109.973 161.59 109.959 161.246 109.891 160.909C109.532 159.496 107.999 158.745 106.177 158.551L106.165 158.55L106.153 158.548C103 158.072 99.9316 157.201 97.0351 155.959C96.4238 155.734 95.8842 155.522 95.4424 155.348C95.3622 155.317 95.2853 155.287 95.2118 155.258C94.7034 155.059 94.4075 154.949 94.2841 154.924L94.0906 154.884L94.0355 154.808H84.2034Z" fill="#000229"/>
<path d="M61.8002 70.3048C62.1953 70.0103 62.5258 69.634 62.7702 69.2002C63.0147 68.7664 63.1677 68.2848 63.2193 67.7865C63.2313 67.5983 63.204 67.4098 63.1392 67.2333C63.0745 67.0569 62.9738 66.8966 62.8439 66.7633C62.7139 66.63 62.5578 66.5267 62.3858 66.4603C62.2139 66.3938 62.0301 66.3658 61.8467 66.3781C61.7909 66.5191 61.7165 66.6516 61.6257 66.772L61.7304 64.6117L61.963 60.2434C61.9828 60.1185 61.9778 59.9908 61.9484 59.8679C61.919 59.7451 61.8659 59.6295 61.7921 59.5282C61.7183 59.4268 61.6253 59.3418 61.5188 59.2781C61.4123 59.2143 61.2944 59.1733 61.1721 59.1573H60.8929L61.6141 54.0848H66.988L67.116 52.5093H60.2881L59.3226 59.1811H56.0657C56.024 58.5998 55.8206 58.0429 55.4794 57.5767C55.1383 57.1105 54.6739 56.7547 54.1414 56.5515C53.6089 56.3483 53.0307 56.3063 52.4756 56.4305C51.9205 56.5547 51.4118 56.8399 51.0101 57.2521C50.6084 57.6643 50.3305 58.1862 50.2094 58.7558C50.0884 59.3253 50.1293 59.9186 50.3274 60.465C50.5254 61.0114 50.8722 61.4879 51.3265 61.8379C51.7808 62.188 52.3235 62.3968 52.8902 62.4395L52.9832 64.2775L53.0763 66.1036H52.9018C52.1106 66.1848 51.3723 66.5482 50.8154 67.1305C50.2585 67.7128 49.9184 68.4771 49.8542 69.2903L49.9705 75.3296L49.6681 75.437C44.8219 77.1681 39.8355 78.4542 34.7676 79.2802C30.7662 79.8411 27.9048 79.6263 26.6253 78.5163C21.3793 74.0406 30.5801 46.852 34.9188 42.4717C37.4313 39.9176 42.5726 38.8195 48.8771 37.5663C49.0928 36.7376 49.6088 36.0247 50.3195 35.5731H50.3893C54.2486 34.7152 58.2376 34.6706 62.1143 35.4418L62.5446 35.597C62.9624 35.7408 63.3317 36.0033 63.6097 36.354C63.8877 36.7048 64.0629 37.1293 64.1149 37.5783C64.1149 37.5783 73.5252 38.6524 75.2002 40.6576C79.4807 45.8017 83.8427 51.0413 87.1229 54.6457C87.3555 54.8964 93.4972 49.0003 95.6374 43.2356H95.7072C95.7072 43.2356 98.0336 46.8162 102 46.1478C101.686 46.7923 91.1708 68.3116 86.1807 66.4378C81.9583 64.8385 77.3753 61.3056 72.5016 57.1044C70.6056 55.3977 78.2128 90.3442 78.3408 91.0603H73.3856L56.4612 91.1558H53.9138L33.5928 91.2632C33.6747 87.5202 34.009 83.7874 34.5931 80.0918C39.7127 78.8246 44.7607 77.2707 49.7146 75.437L50.0171 75.5325C51.2379 76.0889 52.5076 76.5245 53.8091 76.8334L53.9487 79.2205C53.9385 79.4546 54.016 79.6839 54.1652 79.8614C54.3144 80.0389 54.524 80.1512 54.7513 80.1753H60.3811C60.6083 80.1512 60.818 80.0389 60.9672 79.8614C61.1164 79.6839 61.1938 79.4546 61.1837 79.2205L61.3233 76.5709C62.5214 76.0934 63.2193 75.3773 63.2193 74.8283C63.2325 74.6576 63.2074 74.486 63.1459 74.3267C63.0845 74.1675 62.9883 74.0248 62.8648 73.9096C62.7413 73.7943 62.5937 73.7097 62.4334 73.662C62.273 73.6144 62.1042 73.6051 61.9398 73.6348H61.8816H61.9747C62.315 73.426 62.6042 73.1399 62.82 72.7985C63.0357 72.4571 63.1723 72.0695 63.2193 71.6654C63.2333 71.4868 63.2079 71.3071 63.145 71.1399C63.0821 70.9726 62.9833 70.822 62.8559 70.6993C62.7285 70.5767 62.5758 70.485 62.4092 70.4312C62.2425 70.3773 62.0662 70.3627 61.8933 70.3884L61.8002 70.3048Z" fill="#CAD7E4"/>
<path fill-rule="evenodd" clip-rule="evenodd" d="M110.053 144.947H93.9473V144.053H110.053V144.947Z" fill="#000229"/>
<path fill-rule="evenodd" clip-rule="evenodd" d="M8.05273 144.053H81.5652V145.081H9.05528V153.761H136.787V145.081H130.224V144.053H137.79V154.79H8.05273V144.053Z" fill="#000229"/>
<path d="M55.4738 144.053H8.05273V153.895H55.4738V144.053Z" fill="#000229"/>
<path fill-rule="evenodd" clip-rule="evenodd" d="M0 117.21H75.3301V118.219H1.00815V168.991H144.834V118.219H111.495V117.21H145.842V170H0V117.21Z" fill="#000229"/>
<path fill-rule="evenodd" clip-rule="evenodd" d="M19.6842 121.921C18.8267 121.921 18.1316 122.616 18.1316 123.474C18.1316 124.331 18.8267 125.026 19.6842 125.026C20.5417 125.026 21.2368 124.331 21.2368 123.474C21.2368 122.616 20.5417 121.921 19.6842 121.921ZM17 123.474C17 121.991 18.2018 120.79 19.6842 120.79C21.1667 120.79 22.3684 121.991 22.3684 123.474C22.3684 124.956 21.1667 126.158 19.6842 126.158C18.2018 126.158 17 124.956 17 123.474Z" fill="#000229"/>
<path fill-rule="evenodd" clip-rule="evenodd" d="M12.526 121.921C11.6685 121.921 10.9734 122.616 10.9734 123.474C10.9734 124.331 11.6685 125.026 12.526 125.026C13.3835 125.026 14.0786 124.331 14.0786 123.474C14.0786 122.616 13.3835 121.921 12.526 121.921ZM9.8418 123.474C9.8418 121.991 11.0436 120.79 12.526 120.79C14.0085 120.79 15.2102 121.991 15.2102 123.474C15.2102 124.956 14.0085 126.158 12.526 126.158C11.0436 126.158 9.8418 124.956 9.8418 123.474Z" fill="#000229"/>
<path fill-rule="evenodd" clip-rule="evenodd" d="M5.3678 121.921C4.51031 121.921 3.81517 122.616 3.81517 123.474C3.81517 124.331 4.51031 125.026 5.3678 125.026C6.2253 125.026 6.92044 124.331 6.92044 123.474C6.92044 122.616 6.2253 121.921 5.3678 121.921ZM2.68359 123.474C2.68359 121.991 3.88536 120.79 5.3678 120.79C6.85025 120.79 8.05201 121.991 8.05201 123.474C8.05201 124.956 6.85025 126.158 5.3678 126.158C3.88536 126.158 2.68359 124.956 2.68359 123.474Z" fill="#000229"/>
<path fill-rule="evenodd" clip-rule="evenodd" d="M117.691 22.3823C117.979 22.4481 118.158 22.7296 118.091 23.0111C117.645 24.875 114.483 40.0326 113.797 43.4201C113.74 43.7037 113.458 43.8881 113.168 43.832C112.878 43.7759 112.689 43.5006 112.747 43.217C113.431 39.8362 116.597 24.6583 117.048 22.7728C117.115 22.4913 117.403 22.3165 117.691 22.3823Z" fill="#000229"/>
<path fill-rule="evenodd" clip-rule="evenodd" d="M105.966 41.4425C107.232 41.1132 108.549 41.0692 109.831 41.3134C111.114 41.5576 112.333 42.0846 113.408 42.8598C113.641 43.0276 113.701 43.3624 113.542 43.6078C113.382 43.8531 113.065 43.9159 112.832 43.7482C111.875 43.0586 110.79 42.5898 109.649 42.3725C108.509 42.1552 107.337 42.1944 106.211 42.4874C105.938 42.5586 105.661 42.3825 105.593 42.094C105.526 41.8055 105.693 41.5138 105.966 41.4425Z" fill="#000229"/>
<path fill-rule="evenodd" clip-rule="evenodd" d="M87.8431 22.2088C87.8401 22.3053 87.8365 22.4222 87.8322 22.558C87.8185 22.9916 87.7985 23.6177 87.7728 24.3878C87.7216 25.9281 87.648 28.0448 87.5588 30.3505C87.3981 34.5073 87.1863 39.2902 86.9626 42.414C87.0383 42.3748 87.1189 42.3339 87.204 42.2917C87.8754 41.9583 88.8338 41.5367 89.9868 41.1816C92.2863 40.4734 95.3999 40.0176 98.5569 41.1018C98.8183 41.1916 98.9604 41.4853 98.8743 41.7578C98.7881 42.0303 98.5063 42.1784 98.2449 42.0886C95.3516 41.0949 92.4612 41.5029 90.2693 42.178C89.1765 42.5145 88.2674 42.9144 87.6327 43.2296C87.3156 43.3871 87.0678 43.523 86.9006 43.6187C86.8171 43.6665 86.7537 43.7043 86.712 43.7296C86.6912 43.7422 86.6757 43.7517 86.6659 43.7579L86.6554 43.7645L86.6534 43.7657C86.493 43.868 86.2909 43.8677 86.131 43.7648C85.971 43.6617 85.8803 43.4736 85.8964 43.2783C86.1444 40.2718 86.3846 34.9197 86.5629 30.3086C86.6519 28.0054 86.7254 25.8907 86.7766 24.3518C86.8023 23.5823 86.8223 22.9569 86.8359 22.5239C86.8428 22.3074 86.848 22.1389 86.8515 22.0247L86.8568 21.8506C86.8568 21.8505 86.8568 21.8505 87.355 21.8667L86.8568 21.8506C86.8628 21.6528 86.976 21.4756 87.1489 21.3937C92.137 19.0328 96.1023 19.4635 98.9125 20.6178C101.093 21.5133 102.555 22.834 103.254 23.5716C104.756 21.583 107.399 20.5776 110.044 20.3865C112.948 20.1768 116.04 20.9319 117.935 22.6597C118.142 22.8487 118.163 23.1769 117.982 23.3928C117.8 23.6087 117.486 23.6306 117.278 23.4416C115.649 21.9559 112.854 21.225 110.113 21.423C107.366 21.6214 104.861 22.7359 103.706 24.7104C103.59 24.9092 103.361 25.0031 103.146 24.9402C102.977 24.8909 102.85 24.7547 102.802 24.5861C102.358 24.0692 100.912 22.5558 98.547 21.5844C96.0332 20.5519 92.4441 20.1153 87.8431 22.2088Z" fill="#000229"/>
<path fill-rule="evenodd" clip-rule="evenodd" d="M53.8981 58.158H59.0522V59.2252H53.9585C53.9173 59.2348 53.8776 59.253 53.8412 59.2789C53.7984 59.3095 53.7609 59.3503 53.7309 59.3989C53.701 59.4475 53.6793 59.503 53.6669 59.5621C53.6546 59.6213 53.652 59.6828 53.6592 59.7432L53.6621 59.7673L53.764 62.0517L53.9257 65.8752V67.1053H53.0595V65.9031L52.899 62.1087L52.899 62.1071L52.7993 59.8718C52.7791 59.6797 52.7889 59.4845 52.828 59.2967C52.8689 59.1002 52.9413 58.9157 53.0408 58.7541C53.1402 58.5924 53.2649 58.4568 53.4074 58.3552C53.5499 58.2536 53.7074 58.188 53.8707 58.1623L53.8981 58.158Z" fill="#000229"/>
<path fill-rule="evenodd" clip-rule="evenodd" d="M60.8418 58.158H61.3448L61.3766 58.162C61.5678 58.1864 61.7521 58.2491 61.9185 58.3463C62.085 58.4434 62.2302 58.5732 62.3456 58.7278C62.4609 58.8823 62.544 59.0585 62.5899 59.246C62.6335 59.4237 62.6427 59.6081 62.6172 59.7891L62.3831 64.0795L62.2773 66.2106L61.2662 66.1602L61.3723 64.0242L61.6092 59.683L61.6135 59.6565C61.6226 59.6002 61.6203 59.5428 61.6067 59.4875C61.5932 59.4322 61.5686 59.3802 61.5346 59.3346C61.5006 59.289 61.4577 59.2507 61.4086 59.222C61.367 59.1977 61.3215 59.1807 61.2743 59.1717H60.8418V58.158Z" fill="#000229"/>
<path fill-rule="evenodd" clip-rule="evenodd" d="M61.7362 76.0527V76.1565L61.6046 78.9688C61.6127 79.347 61.4988 79.7156 61.2845 80.0026C61.0646 80.2971 60.7556 80.4835 60.4207 80.5235L60.3964 80.5264H55.0226L54.9983 80.5235C54.6634 80.4835 54.3543 80.2971 54.1344 80.0026C53.9205 79.716 53.8066 79.3482 53.8143 78.9706L53.6836 76.454L54.6281 76.3886L54.7616 78.9589L54.7605 78.9874C54.7563 79.0975 54.7886 79.2053 54.8509 79.2887C54.909 79.3665 54.9889 79.4176 55.0763 79.4334H60.3426C60.43 79.4176 60.51 79.3665 60.5681 79.2887C60.6304 79.2053 60.6627 79.0975 60.6585 78.9874L60.6575 78.9605L60.7901 76.1269V76.0527H61.7362Z" fill="#000229"/>
<path fill-rule="evenodd" clip-rule="evenodd" d="M61.6524 65.9249L62.6312 63.5264V66.1154H62.1231L62.5938 66.3058C62.5196 66.4875 62.4209 66.6583 62.3004 66.8134L62.2969 66.8179L62.2933 66.8223C61.8594 67.3552 61.1151 67.8011 60.2915 68.1361C59.4537 68.477 58.4724 68.7281 57.5038 68.8361C56.5399 68.9436 55.5546 68.9133 54.7231 68.6623C53.8874 68.4102 53.1516 67.9143 52.8228 67.0615L52.7891 66.9739V66.786H53.5433L53.7714 66.6988C53.9507 67.1638 54.3669 67.4975 55.0177 67.6939C55.6727 67.8916 56.5084 67.9289 57.3907 67.8305C58.2682 67.7326 59.1581 67.5042 59.9072 67.1994C60.6673 66.8902 61.224 66.526 61.5003 66.1895C61.5627 66.1085 61.6138 66.0195 61.6524 65.9249Z" fill="#000229"/>
<path fill-rule="evenodd" clip-rule="evenodd" d="M61.9636 66.3694C61.8531 66.3309 61.7354 66.3165 61.6187 66.3272C61.3371 66.3529 61.0877 66.149 61.0616 65.8718C61.0354 65.5946 61.2425 65.3491 61.5241 65.3234C61.7885 65.2992 62.055 65.3319 62.3053 65.4191C62.5556 65.5063 62.7837 65.646 62.9738 65.8285C63.1639 66.011 63.3114 66.2319 63.4063 66.476C63.5011 66.7201 63.541 66.9816 63.5231 67.2424L63.5225 67.2508L63.5217 67.2591C63.4645 67.8165 63.2896 68.3559 63.0083 68.8429C62.7278 69.3285 62.3475 69.7512 61.8918 70.0841C61.0485 70.7219 60.0743 71.1716 59.0368 71.4019C57.9978 71.6326 56.9202 71.6378 55.879 71.417C55.6025 71.3584 55.4267 71.0903 55.4862 70.8182C55.5457 70.5461 55.8181 70.3729 56.0945 70.4315C56.9904 70.6214 57.9175 70.617 58.8115 70.4185C59.7054 70.2201 60.5448 69.8323 61.2711 69.2823L61.2749 69.2794L61.2787 69.2766C61.6214 69.0269 61.9073 68.7094 62.1181 68.3446C62.3274 67.9823 62.4581 67.5813 62.5018 67.1668C62.5085 67.0543 62.4907 66.9415 62.4498 66.8361C62.4079 66.7283 62.3427 66.6308 62.2588 66.5502C62.1749 66.4696 62.0742 66.4079 61.9636 66.3694Z" fill="#000229"/>
<path fill-rule="evenodd" clip-rule="evenodd" d="M61.9987 70.837C61.8984 70.8076 61.7926 70.801 61.6893 70.8178C61.4066 70.8639 61.1394 70.6761 61.0926 70.3984C61.0457 70.1208 61.2369 69.8584 61.5196 69.8124C61.7787 69.7702 62.0442 69.7867 62.2958 69.8605C62.5475 69.9344 62.7786 70.0637 62.9717 70.2386C63.1647 70.4135 63.3145 70.6293 63.4098 70.8697C63.505 71.1101 63.5431 71.3687 63.5212 71.6257L63.5202 71.6375L63.5187 71.6493C63.4543 72.1329 63.2764 72.5954 62.9992 73.0001C62.722 73.4048 62.3529 73.7409 61.921 73.9818L61.8018 74.0482H61.7077C59.9495 75.0297 57.8951 75.3759 55.9017 75.0238C55.6197 74.974 55.4322 74.7091 55.4829 74.4321C55.5336 74.1551 55.8033 73.9709 56.0854 74.0207C57.8812 74.3379 59.7333 74.0111 61.3044 73.0998L61.4265 73.029H61.5198C61.7644 72.8729 61.9749 72.6697 62.1382 72.4312C62.3234 72.1609 62.443 71.8525 62.488 71.5299C62.4948 71.431 62.4793 71.3318 62.4427 71.2393C62.4047 71.1435 62.345 71.0574 62.2681 70.9877C62.1911 70.918 62.099 70.8665 61.9987 70.837Z" fill="#000229"/>
<path fill-rule="evenodd" clip-rule="evenodd" d="M62.1705 73.6597C62.0906 73.6325 62.0068 73.6274 61.9251 73.6448L61.8851 73.6533H61.7895C61.5285 73.6533 61.3169 73.3934 61.3169 73.0727C61.3169 72.7521 61.5285 72.4922 61.7895 72.4922H61.8077C62.0132 72.4562 62.2227 72.4727 62.4231 72.5409C62.6377 72.614 62.8364 72.7446 63.0049 72.9234C63.1735 73.1022 63.3076 73.3247 63.3977 73.5748C63.4871 73.8228 63.5309 74.0918 63.5262 74.3629C63.5238 74.916 63.2639 75.4225 62.9185 75.8313C62.562 76.2534 62.0598 76.6396 61.4446 76.9562L61.433 76.9622L61.421 76.9675C59.0486 78.0092 56.4718 78.1232 54.0446 77.294C52.7892 76.9364 51.5642 76.4329 50.3864 75.7903C50.1478 75.6602 50.0403 75.3172 50.1463 75.0242C50.2522 74.7311 50.5315 74.5991 50.7701 74.7293C51.8962 75.3436 53.0675 75.8246 54.268 76.1658L54.2783 76.1687L54.2885 76.1722C56.5263 76.9393 58.9024 76.8369 61.0908 75.8795C61.6238 75.6035 62.0136 75.2901 62.2626 74.9954C62.5229 74.6872 62.5809 74.4607 62.5809 74.3553V74.3479L62.5811 74.3406C62.5832 74.2388 62.5669 74.1377 62.5333 74.0446C62.4998 73.9515 62.4498 73.8686 62.3871 73.8021C62.3243 73.7355 62.2504 73.6869 62.1705 73.6597Z" fill="#000229"/>
<path fill-rule="evenodd" clip-rule="evenodd" d="M54.5454 63.8443C54.252 63.7784 53.8983 63.8073 53.4245 64.0454C53.1859 64.1653 52.916 64.0164 52.8217 63.7128C52.7274 63.4092 52.8445 63.0659 53.0831 62.946C53.6899 62.6412 54.2182 62.5705 54.707 62.6803C55.1876 62.7882 55.5901 63.0625 55.9504 63.3581C56.1198 63.497 56.2799 63.6387 56.4374 63.7782C56.9749 64.2541 57.483 64.704 58.2275 64.9253C58.6285 65.0316 59.0403 65.056 59.4474 64.9976L59.4734 64.9938H59.5933C59.8569 64.9047 60.1031 64.7467 60.3163 64.5298C60.543 64.2991 60.7267 64.0075 60.8543 63.6758C60.9671 63.3826 61.2454 63.2612 61.4759 63.4046C61.7064 63.5481 61.8018 63.9021 61.689 64.1953C61.5012 64.6837 61.2306 65.1131 60.8968 65.4527C60.5631 65.7924 60.1743 66.0339 59.7584 66.1598L59.7054 66.1759H59.525C59.0265 66.2438 58.5226 66.2118 58.0318 66.0808L58.0269 66.0795L58.0221 66.078C57.0826 65.8004 56.3903 65.1835 55.8368 64.6903C55.6987 64.5672 55.5693 64.4519 55.4468 64.3515C55.1264 64.0887 54.8468 63.912 54.5454 63.8443Z" fill="#000229"/>
<path fill-rule="evenodd" clip-rule="evenodd" d="M59.389 52.3274C59.4289 52.0788 59.6599 51.8948 59.932 51.8948H67.4515C67.6051 51.8948 67.7516 51.9542 67.8555 52.0585C67.9595 52.1629 68.0114 52.3026 67.9986 52.4439L67.8582 54.0005C67.8345 54.2625 67.5981 54.4643 67.3135 54.4655L61.8879 54.4872L61.1646 59.0669L60.105 65.7766C60.0612 66.0537 59.7825 66.2456 59.4825 66.2052C59.1825 66.1648 58.9748 65.9074 59.0185 65.6302L60.0782 58.9205L60.8697 53.9088C60.9089 53.6605 61.1389 53.476 61.4105 53.4749L66.8058 53.4534L66.8549 52.9089H60.4055L58.3557 65.6367C58.311 65.9137 58.0317 66.1047 57.7318 66.0635C57.4319 66.0222 57.2251 65.7642 57.2697 65.4872L59.389 52.3274Z" fill="#000229"/>
<path fill-rule="evenodd" clip-rule="evenodd" d="M54.0181 56.6675C53.6177 56.4973 53.1829 56.4622 52.7655 56.5662C52.3481 56.6702 51.9656 56.909 51.6635 57.2543C51.3614 57.5995 51.1525 58.0366 51.0615 58.5137C50.9704 58.9907 51.0012 59.4875 51.1501 59.9452C51.299 60.4028 51.5598 60.8019 51.9014 61.0951C52.2388 61.3846 52.6411 61.5588 53.0614 61.5975H53.244V62.6315H53.0441C53.033 62.6315 53.022 62.6311 53.0109 62.6301C52.412 62.5798 51.8384 62.3341 51.3582 61.922C50.8779 61.5099 50.5114 60.9488 50.3021 60.3056C50.0928 59.6623 50.0495 58.9639 50.1774 58.2934C50.3054 57.6228 50.5991 57.0084 51.0237 56.5231C51.4484 56.0378 51.986 55.7021 52.5727 55.5559C53.1595 55.4097 53.7706 55.4591 54.3334 55.6983C54.8963 55.9375 55.3872 56.3565 55.7478 56.9053C56.1083 57.4541 56.3234 58.1097 56.3674 58.7941C56.3682 58.8068 56.3686 58.8194 56.3686 58.832V59.0485H55.4638V58.8519C55.43 58.3715 55.2776 57.9118 55.0242 57.5262C54.7677 57.1357 54.4185 56.8377 54.0181 56.6675Z" fill="#000229"/>
<path fill-rule="evenodd" clip-rule="evenodd" d="M54.5781 90.3684H56.3676V91.2631H54.5781V90.3684Z" fill="#000229"/>
<path fill-rule="evenodd" clip-rule="evenodd" d="M54.7553 2.54014C53.6109 3.99847 52.8632 5.71593 52.5821 7.53252L52.58 7.54657L52.577 7.56047C52.3707 8.51933 52.2224 9.46907 52.088 10.3299C52.0626 10.4923 52.0378 10.6516 52.0131 10.8072C51.9701 11.0786 51.7097 11.2645 51.4317 11.2225C51.1536 11.1805 50.963 10.9265 51.0061 10.655C51.0301 10.5035 51.0545 10.347 51.0796 10.1863C51.2132 9.3299 51.3656 8.35376 51.5767 7.36989C51.8864 5.38455 52.7068 3.50818 53.9613 1.91624L53.9751 1.8988L53.9904 1.88261C55.4589 0.325778 57.0387 -0.204993 58.615 0.0688422C60.1456 0.334733 61.5715 1.3433 62.8167 2.64122C63.5374 3.37953 64.1961 4.17327 64.7863 5.01475L64.7886 5.018L64.7886 5.01801C66.547 7.56816 67.8886 10.3696 68.7654 13.3219L68.7688 13.3333L68.7716 13.3447C69.0496 14.4793 68.8305 15.895 68.3782 17.3327C67.9211 18.7859 67.2035 20.3302 66.4086 21.7559C65.6131 23.1825 64.7322 24.5048 63.94 25.5144C63.5443 26.0187 63.1652 26.4521 62.8249 26.7836C62.5027 27.0975 62.1654 27.3706 61.8506 27.4887C61.6227 27.5784 61.3849 27.6421 61.142 27.6786C59.7427 27.9142 58.2331 27.4097 56.9758 26.6184C55.7118 25.8228 54.6163 24.6843 54.0581 23.5251C53.9384 23.2765 54.0479 22.9803 54.3025 22.8635C54.5572 22.7467 54.8607 22.8535 54.9804 23.1021C55.4412 24.0592 56.3897 25.066 57.5281 25.7825C58.6716 26.5022 59.9207 26.8764 60.9727 26.6979L60.9779 26.697L60.9832 26.6962C61.1512 26.6712 61.3156 26.6272 61.4731 26.5649L61.4784 26.5628L61.4839 26.5608C61.5821 26.5245 61.791 26.3856 62.105 26.0797C62.4031 25.7893 62.7522 25.3924 63.131 24.9097C63.8877 23.9453 64.7404 22.6669 65.5135 21.2805C66.2871 19.893 66.9729 18.4116 67.4041 17.0408C67.8383 15.6605 67.9929 14.4581 67.7832 13.5871C66.9359 10.7387 65.6409 8.03577 63.9443 5.57493C63.3848 4.77753 62.7606 4.02538 62.0774 3.32577L62.0743 3.32255L62.0743 3.32254C60.8908 2.08856 59.6513 1.25907 58.4364 1.04802C57.2713 0.845618 56.0304 1.19595 54.7553 2.54014Z" fill="#000229"/>
<path fill-rule="evenodd" clip-rule="evenodd" d="M51.3387 29.872C51.3403 31.8049 51.3419 33.7657 51.3003 35.7894L50.1055 35.7723C50.1463 33.7871 50.1448 31.8474 50.1432 29.9252C50.1395 25.3458 50.1359 20.8654 50.7059 16.1052L51.8949 16.2045C51.3313 20.9125 51.3349 25.3149 51.3387 29.872Z" fill="#000229"/>
<path fill-rule="evenodd" clip-rule="evenodd" d="M60.013 27.3526L59.9473 27.0843L60.8974 26.842L60.9683 27.1314L60.9704 27.142C61.1518 28.0479 61.2873 29.0325 61.4221 30.0116C61.4881 30.4917 61.554 30.9703 61.625 31.4377C61.8447 32.8836 62.1167 34.2521 62.5928 35.4001L62.6315 35.4934V35.7226H61.8457L61.6909 35.7894C61.6816 35.7672 61.6725 35.7449 61.6634 35.7226H61.6522V35.6947C61.1507 34.448 60.8733 33.013 60.6573 31.5907C60.5813 31.0908 60.5132 30.5954 60.4462 30.1077C60.3148 29.1521 60.1875 28.2259 60.013 27.3526Z" fill="#000229"/>
<path fill-rule="evenodd" clip-rule="evenodd" d="M49.9123 9.95195C50.7134 9.68796 51.5754 9.89663 52.4051 10.6094L52.4059 10.6101C52.8637 11.0049 53.2644 11.46 53.5969 11.9625C53.7602 12.2095 53.6901 12.5405 53.4401 12.7019C53.1901 12.8634 52.8551 12.794 52.6917 12.5471C52.4135 12.1265 52.0781 11.7457 51.6951 11.4152C51.0789 10.886 50.6066 10.8494 50.2545 10.9654C49.8572 11.0964 49.4589 11.471 49.1305 12.0443C48.808 12.6072 48.5941 13.293 48.5263 13.9219C48.4581 14.5542 48.5475 15.0237 48.7051 15.2669C48.9653 15.5473 49.2996 15.7509 49.6706 15.8544C50.0525 15.9609 50.4573 15.9571 50.837 15.8432L50.9138 15.8202H51.2566C51.4289 15.7765 51.595 15.7113 51.7508 15.6261C52.0121 15.4833 52.3411 15.5767 52.4857 15.8349C52.6303 16.093 52.5356 16.4181 52.2744 16.5609C52.0129 16.7038 51.7325 16.8096 51.4412 16.8752L51.3818 16.8886H51.0705C50.5164 17.0389 49.9307 17.0371 49.3768 16.8826C48.7958 16.7205 48.2741 16.3972 47.8735 15.9511L47.853 15.9282L47.8352 15.9032C47.4429 15.3501 47.3709 14.5515 47.451 13.8087C47.5336 13.042 47.7904 12.2145 48.1894 11.518C48.5824 10.8319 49.1563 10.2011 49.9123 9.95195Z" fill="#000229"/>
<path fill-rule="evenodd" clip-rule="evenodd" d="M71.5412 0.00880389C72.2093 0.0501569 72.893 0.254603 73.1978 0.875209C73.4215 1.32987 73.4173 1.79112 73.23 2.21493C73.0533 2.61488 72.7271 2.95368 72.3532 3.23965C71.6052 3.81176 70.509 4.28954 69.4038 4.67108C68.2875 5.05645 67.116 5.35895 66.185 5.56505C65.7189 5.66823 65.3101 5.74792 64.9953 5.80211C64.7002 5.85289 64.4443 5.88928 64.3137 5.88928V4.88883C64.3104 4.88883 64.3204 4.88882 64.3508 4.88595C64.3785 4.88334 64.4154 4.8791 64.4619 4.87294C64.5548 4.86062 64.6775 4.84172 64.8264 4.81609C65.1239 4.7649 65.5171 4.68836 65.9698 4.58814C66.8764 4.38745 68.0091 4.09448 69.0788 3.72516C70.1597 3.352 71.1313 2.91586 71.7479 2.44427C72.0563 2.20838 72.2366 1.99289 72.3175 1.80978C72.3879 1.65052 72.3924 1.49994 72.3028 1.3177L72.3026 1.31731C72.2476 1.20533 72.0625 1.04342 71.4797 1.00735C70.924 0.972954 70.1612 1.06687 69.2327 1.2749C67.384 1.68908 65.0147 2.52323 62.6185 3.48058C58.8676 4.97692 55.113 6.74127 53.3286 7.57981C52.9574 7.75423 52.6715 7.8886 52.4885 7.97218L52.3166 8.05263L51.8945 7.14604L52.0727 7.06268C52.2485 6.9824 52.5277 6.8512 52.8926 6.6797C54.6661 5.84617 58.4637 4.06129 62.249 2.55123C64.6571 1.58914 67.0863 0.73067 69.015 0.298546C69.9751 0.0834254 70.8457 -0.034237 71.5412 0.00880389Z" fill="#000229"/>
<path fill-rule="evenodd" clip-rule="evenodd" d="M65.6447 14.848C64.8522 14.5994 64.0238 14.7077 63.2781 15.1575C63.043 15.2992 62.7703 15.1477 62.6689 14.819C62.5675 14.4903 62.6759 14.1089 62.9109 13.9671C63.8363 13.409 64.8643 13.2746 65.8477 13.5832C66.0975 13.6616 66.2545 14.0083 66.1985 14.3575C66.1424 14.7068 65.8945 14.9264 65.6447 14.848Z" fill="#000229"/>
<path fill-rule="evenodd" clip-rule="evenodd" d="M58.0986 13.4279C58.6815 13.3817 59.2604 13.5725 59.744 13.97C59.9565 14.1447 60.012 14.4954 59.868 14.7532C59.7239 15.011 59.4348 15.0784 59.2223 14.9036C58.9099 14.6468 58.5358 14.5236 58.1592 14.5534C57.7826 14.5832 57.425 14.7644 57.1428 15.0684C56.9508 15.2752 56.6569 15.254 56.4864 15.0211C56.3159 14.7882 56.3334 14.4318 56.5254 14.225C56.9622 13.7545 57.5157 13.4741 58.0986 13.4279Z" fill="#000229"/>
<path fill-rule="evenodd" clip-rule="evenodd" d="M51.7802 12.709C51.9509 12.9294 51.929 13.2622 51.7312 13.4524C51.1632 13.9986 50.4407 14.3043 49.6905 14.3158C49.4293 14.3198 49.2146 14.0871 49.211 13.7961C49.2074 13.505 49.4162 13.2658 49.6775 13.2618C50.2052 13.2537 50.7135 13.0387 51.113 12.6544C51.3108 12.4643 51.6095 12.4887 51.7802 12.709Z" fill="#000229"/>
<path fill-rule="evenodd" clip-rule="evenodd" d="M62.8454 14.3567C63.1182 14.4609 63.2388 14.7312 63.1148 14.9605C62.8648 15.4228 62.8463 16.0734 62.9574 16.8202C63.0345 17.339 63.163 17.8477 63.2834 18.3245C63.3359 18.5321 63.3867 18.7335 63.4312 18.9271L63.4339 18.9389L63.4358 18.9507C63.471 19.163 63.5132 19.4411 63.5236 19.727C63.5338 20.0078 63.5152 20.3294 63.4065 20.6193C63.2955 20.9154 63.0696 21.2265 62.6342 21.3811C62.2158 21.5298 61.7256 21.4893 61.2005 21.3301C60.9186 21.2447 60.7725 20.9834 60.8741 20.7465C60.9757 20.5096 61.2866 20.3868 61.5685 20.4722C61.9706 20.5941 62.1507 20.5628 62.2118 20.5411C62.2558 20.5255 62.3186 20.4866 62.3716 20.3452C62.4269 20.1978 62.4477 19.9944 62.439 19.7549C62.4307 19.525 62.3967 19.292 62.3631 19.0883C62.3262 18.9283 62.2811 18.7495 62.2327 18.558C62.1089 18.0672 61.9638 17.4923 61.8807 16.9333C61.7647 16.1531 61.7462 15.2873 62.127 14.5831C62.251 14.3538 62.5726 14.2524 62.8454 14.3567Z" fill="#000229"/>
<path fill-rule="evenodd" clip-rule="evenodd" d="M83.1521 95.6241C89.0208 99.0229 91.9498 103.983 92.6449 110.192L92.1495 110.248L92.6449 110.192C92.6449 110.192 92.6449 110.192 92.6449 110.192C92.8207 111.762 92.9488 113.725 93.0534 116.274L92.0571 116.316C91.953 113.775 91.826 111.84 91.6541 110.304C90.9927 104.396 88.235 99.726 82.655 96.4943C77.0408 93.2429 68.5377 91.4305 56.3691 91.3723L56.3739 90.3684C68.61 90.4269 77.3176 92.245 83.1521 95.6241Z" fill="#000229"/>
<path fill-rule="evenodd" clip-rule="evenodd" d="M93.1556 120.122C93.155 119.074 93.1143 118.093 93.0769 117.193C93.0644 116.891 93.0522 116.599 93.0421 116.316L92.1582 116.357C92.1688 116.652 92.1812 116.952 92.1939 117.259C92.2314 118.161 92.271 119.116 92.271 120.147V120.172L92.2732 120.197C92.3323 120.871 92.3327 121.573 92.3327 122.352V122.358L92.3329 122.365C92.4048 125.435 92.4871 129.103 92.5796 133.509V134.295L92.5797 134.302C92.5891 134.703 92.5986 135.109 92.6082 135.521C92.7254 140.553 92.8635 146.483 93.063 153.504V153.895H93.9477V153.488L93.9474 153.48C93.7478 146.458 93.6097 140.528 93.4925 135.494C93.4829 135.084 93.4735 134.68 93.4642 134.282V133.497L93.4641 133.491C93.3716 129.085 93.2893 125.416 93.2173 122.345V122.338C93.2173 121.583 93.2173 120.843 93.1556 120.122Z" fill="#000229"/>
<path fill-rule="evenodd" clip-rule="evenodd" d="M35.1454 79.7623C35.1815 79.5502 35.2151 79.3638 35.2421 79.2144C35.2729 79.0436 35.295 78.9211 35.3022 78.8634L34.2932 78.7368C34.2885 78.7746 34.2748 78.8501 34.2526 78.9717C34.227 79.1123 34.1901 79.3147 34.1428 79.5922L34.1423 79.5956C33.5386 83.2924 33.1966 87.0276 33.1189 90.773L33.1189 90.7739C33.0121 96.4317 33.5068 103.167 35.9173 108.622L35.9178 108.623C37.1779 111.454 38.9123 113.962 41.32 115.793C43.7327 117.629 46.7922 118.763 50.6596 118.891L50.6679 118.891H74.8852C74.932 119.057 74.9869 119.251 75.047 119.464C75.2339 120.126 75.4706 120.964 75.6663 121.641C75.6666 121.642 75.6668 121.643 75.6671 121.644L75.9039 122.502L75.9615 122.579C75.9544 122.569 75.9475 122.558 75.9419 122.545C75.9403 122.541 75.9389 122.537 75.9377 122.534H76.9475C76.9475 122.531 76.9475 122.528 76.9475 122.525C76.9478 122.452 76.9484 122.264 76.8383 122.065L76.6445 121.362L76.6436 121.359C76.4456 120.675 76.2166 119.864 76.0325 119.211C75.9166 118.801 75.8185 118.453 75.7571 118.24L75.6509 117.871H50.6847C47.0129 117.748 44.1633 116.676 41.9342 114.98C39.6984 113.279 38.0573 110.928 36.8463 108.207C34.5279 102.96 34.0295 96.407 34.1355 90.7937C34.2122 87.0972 34.5497 83.4109 35.1454 79.7623Z" fill="#000229"/>
<path fill-rule="evenodd" clip-rule="evenodd" d="M76.8835 122.202L76.6718 121.439L75.6914 121.71L75.9056 122.482L75.9069 122.486C76.8872 125.789 78.0675 129.938 79.2477 134.818L79.2486 134.821C80.6302 140.352 82.0823 146.825 83.3335 154.122L83.4059 154.544H94.4809V153.528H84.2635C83.0238 146.374 81.5955 140.02 80.2361 134.577C79.0511 129.678 77.8664 125.514 76.8835 122.202Z" fill="#000229"/>
<path fill-rule="evenodd" clip-rule="evenodd" d="M73.4234 90.3684L74.9813 90.3684C81.5981 90.3713 86.6161 90.611 90.5008 91.1773C94.386 91.7435 97.1709 92.6408 99.3003 93.9806C101.439 95.3263 102.877 97.0933 104.109 99.3266C105.148 101.211 106.055 103.454 107.11 106.068C107.296 106.526 107.485 106.996 107.681 107.477C107.998 108.215 109.515 112.132 111.365 116.905L111.782 117.981L111.782 117.982L117.211 132.064L116.262 132.421L110.834 118.339L110.833 118.339L110.438 117.317C108.57 112.497 107.05 108.573 106.745 107.864L106.743 107.86L106.742 107.855C106.542 107.366 106.35 106.89 106.163 106.429C105.105 103.811 104.226 101.634 103.218 99.8063C102.041 97.6742 100.709 96.0554 98.7551 94.8262C96.7922 93.5912 94.163 92.7245 90.3526 92.1691C86.5418 91.6136 81.5826 91.3739 74.9813 91.371C74.9812 91.371 74.9814 91.371 74.9813 91.371H73.4234L56.2544 91.4642L56.2516 91.4642H53.726L33.1107 91.5691L33.1055 90.5666L53.726 90.4617L56.2516 90.4617L73.4234 90.3684Z" fill="#000229"/>
<path fill-rule="evenodd" clip-rule="evenodd" d="M96.855 124.716C94.7196 121.3 92.9676 118.375 92.1582 116.751L93.0938 116.316C93.8784 117.889 95.6043 120.775 97.7437 124.197C99.6861 127.298 101.943 130.819 104.103 134.131C106.146 137.264 108.299 140.44 109.874 142.738L118.588 138.251L117.091 134.592L117.09 134.589C117.022 134.415 116.95 134.234 116.876 134.047C116.702 133.607 116.515 133.133 116.328 132.649L117.301 132.298C117.486 132.778 117.671 133.246 117.844 133.684C117.918 133.872 117.99 134.054 118.059 134.229L119.895 138.715L109.53 144.053L109.269 143.673C107.674 141.349 105.389 137.985 103.224 134.666C101.061 131.35 98.8013 127.823 96.8552 124.716L96.855 124.716Z" fill="#000229"/>
<path fill-rule="evenodd" clip-rule="evenodd" d="M55.8082 20.6086C56.0679 20.5126 56.3523 20.6567 56.4433 20.9303C56.5352 21.2064 56.6859 21.4567 56.8838 21.6619C57.0817 21.8672 57.3215 22.022 57.585 22.1146C57.8484 22.2071 58.1284 22.2348 58.4036 22.1957C58.6788 22.1566 58.9419 22.0516 59.1726 21.8888C59.4013 21.7275 59.7109 21.7921 59.864 22.033C60.0171 22.274 59.9559 22.6001 59.7272 22.7614C59.37 23.0134 58.9629 23.1759 58.5369 23.2364C58.111 23.297 57.6775 23.254 57.2698 23.1108C56.862 22.9676 56.4908 22.728 56.1845 22.4102C55.8783 22.0925 55.6451 21.7052 55.5028 21.2778C55.4117 21.0042 55.5484 20.7046 55.8082 20.6086Z" fill="#000229"/>
<path fill-rule="evenodd" clip-rule="evenodd" d="M103.665 36.5566C103.663 36.5746 103.662 36.6374 103.687 36.7765C103.71 36.9108 103.748 37.0738 103.796 37.2772C103.801 37.2978 103.806 37.3187 103.811 37.34C103.904 37.728 104.022 38.2209 104.093 38.7724C104.245 39.9449 104.192 41.4168 103.276 42.9026L103.271 42.9113L103.018 43.2863C102.862 43.5188 102.548 43.5796 102.316 43.4221C102.085 43.2646 102.025 42.9485 102.181 42.7161L102.422 42.3583C103.171 41.1395 103.223 39.9307 103.091 38.9036C103.026 38.4072 102.92 37.9612 102.826 37.5684C102.822 37.5502 102.817 37.5322 102.813 37.5143C102.766 37.3163 102.72 37.1222 102.691 36.9512C102.662 36.7883 102.639 36.597 102.663 36.418L102.664 36.413C102.742 35.8763 102.947 35.4163 103.309 35.14C103.695 34.8457 104.163 34.8326 104.578 35.014C105.355 35.3539 105.987 36.36 106.235 37.7404C106.483 39.0175 106.538 40.3251 106.396 41.6185C106.358 42.7825 105.942 43.9022 105.211 44.8063C104.526 45.6534 103.601 46.2672 102.561 46.5676C102.01 47.6637 99.4599 52.6573 96.4154 57.3955C94.7465 59.9926 92.9134 62.5379 91.1665 64.3227C90.2944 65.2137 89.4217 65.9383 88.5813 66.3798C87.7428 66.8203 86.8694 67.012 86.0519 66.7111L86.0506 66.7106C81.8428 65.1483 77.3252 61.7814 72.5904 57.8095C72.591 57.8423 72.5919 57.8766 72.593 57.9124C72.6179 58.6699 72.7589 59.8648 72.9889 61.3775C73.4474 64.3927 74.2457 68.5844 75.1116 72.861C75.9771 77.1354 76.9085 81.4862 77.6317 84.8166C77.9646 86.3494 78.2549 87.6727 78.4743 88.6725C78.7291 89.834 78.8881 90.559 78.9069 90.6687L79.0085 91.2632H74.7295C74.4503 91.2632 74.224 91.0356 74.224 90.7548C74.224 90.474 74.4503 90.2464 74.7295 90.2464H77.7839C77.7217 89.9611 77.6391 89.5842 77.5389 89.1278L77.5047 88.9719C77.2845 87.9685 76.9878 86.6163 76.6441 85.0336C75.9204 81.7012 74.9879 77.3451 74.1211 73.0639C73.2547 68.785 72.4521 64.5727 71.9897 61.5312C71.7592 60.0155 71.6097 58.7688 71.5827 57.946C71.5698 57.5539 71.5807 57.1862 71.6606 56.9314C71.694 56.8245 71.7896 56.5681 72.0629 56.4618C72.3733 56.3411 72.6256 56.513 72.727 56.5985C77.6556 60.7631 82.2261 64.2066 86.4004 65.7566C86.8435 65.9193 87.4048 65.8507 88.1133 65.4785C88.8205 65.107 89.6079 64.4658 90.4461 63.6093C92.1198 61.8993 93.9086 59.4234 95.5663 56.8435C98.8773 51.6909 101.603 46.2224 101.76 45.907L101.865 45.695L102.095 45.6399C103.012 45.4194 103.831 44.901 104.426 44.1649C105.021 43.4288 105.359 42.516 105.386 41.5677L105.387 41.5468L105.389 41.5259C105.522 40.3275 105.473 39.1156 105.242 37.9322L105.242 37.9284L105.241 37.9247C105.018 36.6824 104.499 36.088 104.175 35.9465C104.039 35.8869 103.968 35.913 103.92 35.9502C103.848 36.0051 103.722 36.1679 103.665 36.5566ZM72.6247 57.2369C72.6301 57.2197 72.6313 57.2224 72.6247 57.2369C72.6247 57.237 72.6248 57.2368 72.6247 57.2369Z" fill="#000229"/>
<path fill-rule="evenodd" clip-rule="evenodd" d="M100.727 41.2317C101.075 41.3949 101.207 41.7767 101.023 42.0844C100.9 42.2893 100.763 42.4874 100.613 42.6776C100.388 42.9632 99.9439 43.0332 99.6212 42.8339C99.2986 42.6346 99.2195 42.2415 99.4446 41.9559C99.5616 41.8075 99.6683 41.6529 99.7641 41.4931C99.9485 41.1854 100.38 41.0684 100.727 41.2317Z" fill="#000229"/>
<path fill-rule="evenodd" clip-rule="evenodd" d="M100.9 34.1267C101.185 34.0164 101.499 33.977 101.808 34.0129L101.814 34.0135L101.819 34.0142C102.655 34.1247 103.243 34.7583 103.634 35.4218C104.044 36.1174 104.339 37.0123 104.509 37.943C104.681 38.8775 104.733 39.8779 104.637 40.796C104.542 41.7035 104.297 42.5826 103.827 43.2347L103.821 43.2432L103.815 43.2515C103.696 43.4031 103.564 43.5455 103.419 43.6773C103.181 43.8929 102.79 43.8976 102.546 43.6876C102.302 43.4777 102.296 43.1327 102.534 42.9171C102.628 42.8316 102.715 42.7394 102.792 42.6415C103.108 42.1973 103.322 41.5179 103.408 40.6957C103.494 39.8789 103.448 38.9713 103.291 38.1174C103.134 37.2596 102.87 36.4857 102.539 35.9248C102.192 35.3365 101.861 35.1244 101.642 35.0928C101.556 35.0838 101.47 35.0954 101.392 35.1264L101.379 35.1314L101.366 35.1359C101.13 35.2182 101.024 35.3016 100.972 35.362C100.923 35.419 100.887 35.4964 100.876 35.6287C100.865 35.7702 100.885 35.9523 100.938 36.1968C100.976 36.3766 101.027 36.5654 101.083 36.7791C101.104 36.8582 101.126 36.9407 101.149 37.0274C101.479 38.2957 101.836 40.0618 100.467 42.1393C100.296 42.3994 99.9178 42.4875 99.6232 42.3362C99.3287 42.1848 99.2288 41.8512 99.4003 41.5911C100.528 39.8795 100.255 38.4584 99.9457 37.2714C99.9265 37.1975 99.9067 37.1229 99.8869 37.0482C99.8281 36.8267 99.7691 36.6046 99.7251 36.3999C99.6658 36.1241 99.6226 35.8336 99.645 35.5523C99.6681 35.2618 99.7624 34.9663 99.9899 34.7022C100.212 34.4442 100.524 34.2595 100.9 34.1267Z" fill="#000229"/>
<path fill-rule="evenodd" clip-rule="evenodd" d="M50.1227 35.5538C54.0615 34.713 58.1303 34.6763 62.0841 35.4463L62.0905 35.4475L62.5441 35.5481L62.5692 35.5565C63.0799 35.7275 63.5316 36.0397 63.8715 36.4568C64.126 36.7691 64.31 37.1306 64.4131 37.5165C64.4289 37.5185 64.4451 37.5205 64.4618 37.5226C64.7265 37.5554 65.1058 37.6046 65.5661 37.6696C66.486 37.7997 67.732 37.9939 69.0328 38.2503C70.3312 38.5062 71.6965 38.8264 72.8505 39.2106C73.4274 39.4027 73.9618 39.6142 74.413 39.8467C74.8575 40.0758 75.2556 40.3425 75.5276 40.6592L75.5282 40.6599C75.7559 40.926 75.9838 41.1925 76.2118 41.4589C80.1857 46.1047 84.1657 50.7575 87.248 54.0534C87.4198 53.9211 87.6537 53.7219 87.9377 53.4605C88.5688 52.8795 89.4179 52.0183 90.3288 50.9721C92.1575 48.872 94.1967 46.071 95.2428 43.3306L95.2453 43.3242L95.2479 43.3177C95.3218 43.1391 95.3863 42.9568 95.4411 42.7715L95.4443 42.7606L95.448 42.7499C95.6193 42.2542 95.9506 41.9849 96.2844 41.784C96.3969 41.7163 96.5238 41.6484 96.6436 41.5843C96.6879 41.5606 96.7313 41.5374 96.7727 41.5149C96.9351 41.4265 97.0968 41.3333 97.2615 41.2177C97.55 41.0152 97.7699 40.7634 97.8439 40.2908C97.9241 39.779 97.8394 38.9663 97.3597 37.6434C97.2617 37.3813 97.2431 37.0962 97.3063 36.8236C97.3698 36.5499 97.5129 36.3011 97.7177 36.1083C97.9224 35.9155 98.1796 35.7875 98.4571 35.7401C98.7321 35.6932 99.0148 35.7277 99.2702 35.8393C99.575 35.9658 99.8105 36.2284 99.9831 36.4712C100.167 36.73 100.33 37.039 100.466 37.3437C100.733 37.9401 100.931 38.5915 100.995 38.9615C101.245 40.0825 101.068 41.2561 100.498 42.2542C100.413 42.4177 100.319 42.576 100.215 42.7285C100.059 42.958 99.746 43.0178 99.516 42.862C99.286 42.7062 99.226 42.3938 99.3821 42.1643C99.4653 42.042 99.541 41.9149 99.6089 41.7837L100.056 42.0141L99.6193 41.7646C100.07 40.9786 100.21 40.0525 100.01 39.169L100.007 39.1551L100.005 39.1411C99.9605 38.8775 99.7914 38.2999 99.5468 37.7534C99.4257 37.4828 99.2941 37.2383 99.162 37.0525C99.02 36.8527 98.92 36.7817 98.8832 36.7668L98.8759 36.7638L98.8687 36.7606C98.7927 36.727 98.7085 36.7165 98.6267 36.7305C98.5448 36.7444 98.4689 36.7822 98.4085 36.8391C98.3481 36.896 98.3058 36.9694 98.2871 37.0502C98.2684 37.1309 98.274 37.2154 98.3032 37.293L98.3043 37.2958L98.3053 37.2987C98.8081 38.6845 98.9573 39.6876 98.8386 40.446C98.7136 41.2439 98.3013 41.7163 97.8406 42.0395C97.6307 42.1868 97.4311 42.3009 97.2547 42.3969C97.1972 42.4282 97.1445 42.4564 97.0954 42.4826C96.9858 42.5413 96.8938 42.5905 96.8043 42.6444C96.5743 42.7828 96.4663 42.8918 96.403 43.0682C96.3397 43.2807 96.2657 43.4898 96.1811 43.6947C95.0726 46.5948 92.9462 49.4979 91.0888 51.6311C90.156 52.7023 89.2813 53.5905 88.6203 54.1989C88.2913 54.5019 88.0076 54.7424 87.7919 54.9027C87.6871 54.9806 87.5815 55.0522 87.486 55.1013C87.4417 55.1241 87.3707 55.1574 87.2866 55.175C87.2357 55.1856 86.98 55.2341 86.7798 55.0242L86.7775 55.0218C83.6432 51.6942 79.5342 46.8906 75.4541 42.1206C75.2236 41.8511 74.9931 41.5817 74.763 41.3127C74.6135 41.1388 74.3469 40.9434 73.9511 40.7394C73.5618 40.5388 73.0798 40.3461 72.5318 40.1637C71.436 39.7988 70.1177 39.4882 68.8378 39.2359C67.5603 38.9841 66.3334 38.7928 65.4249 38.6644C64.971 38.6002 64.5973 38.5518 64.3375 38.5195C64.2076 38.5034 64.1062 38.4913 64.0375 38.4832C64.0146 38.4806 63.9954 38.4783 63.9799 38.4766L63.9595 38.4742L63.9399 38.472L63.934 38.4713L63.5368 38.4272L63.4896 38.0314C63.4485 37.6864 63.3101 37.3602 63.0904 37.0907C62.876 36.8276 62.5929 36.6291 62.2725 36.5171L61.8849 36.4311C58.0494 35.6851 54.102 35.7246 50.2823 36.5472L50.281 36.5412C49.7212 36.9173 49.3154 37.4837 49.1406 38.1367L49.0586 38.4433L48.746 38.501C45.5853 39.0852 42.7378 39.6648 40.3667 40.4012C37.9886 41.1397 36.1486 42.0191 34.9582 43.1683C34.4608 43.6558 33.8647 44.4927 33.2098 45.6266C32.5591 46.7534 31.8664 48.1449 31.1702 49.7169C29.778 52.8607 28.3818 56.7041 27.286 60.5511C26.1891 64.4019 25.3996 68.2344 25.2092 71.3618C25.1139 72.9263 25.1701 74.2927 25.4016 75.3875C25.6345 76.4889 26.0322 77.2572 26.5701 77.7025C27.1082 78.1485 28.0326 78.4593 29.3796 78.5759C30.7118 78.6911 32.3904 78.611 34.3693 78.3399C39.4321 77.5396 44.4138 76.293 49.2559 74.6148L49.1456 69.0434L49.1476 69.0182C49.2217 68.105 49.6144 67.2467 50.2574 66.5928C50.9003 65.9389 51.7528 65.5308 52.6663 65.4397C52.9429 65.4121 53.1896 65.6135 53.2172 65.8896C53.2449 66.1656 53.0431 66.4118 52.7664 66.4394C52.0875 66.5071 51.4538 66.8104 50.9759 67.2965C50.5037 67.7767 50.2131 68.4053 50.1531 69.075L50.2769 75.3252L49.6274 75.5496C44.7145 77.2551 39.6594 78.5212 34.5217 79.333L34.5166 79.3338L34.5115 79.3345C32.4892 79.6118 30.7279 79.7009 29.2927 79.5768C27.8713 79.4538 26.7002 79.1162 25.9273 78.4758C25.1423 77.8259 24.6723 76.8043 24.4166 75.595C24.1595 74.3792 24.1061 72.9142 24.2043 71.3008C24.4009 68.0723 25.2108 64.1623 26.3176 60.2764C27.4255 56.3869 28.8373 52.4995 30.2494 49.3108C30.9554 47.7165 31.664 46.2912 32.3376 45.1249C33.0066 43.9666 33.6575 43.0344 34.2543 42.45L34.2568 42.4476C35.6184 41.1324 37.641 40.1955 40.0675 39.4419C42.4251 38.7097 45.2199 38.1345 48.2651 37.5683C48.5551 36.7661 49.1089 36.0813 49.8409 35.629L49.9627 35.5538H50.1227ZM50.1761 36.0561V36.1693L50.2137 36.2299L50.1761 36.0561Z" fill="#000229"/>
<path fill-rule="evenodd" clip-rule="evenodd" d="M102.443 23.2644C102.71 23.2846 102.912 23.5457 102.894 23.8476L102.883 24.0388L102.882 24.0469L102.072 35.2861C102.05 35.5877 101.816 35.8123 101.55 35.7877C101.284 35.763 101.085 35.4986 101.107 35.1969L101.917 23.9618L101.928 23.7747C101.946 23.4727 102.177 23.2443 102.443 23.2644Z" fill="#000229"/>
<path fill-rule="evenodd" clip-rule="evenodd" d="M96.6355 43.2012L96.6385 43.2063C96.6416 43.2116 96.6469 43.2204 96.6543 43.2326C96.6691 43.2569 96.6925 43.2944 96.7242 43.343C96.7876 43.4404 96.8843 43.5818 97.0127 43.7509C97.2702 44.0898 97.6518 44.5345 98.146 44.9564C99.1334 45.7994 100.546 46.5336 102.324 46.1941C102.591 46.143 102.844 46.3538 102.888 46.6649C102.932 46.976 102.75 47.2697 102.483 47.3208C100.367 47.7247 98.6923 46.8392 97.565 45.8768C97.0017 45.3959 96.5692 44.8915 96.277 44.5068C96.1305 44.3141 96.0184 44.1502 95.9418 44.0327C95.9034 43.9739 95.8739 43.9265 95.8534 43.8929C95.8431 43.876 95.8351 43.8626 95.8293 43.8528L95.8224 43.841L95.8202 43.8372L95.8194 43.8358L95.8191 43.8353C95.8189 43.835 95.8188 43.8348 96.2273 43.5182L95.8188 43.8348C95.6684 43.5725 95.7294 43.2181 95.955 43.0432C96.1804 42.8684 96.485 42.9392 96.6355 43.2012Z" fill="#000229"/>
<path d="M64.8692 16.1052C64.9879 16.1052 65.1017 16.1524 65.1856 16.2363C65.2695 16.3202 65.3166 16.4339 65.3166 16.5526C65.3166 16.6712 65.2695 16.785 65.1856 16.8689C65.1017 16.9528 64.9879 17 64.8692 17C64.7506 17 64.6368 16.9528 64.5529 16.8689C64.469 16.785 64.4219 16.6712 64.4219 16.5526C64.4219 16.4339 64.469 16.3202 64.5529 16.2363C64.6368 16.1524 64.7506 16.1052 64.8692 16.1052Z" fill="#000229"/>
<path d="M59.5001 16.1052C59.5886 16.1052 59.6751 16.1315 59.7487 16.1806C59.8222 16.2298 59.8796 16.2996 59.9134 16.3814C59.9473 16.4631 59.9561 16.5531 59.9389 16.6399C59.9216 16.7267 59.879 16.8064 59.8164 16.8689C59.7539 16.9315 59.6742 16.9741 59.5874 16.9914C59.5006 17.0086 59.4106 16.9998 59.3289 16.9659C59.2472 16.932 59.1773 16.8747 59.1281 16.8011C59.079 16.7276 59.0527 16.6411 59.0527 16.5526C59.0527 16.4339 59.0999 16.3202 59.1838 16.2363C59.2677 16.1524 59.3815 16.1052 59.5001 16.1052Z" fill="#000229"/>
<path fill-rule="evenodd" clip-rule="evenodd" d="M83.2109 162.365C83.2109 162.134 83.4333 161.947 83.7077 161.947H110.451C110.725 161.947 110.948 162.134 110.948 162.365V164.213C110.948 164.444 110.725 164.631 110.451 164.631H83.7077C83.4333 164.631 83.2109 164.444 83.2109 164.213V162.365ZM84.2044 162.784V163.795H109.954V162.784H84.2044Z" fill="#000229"/>
<path fill-rule="evenodd" clip-rule="evenodd" d="M127.947 143.991L114.095 151.211L113.631 150.377L127.483 143.158L127.947 143.991Z" fill="white"/>
<path fill-rule="evenodd" clip-rule="evenodd" d="M137.296 137.805C137.429 137.84 137.542 137.932 137.607 138.06L138.626 140.059C138.752 140.308 138.664 140.618 138.428 140.752L115.379 153.833C115.143 153.967 114.848 153.875 114.72 153.627L113.783 151.811L113.695 151.649C113.609 151.491 113.61 151.296 113.697 151.138C113.755 151.032 113.846 150.954 113.952 150.914L136.893 137.886L136.908 137.876C137.022 137.795 137.163 137.77 137.296 137.805ZM136.981 138.999L114.784 151.605L115.344 152.69L137.538 140.093L136.981 138.999Z" fill="#000229"/>
<path fill-rule="evenodd" clip-rule="evenodd" d="M43.3152 98.4213C43.5964 98.4138 43.8307 98.6299 43.8384 98.9039C43.9766 103.8 40.7732 106.829 36.7366 108.24L36.7331 108.241L36.7331 108.241C35.1597 108.779 33.5136 109.087 31.8478 109.158C31.5668 109.169 31.329 108.957 31.3169 108.683C31.3047 108.409 31.5227 108.177 31.8038 108.166C33.369 108.1 34.9157 107.81 36.3943 107.305C40.1521 105.991 42.9424 103.271 42.82 98.9312C42.8122 98.6572 43.0339 98.4289 43.3152 98.4213Z" fill="#000229"/>
<path fill-rule="evenodd" clip-rule="evenodd" d="M136.106 137.055C135.051 135.87 133.305 135.878 131.572 136.556C131.565 136.559 131.557 136.561 131.55 136.564C128.497 137.601 125.317 138.226 122.095 138.421C121.614 138.463 121.164 138.499 120.768 138.53C120.521 138.549 120.294 138.567 120.095 138.584C119.83 138.606 119.61 138.626 119.436 138.647C119.299 138.664 119.207 138.679 119.153 138.691L110.348 143.454L114.156 150.048L136.695 137.97C136.547 137.638 136.349 137.329 136.106 137.055ZM131.213 135.631C133.07 134.907 135.376 134.734 136.86 136.402L136.861 136.403C137.262 136.856 137.569 137.383 137.764 137.953C137.781 138.004 137.79 138.058 137.79 138.112V138.215C137.79 138.397 137.689 138.564 137.527 138.651L114.202 151.15C113.963 151.279 113.663 151.195 113.528 150.96L109.224 143.507C109.157 143.391 109.141 143.254 109.177 143.126C109.214 142.999 109.301 142.891 109.419 142.827L118.726 137.792C118.756 137.776 118.789 137.762 118.822 137.752C118.955 137.713 119.131 137.686 119.315 137.664C119.507 137.641 119.743 137.619 120.01 137.596C120.222 137.579 120.453 137.561 120.702 137.541C121.093 137.51 121.53 137.476 122.013 137.434C122.017 137.433 122.022 137.433 122.026 137.433C125.157 137.244 128.247 136.637 131.213 135.631Z" fill="#000229"/>
<path fill-rule="evenodd" clip-rule="evenodd" d="M40.2621 54.6226C40.5177 54.7349 40.6316 55.0279 40.5165 55.2771C38.4145 59.8261 36.9312 64.6223 36.1035 69.5439C39.7608 69.0861 48.7747 67.7674 51.2973 67.3271C51.5733 67.2789 51.8371 67.458 51.8865 67.727C51.9359 67.9961 51.7522 68.2532 51.4763 68.3014C48.7631 68.7749 38.6478 70.2495 35.5566 70.6075L34.8945 70.6841L34.9949 70.0415C35.8128 64.8045 37.359 59.7006 39.5908 54.8706C39.7059 54.6214 40.0065 54.5104 40.2621 54.6226Z" fill="#000229"/>
</svg>
