<svg width="39" height="39" viewBox="0 0 39 39" fill="none" xmlns="http://www.w3.org/2000/svg">
<path fill-rule="evenodd" clip-rule="evenodd" d="M11.6161 10.6161C12.1043 10.128 12.8957 10.128 13.3839 10.6161L28.3839 25.6161C28.872 26.1043 28.872 26.8957 28.3839 27.3839C27.8957 27.872 27.1043 27.872 26.6161 27.3839L11.6161 12.3839C11.128 11.8957 11.128 11.1043 11.6161 10.6161Z" fill="#040829"/>
<path fill-rule="evenodd" clip-rule="evenodd" d="M11.6161 27.3839C11.128 26.8957 11.128 26.1043 11.6161 25.6161L26.6161 10.6161C27.1043 10.128 27.8957 10.128 28.3839 10.6161C28.872 11.1043 28.872 11.8957 28.3839 12.3839L13.3839 27.3839C12.8957 27.872 12.1043 27.872 11.6161 27.3839Z" fill="#040829"/>
</svg>
