<svg width="170" height="28" viewBox="0 0 170 28" fill="none" xmlns="http://www.w3.org/2000/svg">
<path d="M15.2882 2C14.4559 2 13.6632 2 12.8308 2C12.157 2 11.4832 2 10.8094 2C9.89779 2 8.86726 2.19756 7.67819 2.55317C3.00118 4.01512 0.345592 7.8478 0.0285068 13.6166C-0.36785 20.3336 3.39754 25.2331 9.54107 26.1024C11.0869 26.3395 12.8308 26.4185 14.8126 26.4185C16.4773 26.4185 18.1817 26.3395 19.6482 26.2605C24.2459 26.0234 28.6058 22.9414 30.3102 17.6073C30.3894 17.3702 30.4687 17.1332 30.548 16.8961C29.4778 16.5405 28.6058 16.1453 27.6546 15.5132C27.6149 15.6317 27.5753 15.7107 27.5357 15.8293C26.0692 20.1756 23.3739 22.4278 20.322 22.7044C17.0719 22.9809 13.6632 23.0205 10.2941 22.7439C6.17204 22.4278 3.04082 18.5161 3.08045 13.6956C3.08045 9.74438 6.56839 5.83268 10.3734 5.51658C13.0686 5.27951 16.0413 5.24 19.2122 5.35853C22.6208 5.51658 25.1575 7.2156 26.3466 10.2185C27.6149 13.419 29.9138 14.9205 33.5207 14.96C35.1061 14.96 36.7312 14.96 38.3166 14.96C39.03 14.96 39.7831 14.96 40.4965 14.96C42.2009 14.96 43.4692 14.96 44.6979 14.9995C45.6888 14.9995 46.759 15.2366 47.7102 15.6317C49.1371 16.2244 49.9298 17.4492 49.8506 19.0297C49.7713 20.6102 48.9389 21.7956 47.5517 22.3092C46.4419 22.7044 45.4114 22.9019 44.4601 22.9414C42.6765 22.981 40.6947 22.9809 38.2769 22.9809C37.0879 22.9809 35.9384 22.9809 34.789 22.9809C33.7585 22.9809 31.5389 22.9809 30.5083 22.9809C29.5967 24.3639 28.7247 25.4307 27.7339 26.3395C29.1607 26.3395 30.548 26.379 31.9749 26.379C33.8377 26.379 36.8897 26.4185 38.7526 26.4185C41.6856 26.4185 44.0637 26.379 46.2833 26.2605C50.0487 26.1024 52.744 23.06 52.744 19.0692C52.744 14.9995 50.0487 11.9571 46.1644 11.72C44.0638 11.5619 41.8045 11.5224 39.0697 11.5224C37.3257 11.5224 35.5817 11.5619 33.8377 11.5619H33.7188C31.6182 11.5619 30.3102 10.6532 29.4382 8.63804C27.8528 4.88438 25.0783 2.67171 21.3129 2.23707C19.1329 2.03951 16.9529 2 15.2882 2Z" fill="#001EFC"/>
<path d="M28.1309 2.63219C28.9236 3.22488 29.7956 4.21268 30.4694 5.51658C31.1035 5.39804 31.6584 5.35853 32.253 5.35853H32.6097H32.7286C35.4238 5.35853 38.1191 5.35853 40.8143 5.35853H46.0858H48.9C49.1774 5.35853 49.4152 5.35853 49.653 5.31902V2H48.9396H41.8844C38.5551 2 34.6708 2 30.7468 2.07903C30.0334 2.11854 28.8839 2.3161 28.1309 2.63219Z" fill="#001EFC"/>
<path d="M67.6296 13.5293C66.6608 13.0111 65.8858 12.2339 65.3045 11.3271C64.7232 10.3555 64.4648 9.31916 64.4648 8.15328C64.4648 6.9874 64.7232 5.95105 65.3045 4.97948C65.8858 4.00791 66.6608 3.29543 67.6296 2.77725C68.5984 2.25908 69.6964 2 70.9236 2C72.1508 2 73.2487 2.25908 74.2176 2.77725C75.1864 3.29543 75.9614 4.07268 76.5427 4.97948C77.124 5.88628 77.3824 6.9874 77.3824 8.15328C77.3824 9.31916 77.124 10.4203 76.5427 11.3271C75.9614 12.2339 75.1864 13.0111 74.2176 13.5293C73.2487 14.0475 72.1508 14.3066 70.9236 14.3066C69.761 14.3066 68.663 14.0475 67.6296 13.5293ZM73.1196 11.7805C73.7654 11.3918 74.2821 10.9385 74.6051 10.2907C74.9926 9.64302 75.1218 8.93053 75.1218 8.0885C75.1218 7.31125 74.928 6.534 74.6051 5.88628C74.2176 5.23857 73.7654 4.7204 73.1196 4.39654C72.4737 4.00791 71.7632 3.87837 70.9882 3.87837C70.2131 3.87837 69.5027 4.07268 68.8568 4.39654C68.2109 4.78517 67.6942 5.23857 67.3713 5.88628C66.9838 6.534 66.8546 7.24648 66.8546 8.0885C66.8546 8.86576 67.0483 9.64302 67.3713 10.2907C67.7588 10.9385 68.2109 11.4566 68.8568 11.7805C69.5027 12.1691 70.2131 12.2986 70.9882 12.2986C71.7632 12.3634 72.4737 12.1691 73.1196 11.7805Z" fill="#000229"/>
<path d="M88.4269 4.97946V14.1122H86.3601V12.9463C86.0371 13.335 85.585 13.6588 85.0683 13.9179C84.5516 14.1122 83.9703 14.2418 83.3891 14.2418C82.1619 14.2418 81.1931 13.9179 80.4826 13.2054C79.7722 12.4929 79.4492 11.5214 79.4492 10.1612V4.9147H81.5806V9.83732C81.5806 10.6793 81.7744 11.2623 82.1619 11.6509C82.5494 12.0395 83.0661 12.2339 83.712 12.2339C84.4871 12.2339 85.0683 11.9748 85.5204 11.5214C85.9726 11.068 86.1663 10.3555 86.1663 9.44869V4.78516H88.4269V4.97946Z" fill="#000229"/>
<path d="M96.5013 4.84961V6.92229C96.3075 6.85752 96.1783 6.85753 95.9846 6.85753C95.1449 6.85753 94.499 7.11661 94.0469 7.57C93.5948 8.08818 93.3365 8.7359 93.3365 9.6427V14.1119H91.2051V4.97915H93.2719V6.33935C93.8532 5.36778 94.9512 4.84961 96.5013 4.84961Z" fill="#000229"/>
<path d="M99.4066 13.9179C98.567 13.6588 97.8565 13.335 97.3398 12.8816L98.1149 11.1328C98.6316 11.5214 99.2129 11.8452 99.9233 12.1043C100.634 12.3634 101.344 12.493 102.055 12.493C102.959 12.493 103.605 12.3634 104.057 12.0396C104.509 11.7805 104.703 11.3918 104.703 10.9384C104.703 10.6146 104.574 10.2907 104.315 10.0964C104.057 9.90211 103.734 9.70779 103.411 9.57825C103.024 9.4487 102.507 9.31916 101.861 9.12485C100.957 8.93054 100.182 8.67145 99.665 8.47714C99.0837 8.28282 98.6316 7.89419 98.1795 7.44079C97.792 6.98739 97.5982 6.33968 97.5982 5.56242C97.5982 4.91471 97.792 4.267 98.1149 3.74882C98.5024 3.23065 99.0191 2.77725 99.7296 2.4534C100.44 2.12954 101.344 2 102.378 2C103.088 2 103.799 2.06477 104.509 2.25908C105.22 2.4534 105.801 2.71248 106.318 3.03634L105.607 4.78517C105.09 4.46131 104.509 4.267 103.992 4.07268C103.411 3.94314 102.894 3.8136 102.313 3.8136C101.409 3.8136 100.763 3.94314 100.375 4.267C99.9233 4.59085 99.7296 4.97948 99.7296 5.43288C99.7296 5.75674 99.8588 6.08059 100.117 6.2749C100.375 6.46922 100.698 6.66353 101.021 6.79308C101.409 6.92262 101.926 7.05216 102.571 7.24647C103.476 7.44079 104.186 7.6351 104.767 7.89419C105.349 8.0885 105.801 8.47713 106.253 8.93053C106.64 9.38393 106.834 10.0316 106.834 10.8089C106.834 11.4566 106.64 12.1043 106.318 12.6225C105.93 13.1407 105.413 13.5941 104.703 13.9179C103.992 14.2418 103.088 14.3713 102.055 14.3713C101.151 14.3066 100.311 14.177 99.4066 13.9179Z" fill="#000229"/>
<path d="M117.814 4.97946V14.1122H115.747V12.9463C115.424 13.335 114.972 13.6588 114.455 13.9179C113.938 14.1122 113.357 14.2418 112.776 14.2418C111.549 14.2418 110.58 13.9179 109.869 13.2054C109.159 12.4929 108.836 11.5214 108.836 10.1612V4.9147H110.967V9.83732C110.967 10.6793 111.161 11.2623 111.549 11.6509C111.936 12.0395 112.453 12.2339 113.099 12.2339C113.874 12.2339 114.455 11.9748 114.907 11.5214C115.359 11.068 115.553 10.3555 115.553 9.44869V4.78516H117.814V4.97946Z" fill="#000229"/>
<path d="M128.019 5.4323C128.73 5.82093 129.247 6.3391 129.699 7.05159C130.086 7.76407 130.28 8.60609 130.28 9.51289C130.28 10.4197 130.086 11.2617 129.699 11.9742C129.311 12.6867 128.73 13.2696 128.019 13.6583C127.309 14.0469 126.534 14.2412 125.63 14.2412C124.402 14.2412 123.434 13.8526 122.723 13.0105V17.4798H120.592V4.9789H122.659V6.20956C122.982 5.75616 123.434 5.4323 123.95 5.23799C124.467 5.04367 125.048 4.91413 125.694 4.91413C126.534 4.84936 127.309 5.04367 128.019 5.4323ZM127.373 11.6503C127.89 11.1322 128.149 10.4197 128.149 9.57767C128.149 8.73564 127.89 8.02315 127.373 7.50498C126.857 6.98681 126.211 6.72773 125.436 6.72773C124.919 6.72773 124.467 6.85727 124.08 7.05159C123.692 7.31067 123.369 7.63453 123.111 8.02316C122.852 8.47656 122.723 8.92995 122.723 9.51289C122.723 10.0958 122.852 10.614 123.111 11.0026C123.369 11.456 123.692 11.7799 124.08 11.9742C124.467 12.2333 124.984 12.2981 125.436 12.2981C126.211 12.4276 126.857 12.1685 127.373 11.6503Z" fill="#000229"/>
<path d="M139.775 5.4323C140.486 5.82093 141.002 6.3391 141.455 7.05159C141.842 7.76407 142.036 8.60609 142.036 9.51289C142.036 10.4197 141.842 11.2617 141.455 11.9742C141.067 12.6867 140.486 13.2696 139.775 13.6583C139.065 14.0469 138.29 14.2412 137.385 14.2412C136.158 14.2412 135.19 13.8526 134.479 13.0105V17.4798H132.348V4.9789H134.414V6.20956C134.737 5.75616 135.19 5.4323 135.706 5.23799C136.223 5.04367 136.804 4.91413 137.45 4.91413C138.29 4.84936 139.065 5.04367 139.775 5.4323ZM139.065 11.6503C139.581 11.1322 139.84 10.4197 139.84 9.57767C139.84 8.73564 139.581 8.02315 139.065 7.50498C138.548 6.98681 137.902 6.72773 137.127 6.72773C136.61 6.72773 136.158 6.85727 135.771 7.05159C135.383 7.31067 135.06 7.63453 134.802 8.02316C134.544 8.47656 134.414 8.92995 134.414 9.51289C134.414 10.0958 134.544 10.614 134.802 11.0026C135.06 11.456 135.383 11.7799 135.771 11.9742C136.158 12.2333 136.675 12.2981 137.127 12.2981C137.967 12.4276 138.613 12.1685 139.065 11.6503Z" fill="#000229"/>
<path d="M145.651 13.6587C144.941 13.2701 144.36 12.6871 143.908 11.9746C143.52 11.2621 143.262 10.4201 143.262 9.57809C143.262 8.67129 143.455 7.89403 143.908 7.18155C144.295 6.46906 144.876 5.88612 145.651 5.49749C146.362 5.10886 147.202 4.91455 148.17 4.91455C149.075 4.91455 149.914 5.10886 150.689 5.49749C151.4 5.88612 151.981 6.46906 152.433 7.18155C152.821 7.89403 153.079 8.67129 153.079 9.57809C153.079 10.4849 152.885 11.2621 152.433 11.9746C152.046 12.6871 151.464 13.2701 150.689 13.6587C149.979 14.0473 149.139 14.2416 148.17 14.2416C147.266 14.2416 146.427 14.0473 145.651 13.6587ZM150.108 11.6508C150.625 11.1326 150.883 10.4201 150.883 9.57809C150.883 8.73606 150.625 8.02358 150.108 7.50541C149.591 6.98723 148.945 6.72815 148.17 6.72815C147.395 6.72815 146.749 6.98723 146.233 7.50541C145.716 8.02358 145.458 8.73606 145.458 9.57809C145.458 10.4201 145.716 11.1326 146.233 11.6508C146.749 12.1689 147.395 12.428 148.17 12.428C148.945 12.428 149.591 12.1689 150.108 11.6508Z" fill="#000229"/>
<path d="M160.376 4.84961V6.92229C160.182 6.85752 160.053 6.85753 159.86 6.85753C159.02 6.85753 158.374 7.11661 157.922 7.57C157.47 8.08818 157.211 8.7359 157.211 9.6427V14.1119H155.08V4.97915H157.147V6.33935C157.728 5.36778 158.826 4.84961 160.376 4.84961Z" fill="#000229"/>
<path d="M167.996 13.6586C167.738 13.853 167.415 14.0473 167.092 14.112C166.705 14.2416 166.382 14.2416 165.93 14.2416C164.896 14.2416 164.121 13.9825 163.604 13.4643C163.088 12.9462 162.765 12.1689 162.765 11.1973V6.79287H161.279V5.10882H162.765V3.03613H164.896V5.10882H167.351V6.79287H164.896V11.1326C164.896 11.586 165.025 11.9098 165.219 12.1689C165.413 12.428 165.736 12.4928 166.188 12.4928C166.64 12.4928 167.092 12.3632 167.415 12.1041L167.996 13.6586Z" fill="#000229"/>
<path d="M93.3355 22.0141H91.6562V21.2368H95.919V22.0141H94.3043V26.289H93.3355V22.0141Z" fill="#000229"/>
<path d="M96.564 26.2247C96.241 26.1599 96.0473 26.0303 95.8535 25.9008L96.1765 25.1883C96.3702 25.3179 96.564 25.3826 96.8223 25.4474C97.0807 25.5122 97.2744 25.5769 97.5328 25.5769C98.0495 25.5769 98.3724 25.4474 98.3724 25.1235C98.3724 24.994 98.3078 24.8645 98.1787 24.8645C98.0495 24.7997 97.7911 24.7349 97.5328 24.7349C97.2099 24.6701 96.9515 24.6054 96.7577 24.5406C96.564 24.4758 96.3702 24.3463 96.241 24.2168C96.1119 24.0872 96.0473 23.8281 96.0473 23.569C96.0473 23.1804 96.1765 22.9213 96.4994 22.6622C96.8223 22.4679 97.2099 22.3384 97.7266 22.3384C97.9849 22.3384 98.2433 22.3384 98.5016 22.4032C98.76 22.4679 98.9537 22.5327 99.1475 22.6622L98.8245 23.3747C98.5016 23.1804 98.1141 23.1156 97.7266 23.1156C97.4682 23.1156 97.2744 23.1804 97.1453 23.2452C97.0161 23.31 96.9515 23.4395 96.9515 23.569C96.9515 23.6986 97.0161 23.8281 97.1453 23.8929C97.2744 23.9577 97.5328 24.0224 97.8557 24.0872C98.1787 24.152 98.437 24.2167 98.6308 24.2815C98.8245 24.3463 99.0183 24.4758 99.1475 24.6054C99.2767 24.7349 99.3412 24.994 99.3412 25.2531C99.3412 25.6417 99.2121 25.9008 98.8891 26.0951C98.5662 26.2894 98.1787 26.419 97.5974 26.419C97.2099 26.3542 96.8869 26.2894 96.564 26.2247Z" fill="#000229"/>
<path d="M100.699 26.0946C100.376 25.9003 100.118 25.706 99.9888 25.3821C99.7951 25.0583 99.7305 24.7344 99.7305 24.3458C99.7305 23.9572 99.7951 23.6333 99.9888 23.3095C100.183 22.9856 100.441 22.7913 100.699 22.597C101.022 22.4027 101.345 22.3379 101.733 22.3379C102.12 22.3379 102.508 22.4027 102.766 22.597C103.089 22.7913 103.347 22.9856 103.477 23.3095C103.67 23.6333 103.735 23.9572 103.735 24.3458C103.735 24.7344 103.67 25.0583 103.477 25.3821C103.283 25.706 103.024 25.9003 102.766 26.0946C102.443 26.2889 102.12 26.3537 101.733 26.3537C101.345 26.3537 101.022 26.2242 100.699 26.0946ZM102.572 25.1878C102.766 24.9935 102.895 24.6697 102.895 24.281C102.895 23.8924 102.766 23.6333 102.572 23.3742C102.379 23.1799 102.056 23.0504 101.733 23.0504C101.41 23.0504 101.151 23.1799 100.893 23.3742C100.699 23.5686 100.57 23.8924 100.57 24.281C100.57 24.6697 100.699 24.9288 100.893 25.1878C101.087 25.3822 101.41 25.5117 101.733 25.5117C102.12 25.5765 102.379 25.4469 102.572 25.1878Z" fill="#000229"/>
<path d="M104.703 20.9131H105.607V26.2891H104.703V20.9131Z" fill="#000229"/>
<path d="M110.128 22.7918C110.451 23.0509 110.58 23.5043 110.58 24.0872V26.2894H109.676V24.152C109.676 23.8281 109.611 23.569 109.418 23.3747C109.288 23.1804 109.03 23.1156 108.707 23.1156C108.384 23.1156 108.126 23.2452 107.932 23.4395C107.738 23.6338 107.674 23.9577 107.674 24.2815V26.2247H106.77V22.3384H107.609V22.8566C107.738 22.6622 107.932 22.5327 108.19 22.4679C108.449 22.4031 108.643 22.3384 108.966 22.3384C109.482 22.3384 109.87 22.5327 110.128 22.7918Z" fill="#000229"/>
<path d="M115.36 24.6052H112.324C112.389 24.8643 112.518 25.1234 112.712 25.2529C112.906 25.4472 113.229 25.512 113.551 25.512C114.004 25.512 114.326 25.3825 114.585 25.1234L115.037 25.7063C114.843 25.9006 114.649 26.0949 114.391 26.1597C114.133 26.2893 113.81 26.2893 113.487 26.2893C113.035 26.2893 112.712 26.2245 112.389 26.0302C112.066 25.8359 111.808 25.6415 111.614 25.3177C111.42 24.9938 111.355 24.67 111.355 24.2813C111.355 23.8927 111.42 23.5689 111.614 23.245C111.808 22.9212 112.001 22.7268 112.324 22.5325C112.647 22.3382 112.97 22.2734 113.358 22.2734C113.745 22.2734 114.068 22.3382 114.391 22.5325C114.714 22.7268 114.908 22.9212 115.102 23.245C115.295 23.5689 115.36 23.8927 115.36 24.2813C115.424 24.4109 115.36 24.5404 115.36 24.6052ZM112.712 23.3745C112.518 23.5689 112.389 23.7632 112.324 24.087H114.52C114.456 23.8279 114.391 23.5689 114.197 23.3745C114.004 23.1802 113.745 23.1155 113.487 23.1155C113.164 23.1155 112.906 23.1802 112.712 23.3745Z" fill="#000229"/>
<path d="M118.59 26.095C118.461 26.1598 118.331 26.2246 118.202 26.2893C118.073 26.3541 117.879 26.3541 117.75 26.3541C117.298 26.3541 116.975 26.2246 116.781 26.0303C116.523 25.8359 116.458 25.5121 116.458 25.0587V23.1803H115.812V22.4678H116.458V21.561H117.363V22.4678H118.396V23.1803H117.363V24.9939C117.363 25.1882 117.427 25.3178 117.492 25.4473C117.556 25.5769 117.686 25.5769 117.879 25.5769C118.073 25.5769 118.267 25.5121 118.396 25.4473L118.59 26.095Z" fill="#000229"/>
<path d="M125.242 22.4028L123.821 26.2891H122.982L122.013 23.6335L120.979 26.2891H120.14L118.719 22.4028H119.558L120.592 25.2528L121.625 22.4028H122.4L123.434 25.2528L124.467 22.4028H125.242Z" fill="#000229"/>
<path d="M126.469 26.0946C126.146 25.9003 125.888 25.706 125.758 25.3821C125.565 25.0583 125.5 24.7344 125.5 24.3458C125.5 23.9572 125.565 23.6333 125.758 23.3095C125.952 22.9856 126.21 22.7913 126.469 22.597C126.792 22.4027 127.115 22.3379 127.502 22.3379C127.89 22.3379 128.277 22.4027 128.536 22.597C128.859 22.7913 129.117 22.9856 129.246 23.3095C129.44 23.6333 129.504 23.9572 129.504 24.3458C129.504 24.7344 129.44 25.0583 129.246 25.3821C129.052 25.706 128.794 25.9003 128.536 26.0946C128.213 26.2889 127.89 26.3537 127.502 26.3537C127.115 26.3537 126.792 26.2242 126.469 26.0946ZM128.342 25.1878C128.536 24.9935 128.665 24.6697 128.665 24.281C128.665 23.8924 128.536 23.6333 128.342 23.3742C128.148 23.1799 127.825 23.0504 127.502 23.0504C127.179 23.0504 126.921 23.1799 126.663 23.3742C126.469 23.5686 126.34 23.8924 126.34 24.281C126.34 24.6697 126.469 24.9288 126.663 25.1878C126.856 25.3822 127.179 25.5117 127.502 25.5117C127.825 25.5117 128.148 25.4469 128.342 25.1878Z" fill="#000229"/>
<path d="M132.671 22.3384V23.1804C132.606 23.1804 132.541 23.1804 132.477 23.1804C132.154 23.1804 131.831 23.31 131.637 23.5043C131.443 23.6986 131.314 24.0224 131.314 24.4111V26.2894H130.475V22.4032H131.314V22.9861C131.573 22.5327 132.025 22.3384 132.671 22.3384Z" fill="#000229"/>
<path d="M134.993 24.6051L134.348 25.2528V26.2891H133.443V20.9131H134.348V24.1517L136.221 22.4028H137.319L135.704 24.0221L137.448 26.2891H136.35L134.993 24.6051Z" fill="#000229"/>
<path d="M138.16 26.2242C137.837 26.1594 137.643 26.0299 137.449 25.9003L137.772 25.1878C137.966 25.3174 138.16 25.3821 138.418 25.4469C138.676 25.5117 138.87 25.5765 139.128 25.5765C139.645 25.5765 139.968 25.4469 139.968 25.1231C139.968 24.9935 139.904 24.864 139.774 24.864C139.645 24.7992 139.387 24.7344 139.128 24.7344C138.806 24.6697 138.547 24.6049 138.353 24.5401C138.16 24.4754 137.966 24.3458 137.837 24.2163C137.708 24.0867 137.643 23.8276 137.643 23.5686C137.643 23.1799 137.772 22.9208 138.095 22.6617C138.418 22.4674 138.806 22.3379 139.322 22.3379C139.581 22.3379 139.839 22.3379 140.097 22.4027C140.356 22.4674 140.549 22.5322 140.743 22.6617L140.42 23.3742C140.097 23.1799 139.71 23.1151 139.322 23.1151C139.064 23.1151 138.87 23.1799 138.741 23.2447C138.612 23.3095 138.547 23.439 138.547 23.5686C138.547 23.6981 138.612 23.8276 138.741 23.8924C138.87 23.9572 139.128 24.0219 139.451 24.0867C139.774 24.1515 140.033 24.2163 140.226 24.281C140.42 24.3458 140.614 24.4753 140.743 24.6049C140.872 24.7344 140.937 24.9935 140.937 25.2526C140.937 25.6412 140.808 25.9003 140.485 26.0946C140.162 26.2889 139.774 26.4185 139.193 26.4185C138.806 26.3537 138.483 26.2889 138.16 26.2242Z" fill="#000229"/>
<path d="M64.5293 23.6338H88.2975" stroke="#000229" stroke-width="0.3" stroke-miterlimit="10"/>
<path d="M144.232 23.6338H168.001" stroke="#000229" stroke-width="0.3" stroke-miterlimit="10"/>
</svg>
