<svg width="209" height="31" viewBox="0 0 209 31" fill="none" xmlns="http://www.w3.org/2000/svg">
<path d="M19.0194 0C17.9839 0 16.9977 0 15.9622 0C15.124 0 14.2857 0 13.4475 0C12.3134 0 11.0313 0.245776 9.55206 0.688172C3.73362 2.50691 0.429934 7.27496 0.0354639 14.4516C-0.457624 22.808 4.22671 28.9032 11.8696 29.9846C13.7926 30.2796 15.9622 30.3779 18.4276 30.3779C20.4986 30.3779 22.6189 30.2795 24.4433 30.1812C30.1631 29.8863 35.5871 26.0522 37.7074 19.4163C37.806 19.1213 37.9046 18.8264 38.0032 18.5315C36.6719 18.0891 35.5871 17.5975 34.4037 16.8111C34.3544 16.9585 34.3051 17.0568 34.2558 17.2043C32.4313 22.6114 29.0784 25.4132 25.2816 25.7573C21.2382 26.1014 16.9977 26.1505 12.8064 25.8064C7.67833 25.4132 3.78293 20.5468 3.83224 14.5499C3.83224 9.6344 8.17141 4.76805 12.9051 4.37481C16.2581 4.07987 19.9562 4.03072 23.9009 4.17818C28.1415 4.3748 31.2972 6.48847 32.7765 10.2243C34.3544 14.2058 37.2143 16.0737 41.7014 16.1229C43.6738 16.1229 45.6954 16.1229 47.6678 16.1229C48.5553 16.1229 49.4922 16.1229 50.3798 16.1229C52.5 16.1229 54.0779 16.1229 55.6065 16.172C56.8392 16.172 58.1705 16.467 59.354 16.9585C61.1291 17.6958 62.1152 19.2196 62.0166 21.1859C61.918 23.1521 60.8825 24.6267 59.1567 25.2657C57.7761 25.7573 56.494 26.0031 55.3106 26.0522C53.0917 26.1014 50.6263 26.1014 47.6185 26.1014C46.1392 26.1014 44.7092 26.1014 43.2793 26.1014C41.9972 26.1014 39.236 26.1014 37.9539 26.1014C36.8198 27.8218 35.735 29.149 34.5023 30.2795C36.2774 30.2795 38.0032 30.3287 39.7784 30.3287C42.0959 30.3287 45.8926 30.3779 48.2102 30.3779C51.859 30.3779 54.8175 30.3287 57.5788 30.1812C62.2632 29.9846 65.6162 26.1997 65.6162 21.235C65.6162 16.172 62.2632 12.3871 57.4309 12.0922C54.8175 11.8955 52.0069 11.8464 48.6046 11.8464C46.4351 11.8464 44.2655 11.8955 42.0959 11.8955H41.9479C39.3346 11.8955 37.7074 10.765 36.6226 8.25806C34.6502 3.58832 31.1986 0.835636 26.5143 0.29493C23.8023 0.0491544 21.0903 0 19.0194 0Z" fill="#001EFC"/>
<path d="M34.9961 0.786481C35.9823 1.52381 37.0671 2.75269 37.9053 4.37481C38.6943 4.22734 39.3846 4.17818 40.1242 4.17818H40.568H40.7159C44.0689 4.17818 47.4219 4.17818 50.7749 4.17818H57.333H60.8339C61.1791 4.17818 61.4749 4.17818 61.7708 4.12903V0H60.8832H52.1063C47.9643 0 43.1321 2.24868e-06 38.2505 0.0983125C37.3629 0.147468 35.933 0.39324 34.9961 0.786481Z" fill="#001EFC"/>
<path d="M84.1344 14.343C82.9292 13.6984 81.965 12.7315 81.2418 11.6034C80.5187 10.3947 80.1973 9.10541 80.1973 7.65499C80.1973 6.20457 80.5187 4.9153 81.2418 3.70662C81.965 2.49794 82.9292 1.61157 84.1344 0.966944C85.3397 0.322313 86.7056 0 88.2323 0C89.7589 0 91.1249 0.322313 92.3301 0.966944C93.5354 1.61157 94.4996 2.57852 95.2227 3.70662C95.9459 4.83472 96.2673 6.20457 96.2673 7.65499C96.2673 9.10541 95.9459 10.4752 95.2227 11.6034C94.4996 12.7315 93.5354 13.6984 92.3301 14.343C91.1249 14.9877 89.7589 15.31 88.2323 15.31C86.786 15.31 85.42 14.9877 84.1344 14.343ZM90.9642 12.1674C91.7677 11.6839 92.4105 11.1199 92.8122 10.3141C93.2943 9.50831 93.455 8.62193 93.455 7.57441C93.455 6.60746 93.214 5.64052 92.8122 4.83473C92.3301 4.02894 91.7677 3.38431 90.9642 2.98142C90.1607 2.49794 89.2768 2.33678 88.3126 2.33678C87.3484 2.33678 86.4646 2.57852 85.6611 2.98142C84.8576 3.46489 84.2148 4.02894 83.813 4.83473C83.3309 5.64052 83.1702 6.52688 83.1702 7.57441C83.1702 8.54136 83.4113 9.50831 83.813 10.3141C84.2951 11.1199 84.8576 11.7645 85.6611 12.1674C86.4646 12.6509 87.3484 12.812 88.3126 12.812C89.2768 12.8926 90.1607 12.6509 90.9642 12.1674Z" fill="#000229"/>
<path d="M110.007 3.70657V15.0682H107.435V13.6178C107.034 14.1012 106.471 14.5041 105.828 14.8265C105.186 15.0682 104.462 15.2294 103.739 15.2294C102.213 15.2294 101.007 14.8265 100.123 13.9401C99.2396 13.0537 98.8379 11.845 98.8379 10.1529V3.626H101.489V9.74999C101.489 10.7975 101.73 11.5227 102.213 12.0062C102.695 12.4897 103.338 12.7314 104.141 12.7314C105.105 12.7314 105.828 12.4091 106.391 11.845C106.953 11.281 107.194 10.3946 107.194 9.26652V3.46484H110.007V3.70657Z" fill="#000229"/>
<path d="M120.052 3.54492V6.12344C119.811 6.04286 119.65 6.04287 119.409 6.04287C118.364 6.04287 117.561 6.36518 116.998 6.92923C116.436 7.57386 116.114 8.37966 116.114 9.50776V15.0677H113.463V3.70608H116.034V5.39824C116.757 4.18956 118.123 3.54492 120.052 3.54492Z" fill="#000229"/>
<path d="M123.667 14.8265C122.622 14.5042 121.739 14.1013 121.096 13.5372L122.06 11.3616C122.703 11.8451 123.426 12.248 124.31 12.5703C125.194 12.8926 126.077 13.0538 126.961 13.0538C128.086 13.0538 128.89 12.8926 129.452 12.4897C130.015 12.1674 130.256 11.6839 130.256 11.1199C130.256 10.717 130.095 10.3141 129.774 10.0724C129.452 9.83062 129.05 9.58888 128.649 9.42772C128.167 9.26657 127.524 9.10541 126.72 8.86367C125.595 8.62194 124.631 8.29962 123.988 8.05789C123.265 7.81615 122.703 7.33267 122.14 6.76862C121.658 6.20457 121.417 5.39878 121.417 4.43184C121.417 3.62605 121.658 2.82026 122.06 2.17563C122.542 1.531 123.185 0.966944 124.069 0.564049C124.953 0.161155 126.077 0 127.363 0C128.247 0 129.131 0.0805739 130.015 0.32231C130.898 0.564047 131.622 0.88636 132.264 1.28925L131.381 3.46489C130.738 3.062 130.015 2.82026 129.372 2.57852C128.649 2.41736 128.006 2.25621 127.283 2.25621C126.158 2.25621 125.354 2.41737 124.872 2.82026C124.31 3.22315 124.069 3.70663 124.069 4.27068C124.069 4.67358 124.229 5.07646 124.551 5.3182C124.872 5.55993 125.274 5.80167 125.676 5.96283C126.158 6.12399 126.801 6.28514 127.604 6.52688C128.729 6.76862 129.613 7.01035 130.336 7.33267C131.059 7.5744 131.622 8.05788 132.184 8.62193C132.666 9.18599 132.907 9.99177 132.907 10.9587C132.907 11.7645 132.666 12.5703 132.264 13.2149C131.782 13.8596 131.139 14.4236 130.256 14.8265C129.372 15.2294 128.247 15.3906 126.961 15.3906C125.836 15.31 124.792 15.1488 123.667 14.8265Z" fill="#000229"/>
<path d="M146.565 3.70657V15.0682H143.994V13.6178C143.592 14.1012 143.03 14.5041 142.387 14.8265C141.744 15.0682 141.021 15.2294 140.298 15.2294C138.771 15.2294 137.566 14.8265 136.682 13.9401C135.798 13.0537 135.396 11.845 135.396 10.1529V3.626H138.048V9.74999C138.048 10.7975 138.289 11.5227 138.771 12.0062C139.253 12.4897 139.896 12.7314 140.7 12.7314C141.664 12.7314 142.387 12.4091 142.949 11.845C143.512 11.281 143.753 10.3946 143.753 9.26652V3.46484H146.565V3.70657Z" fill="#000229"/>
<path d="M159.262 4.27025C160.146 4.75373 160.788 5.39836 161.351 6.28473C161.833 7.17109 162.074 8.21861 162.074 9.34671C162.074 10.4748 161.833 11.5223 161.351 12.4087C160.869 13.2951 160.146 14.0203 159.262 14.5038C158.378 14.9872 157.414 15.229 156.289 15.229C154.762 15.229 153.557 14.7455 152.673 13.698V19.2579H150.021V3.70619H152.593V5.2372C152.994 4.67315 153.557 4.27025 154.2 4.02852C154.842 3.78678 155.566 3.62562 156.369 3.62562C157.414 3.54504 158.378 3.78678 159.262 4.27025ZM158.458 12.0058C159.101 11.3612 159.422 10.4748 159.422 9.4273C159.422 8.37977 159.101 7.49341 158.458 6.84878C157.815 6.20414 157.012 5.88183 156.048 5.88183C155.405 5.88183 154.842 6.04299 154.36 6.28473C153.878 6.60704 153.477 7.00994 153.155 7.49341C152.834 8.05746 152.673 8.6215 152.673 9.34671C152.673 10.0719 152.834 10.7166 153.155 11.2C153.477 11.7641 153.878 12.167 154.36 12.4087C154.842 12.731 155.485 12.8116 156.048 12.8116C157.012 12.9728 157.815 12.6504 158.458 12.0058Z" fill="#000229"/>
<path d="M173.887 4.27025C174.771 4.75373 175.413 5.39836 175.976 6.28473C176.458 7.17109 176.699 8.21861 176.699 9.34671C176.699 10.4748 176.458 11.5223 175.976 12.4087C175.494 13.2951 174.771 14.0203 173.887 14.5038C173.003 14.9872 172.039 15.229 170.914 15.229C169.387 15.229 168.182 14.7455 167.298 13.698V19.2579H164.646V3.70619H167.218V5.2372C167.619 4.67315 168.182 4.27025 168.825 4.02852C169.468 3.78678 170.191 3.62562 170.994 3.62562C172.039 3.54504 173.003 3.78678 173.887 4.27025ZM173.003 12.0058C173.646 11.3612 173.967 10.4748 173.967 9.4273C173.967 8.37977 173.646 7.49341 173.003 6.84878C172.36 6.20414 171.557 5.88183 170.592 5.88183C169.95 5.88183 169.387 6.04299 168.905 6.28473C168.423 6.60704 168.021 7.00994 167.7 7.49341C167.378 8.05746 167.218 8.6215 167.218 9.34671C167.218 10.0719 167.378 10.7166 167.7 11.2C168.021 11.7641 168.423 12.167 168.905 12.4087C169.387 12.731 170.03 12.8116 170.592 12.8116C171.637 12.9728 172.44 12.6504 173.003 12.0058Z" fill="#000229"/>
<path d="M181.198 14.5041C180.314 14.0206 179.591 13.2954 179.028 12.4091C178.546 11.5227 178.225 10.4752 178.225 9.42765C178.225 8.29955 178.466 7.3326 179.028 6.44624C179.51 5.55987 180.233 4.83465 181.198 4.35118C182.081 3.86771 183.126 3.62598 184.331 3.62598C185.456 3.62598 186.501 3.86771 187.465 4.35118C188.349 4.83465 189.072 5.55987 189.634 6.44624C190.116 7.3326 190.438 8.29955 190.438 9.42765C190.438 10.5558 190.197 11.5227 189.634 12.4091C189.152 13.2954 188.429 14.0206 187.465 14.5041C186.581 14.9876 185.536 15.2293 184.331 15.2293C183.206 15.2293 182.162 14.9876 181.198 14.5041ZM186.742 12.0062C187.385 11.3615 187.706 10.4752 187.706 9.42765C187.706 8.38013 187.385 7.49376 186.742 6.84913C186.099 6.2045 185.295 5.88219 184.331 5.88219C183.367 5.88219 182.564 6.2045 181.921 6.84913C181.278 7.49376 180.957 8.38013 180.957 9.42765C180.957 10.4752 181.278 11.3615 181.921 12.0062C182.564 12.6508 183.367 12.9731 184.331 12.9731C185.295 12.9731 186.099 12.6508 186.742 12.0062Z" fill="#000229"/>
<path d="M199.516 3.54492V6.12344C199.275 6.04286 199.115 6.04287 198.874 6.04287C197.829 6.04287 197.026 6.36518 196.463 6.92923C195.901 7.57386 195.579 8.37966 195.579 9.50776V15.0677H192.928V3.70608H195.499V5.39824C196.222 4.18956 197.588 3.54492 199.516 3.54492Z" fill="#000229"/>
<path d="M208.997 14.504C208.676 14.7457 208.274 14.9875 207.872 15.0681C207.39 15.2292 206.988 15.2292 206.426 15.2292C205.14 15.2292 204.176 14.9069 203.533 14.2623C202.89 13.6176 202.489 12.6507 202.489 11.442V5.96264H200.641V3.8676H202.489V1.28906H205.14V3.8676H208.194V5.96264H205.14V11.3614C205.14 11.9255 205.301 12.3284 205.542 12.6507C205.783 12.973 206.185 13.0536 206.747 13.0536C207.31 13.0536 207.872 12.8924 208.274 12.5701L208.997 14.504Z" fill="#000229"/>
<path d="M116.114 24.8983H114.025V23.9314H119.329V24.8983H117.32V30.2165H116.114V24.8983Z" fill="#000229"/>
<path d="M120.132 30.1365C119.73 30.0559 119.489 29.8948 119.248 29.7336L119.65 28.8472C119.891 29.0084 120.132 29.089 120.453 29.1695C120.775 29.2501 121.016 29.3307 121.337 29.3307C121.98 29.3307 122.382 29.1695 122.382 28.7667C122.382 28.6055 122.301 28.4443 122.141 28.4443C121.98 28.3638 121.659 28.2832 121.337 28.2832C120.935 28.2026 120.614 28.122 120.373 28.0414C120.132 27.9609 119.891 27.7997 119.73 27.6386C119.569 27.4774 119.489 27.1551 119.489 26.8328C119.489 26.3493 119.65 26.027 120.052 25.7047C120.453 25.4629 120.935 25.3018 121.578 25.3018C121.9 25.3018 122.221 25.3018 122.542 25.3823C122.864 25.4629 123.105 25.5435 123.346 25.7047L122.944 26.591C122.542 26.3493 122.06 26.2687 121.578 26.2687C121.257 26.2687 121.016 26.3493 120.855 26.4299C120.694 26.5104 120.614 26.6716 120.614 26.8328C120.614 26.9939 120.694 27.1551 120.855 27.2357C121.016 27.3162 121.337 27.3968 121.739 27.4774C122.141 27.558 122.462 27.6385 122.703 27.7191C122.944 27.7997 123.185 27.9609 123.346 28.122C123.507 28.2832 123.587 28.6055 123.587 28.9278C123.587 29.4113 123.426 29.7336 123.025 29.9753C122.623 30.2171 122.141 30.3782 121.418 30.3782C120.935 30.2976 120.534 30.2171 120.132 30.1365Z" fill="#000229"/>
<path d="M125.276 29.9751C124.874 29.7334 124.552 29.4916 124.392 29.0887C124.151 28.6858 124.07 28.2829 124.07 27.7995C124.07 27.316 124.151 26.9131 124.392 26.5102C124.633 26.1073 124.954 25.8656 125.276 25.6238C125.677 25.3821 126.079 25.3015 126.561 25.3015C127.043 25.3015 127.525 25.3821 127.847 25.6238C128.249 25.8656 128.57 26.1073 128.731 26.5102C128.972 26.9131 129.052 27.316 129.052 27.7995C129.052 28.2829 128.972 28.6858 128.731 29.0887C128.49 29.4916 128.168 29.7334 127.847 29.9751C127.445 30.2168 127.043 30.2974 126.561 30.2974C126.079 30.2974 125.677 30.1362 125.276 29.9751ZM127.606 28.847C127.847 28.6053 128.007 28.2024 128.007 27.7189C128.007 27.2354 127.847 26.9131 127.606 26.5908C127.365 26.349 126.963 26.1879 126.561 26.1879C126.159 26.1879 125.838 26.349 125.517 26.5908C125.276 26.8325 125.115 27.2354 125.115 27.7189C125.115 28.2024 125.276 28.5247 125.517 28.847C125.758 29.0887 126.159 29.2499 126.561 29.2499C127.043 29.3305 127.365 29.1693 127.606 28.847Z" fill="#000229"/>
<path d="M130.256 23.5288H131.381V30.2169H130.256V23.5288Z" fill="#000229"/>
<path d="M137.006 25.8658C137.408 26.1881 137.569 26.7522 137.569 27.4774V30.2171H136.444V27.558C136.444 27.1551 136.364 26.8328 136.122 26.591C135.962 26.3493 135.64 26.2687 135.239 26.2687C134.837 26.2687 134.515 26.4299 134.274 26.6716C134.033 26.9133 133.953 27.3162 133.953 27.7191V30.1365H132.828V25.3018H133.873V25.9464C134.033 25.7047 134.274 25.5435 134.596 25.4629C134.917 25.3823 135.158 25.3018 135.56 25.3018C136.203 25.3018 136.685 25.5435 137.006 25.8658Z" fill="#000229"/>
<path d="M143.515 28.1223H139.738C139.819 28.4446 139.98 28.7669 140.221 28.9281C140.462 29.1698 140.863 29.2504 141.265 29.2504C141.828 29.2504 142.229 29.0892 142.551 28.7669L143.113 29.4921C142.872 29.7338 142.631 29.9756 142.31 30.0562C141.988 30.2173 141.587 30.2173 141.185 30.2173C140.622 30.2173 140.221 30.1367 139.819 29.895C139.417 29.6533 139.096 29.4115 138.855 29.0086C138.614 28.6057 138.533 28.2028 138.533 27.7194C138.533 27.2359 138.614 26.833 138.855 26.4301C139.096 26.0272 139.337 25.7855 139.738 25.5437C140.14 25.302 140.542 25.2214 141.024 25.2214C141.506 25.2214 141.908 25.302 142.31 25.5437C142.711 25.7855 142.952 26.0272 143.194 26.4301C143.435 26.833 143.515 27.2359 143.515 27.7194C143.595 27.8805 143.515 28.0417 143.515 28.1223ZM140.221 26.5913C139.98 26.833 139.819 27.0747 139.738 27.4776H142.47C142.39 27.1553 142.31 26.833 142.069 26.5913C141.828 26.3495 141.506 26.269 141.185 26.269C140.783 26.269 140.462 26.3495 140.221 26.5913Z" fill="#000229"/>
<path d="M147.533 29.9755C147.372 30.0561 147.212 30.1366 147.051 30.2172C146.89 30.2978 146.649 30.2978 146.489 30.2978C145.926 30.2978 145.524 30.1366 145.283 29.8949C144.962 29.6532 144.882 29.2503 144.882 28.6862V26.3494H144.078V25.4631H144.882V24.335H146.007V25.4631H147.292V26.3494H146.007V28.6056C146.007 28.8474 146.087 29.0085 146.167 29.1697C146.248 29.3309 146.408 29.3308 146.649 29.3308C146.89 29.3308 147.131 29.2503 147.292 29.1697L147.533 29.9755Z" fill="#000229"/>
<path d="M155.807 25.3823L154.039 30.2171H152.995L151.789 26.9133L150.504 30.2171H149.459L147.691 25.3823H148.736L150.022 28.9278L151.307 25.3823H152.271L153.557 28.9278L154.843 25.3823H155.807Z" fill="#000229"/>
<path d="M157.334 29.9751C156.932 29.7334 156.611 29.4916 156.45 29.0887C156.209 28.6858 156.129 28.2829 156.129 27.7995C156.129 27.316 156.209 26.9131 156.45 26.5102C156.691 26.1073 157.013 25.8656 157.334 25.6238C157.736 25.3821 158.138 25.3015 158.62 25.3015C159.102 25.3015 159.584 25.3821 159.905 25.6238C160.307 25.8656 160.629 26.1073 160.789 26.5102C161.03 26.9131 161.111 27.316 161.111 27.7995C161.111 28.2829 161.03 28.6858 160.789 29.0887C160.548 29.4916 160.227 29.7334 159.905 29.9751C159.504 30.2168 159.102 30.2974 158.62 30.2974C158.138 30.2974 157.736 30.1362 157.334 29.9751ZM159.664 28.847C159.905 28.6053 160.066 28.2024 160.066 27.7189C160.066 27.2354 159.905 26.9131 159.664 26.5908C159.423 26.349 159.022 26.1879 158.62 26.1879C158.218 26.1879 157.897 26.349 157.575 26.5908C157.334 26.8325 157.173 27.2354 157.173 27.7189C157.173 28.2024 157.334 28.5247 157.575 28.847C157.816 29.0887 158.218 29.2499 158.62 29.2499C159.022 29.2499 159.423 29.1693 159.664 28.847Z" fill="#000229"/>
<path d="M165.048 25.3018V26.3493C164.968 26.3493 164.888 26.3493 164.807 26.3493C164.406 26.3493 164.004 26.5104 163.763 26.7522C163.522 26.9939 163.361 27.3968 163.361 27.8803V30.2171H162.316V25.3823H163.361V26.1075C163.682 25.5435 164.245 25.3018 165.048 25.3018Z" fill="#000229"/>
<path d="M167.94 28.1218L167.137 28.9276V30.2169H166.012V23.5288H167.137V27.5578L169.467 25.3821H170.833L168.824 27.3966L170.993 30.2169H169.627L167.94 28.1218Z" fill="#000229"/>
<path d="M171.878 30.1362C171.476 30.0557 171.235 29.8945 170.994 29.7334L171.396 28.847C171.637 29.0081 171.878 29.0887 172.199 29.1693C172.521 29.2499 172.762 29.3305 173.083 29.3305C173.726 29.3305 174.128 29.1693 174.128 28.7664C174.128 28.6052 174.047 28.4441 173.887 28.4441C173.726 28.3635 173.405 28.2829 173.083 28.2829C172.681 28.2024 172.36 28.1218 172.119 28.0412C171.878 27.9606 171.637 27.7995 171.476 27.6383C171.316 27.4772 171.235 27.1548 171.235 26.8325C171.235 26.349 171.396 26.0267 171.798 25.7044C172.199 25.4627 172.682 25.3015 173.324 25.3015C173.646 25.3015 173.967 25.3015 174.289 25.3821C174.61 25.4627 174.851 25.5433 175.092 25.7044L174.69 26.5908C174.289 26.349 173.806 26.2685 173.324 26.2685C173.003 26.2685 172.762 26.349 172.601 26.4296C172.44 26.5102 172.36 26.6714 172.36 26.8325C172.36 26.9937 172.44 27.1548 172.601 27.2354C172.762 27.316 173.083 27.3966 173.485 27.4771C173.887 27.5577 174.208 27.6383 174.449 27.7189C174.69 27.7995 174.931 27.9606 175.092 28.1218C175.253 28.2829 175.333 28.6052 175.333 28.9276C175.333 29.411 175.172 29.7334 174.771 29.9751C174.369 30.2168 173.887 30.378 173.164 30.378C172.682 30.2974 172.28 30.2168 171.878 30.1362Z" fill="#000229"/>
<path d="M80.2773 26.9131H109.846" stroke="#000229" stroke-width="0.3" stroke-miterlimit="10"/>
<path d="M179.432 26.9131H209.001" stroke="#000229" stroke-width="0.3" stroke-miterlimit="10"/>
</svg>
